<svg width="394" height="326" viewBox="0 0 394 326" fill="none" xmlns="http://www.w3.org/2000/svg">
<rect x="0.5" y="278.5" width="393" height="47" rx="11.5" fill="white" stroke="#EFEFEF"/>
<rect x="358" y="290" width="24" height="24" rx="8" fill="#FF9501"/>
<path d="M370 307.5V296.5" stroke="white" stroke-width="2.5" stroke-linecap="round" stroke-linejoin="round"/>
<path d="M365.5 301L370 296.5L374.5 301" stroke="white" stroke-width="2.5" stroke-linecap="round" stroke-linejoin="round"/>
<path d="M345.091 303.818H326.909C326.407 303.818 326 304.225 326 304.727V309.273C326 309.775 326.407 310.182 326.909 310.182H345.091C345.593 310.182 346 309.775 346 309.273V304.727C346 304.225 345.593 303.818 345.091 303.818Z" stroke="#CCCCCC" stroke-width="2" stroke-linecap="round" stroke-linejoin="round"/>
<path d="M345.091 293.818H326.909C326.407 293.818 326 294.225 326 294.727V299.273C326 299.775 326.407 300.182 326.909 300.182H345.091C345.593 300.182 346 299.775 346 299.273V294.727C346 294.225 345.593 293.818 345.091 293.818Z" stroke="#CCCCCC" stroke-width="2" stroke-linecap="round" stroke-linejoin="round"/>
<path d="M18.12 307H16.3729L20.2987 296.091H22.2003L26.1261 307H24.3789L21.2947 298.072H21.2095L18.12 307ZM18.413 302.728H24.0806V304.113H18.413V302.728ZM33.646 300.816L32.2025 301.071C32.1421 300.887 32.0463 300.711 31.9149 300.544C31.787 300.377 31.613 300.24 31.3928 300.134C31.1727 300.027 30.8975 299.974 30.5672 299.974C30.1162 299.974 29.7398 300.075 29.4379 300.278C29.1361 300.477 28.9852 300.734 28.9852 301.05C28.9852 301.324 29.0864 301.544 29.2888 301.711C29.4912 301.877 29.8179 302.014 30.2689 302.121L31.5686 302.419C32.3215 302.593 32.8825 302.861 33.2519 303.223C33.6212 303.586 33.8058 304.056 33.8058 304.635C33.8058 305.125 33.6638 305.562 33.3797 305.945C33.0992 306.325 32.7068 306.624 32.2025 306.84C31.7018 307.057 31.1212 307.165 30.4607 307.165C29.5445 307.165 28.797 306.97 28.2181 306.579C27.6393 306.185 27.2842 305.626 27.1528 304.901L28.6922 304.667C28.7881 305.068 28.9852 305.372 29.2835 305.578C29.5818 305.78 29.9706 305.881 30.45 305.881C30.972 305.881 31.3893 305.773 31.7018 305.556C32.0143 305.336 32.1705 305.068 32.1705 304.752C32.1705 304.496 32.0747 304.282 31.8829 304.108C31.6947 303.934 31.4053 303.802 31.0146 303.713L29.6297 303.41C28.8662 303.236 28.3016 302.959 27.9358 302.579C27.5736 302.199 27.3925 301.718 27.3925 301.135C27.3925 300.652 27.5274 300.23 27.7973 299.868C28.0672 299.505 28.4401 299.223 28.9159 299.021C29.3918 298.815 29.9369 298.712 30.5512 298.712C31.4355 298.712 32.1315 298.903 32.6393 299.287C33.1471 299.667 33.4827 300.176 33.646 300.816ZM37.0218 304.225L37.0112 302.281H37.2882L40.5481 298.818H42.4551L38.737 302.76H38.4867L37.0218 304.225ZM35.557 307V296.091H37.1497V307H35.557ZM40.7239 307L37.7942 303.112L38.8915 301.998L42.6788 307H40.7239ZM51.6956 298.818V300.097H47.2265V298.818H51.6956ZM48.425 296.858H50.0177V304.598C50.0177 304.907 50.0638 305.139 50.1562 305.295C50.2485 305.448 50.3675 305.553 50.5131 305.61C50.6622 305.663 50.8238 305.69 50.9978 305.69C51.1256 305.69 51.2375 305.681 51.3334 305.663C51.4292 305.645 51.5038 305.631 51.5571 305.62L51.8447 306.936C51.7524 306.972 51.621 307.007 51.4506 307.043C51.2801 307.082 51.067 307.103 50.8113 307.107C50.3923 307.114 50.0017 307.039 49.6395 306.883C49.2773 306.727 48.9843 306.485 48.7606 306.158C48.5368 305.832 48.425 305.422 48.425 304.928V296.858ZM55.2259 302.142V307H53.6332V296.091H55.2045V300.15H55.3058C55.4975 299.71 55.7905 299.36 56.1847 299.1C56.5788 298.841 57.0938 298.712 57.7294 298.712C58.2905 298.712 58.7805 298.827 59.1996 299.058C59.6222 299.289 59.9489 299.633 60.1797 300.091C60.4141 300.546 60.5312 301.114 60.5312 301.796V307H58.9386V301.988C58.9386 301.387 58.7841 300.922 58.4751 300.592C58.1662 300.258 57.7365 300.091 57.1861 300.091C56.8097 300.091 56.4723 300.171 56.174 300.331C55.8793 300.491 55.6467 300.725 55.4762 301.034C55.3093 301.339 55.2259 301.709 55.2259 302.142ZM66.1829 307.165C65.3768 307.165 64.6825 306.993 64.1001 306.648C63.5213 306.3 63.0739 305.812 62.7578 305.184C62.4453 304.551 62.2891 303.811 62.2891 302.962C62.2891 302.124 62.4453 301.386 62.7578 300.746C63.0739 300.107 63.5142 299.608 64.0788 299.25C64.647 298.891 65.3111 298.712 66.071 298.712C66.5327 298.712 66.9801 298.788 67.4134 298.941C67.8466 299.093 68.2354 299.333 68.5799 299.66C68.9244 299.987 69.196 300.411 69.3949 300.933C69.5938 301.451 69.6932 302.082 69.6932 302.824V303.388H63.1893V302.195H68.1325C68.1325 301.776 68.0472 301.405 67.8768 301.082C67.7063 300.755 67.4666 300.498 67.1577 300.31C66.8523 300.121 66.4936 300.027 66.0817 300.027C65.6342 300.027 65.2436 300.137 64.9098 300.358C64.5795 300.574 64.3239 300.858 64.1428 301.21C63.9652 301.558 63.8764 301.936 63.8764 302.344V303.277C63.8764 303.824 63.9723 304.289 64.1641 304.672C64.3594 305.056 64.631 305.349 64.979 305.551C65.3271 305.75 65.7337 305.849 66.1989 305.849C66.5007 305.849 66.7759 305.807 67.0245 305.722C67.2731 305.633 67.4879 305.501 67.669 305.327C67.8501 305.153 67.9886 304.939 68.0845 304.683L69.592 304.955C69.4712 305.398 69.2546 305.787 68.9421 306.121C68.6332 306.451 68.2443 306.709 67.7756 306.893C67.3104 307.075 66.7795 307.165 66.1829 307.165ZM78.4929 307.16C77.8324 307.16 77.2429 306.991 76.7244 306.654C76.2095 306.313 75.8047 305.828 75.5099 305.2C75.2188 304.567 75.0732 303.809 75.0732 302.925C75.0732 302.041 75.2205 301.284 75.5153 300.656C75.8136 300.027 76.2219 299.546 76.7404 299.212C77.2589 298.879 77.8466 298.712 78.5036 298.712C79.0114 298.712 79.4197 298.797 79.7287 298.967C80.0412 299.134 80.2827 299.33 80.4531 299.553C80.6271 299.777 80.7621 299.974 80.858 300.145H80.9538V296.091H82.5465V307H80.9911V305.727H80.858C80.7621 305.901 80.6236 306.1 80.4425 306.324C80.2649 306.547 80.0199 306.743 79.7074 306.909C79.3949 307.076 78.9901 307.16 78.4929 307.16ZM78.8445 305.801C79.3026 305.801 79.6896 305.681 80.0057 305.439C80.3253 305.194 80.5668 304.855 80.7301 304.422C80.897 303.989 80.9805 303.484 80.9805 302.909C80.9805 302.341 80.8988 301.844 80.7354 301.418C80.5721 300.991 80.3324 300.659 80.0163 300.422C79.7003 300.184 79.3097 300.065 78.8445 300.065C78.3651 300.065 77.9656 300.189 77.646 300.438C77.3263 300.686 77.0849 301.025 76.9215 301.455C76.7617 301.885 76.6818 302.369 76.6818 302.909C76.6818 303.456 76.7635 303.948 76.9268 304.385C77.0902 304.821 77.3317 305.168 77.6513 305.423C77.9744 305.675 78.3722 305.801 78.8445 305.801ZM88.2661 307.165C87.499 307.165 86.8296 306.989 86.2579 306.638C85.6862 306.286 85.2423 305.794 84.9262 305.162C84.6102 304.53 84.4521 303.792 84.4521 302.946C84.4521 302.098 84.6102 301.355 84.9262 300.72C85.2423 300.084 85.6862 299.591 86.2579 299.239C86.8296 298.887 87.499 298.712 88.2661 298.712C89.0331 298.712 89.7025 298.887 90.2742 299.239C90.846 299.591 91.2899 300.084 91.6059 300.72C91.922 301.355 92.08 302.098 92.08 302.946C92.08 303.792 91.922 304.53 91.6059 305.162C91.2899 305.794 90.846 306.286 90.2742 306.638C89.7025 306.989 89.0331 307.165 88.2661 307.165ZM88.2714 305.828C88.7686 305.828 89.1805 305.697 89.5072 305.434C89.8339 305.171 90.0754 304.821 90.2316 304.385C90.3914 303.948 90.4713 303.467 90.4713 302.941C90.4713 302.419 90.3914 301.94 90.2316 301.503C90.0754 301.062 89.8339 300.709 89.5072 300.443C89.1805 300.176 88.7686 300.043 88.2714 300.043C87.7707 300.043 87.3552 300.176 87.0249 300.443C86.6982 300.709 86.455 301.062 86.2952 301.503C86.1389 301.94 86.0608 302.419 86.0608 302.941C86.0608 303.467 86.1389 303.948 86.2952 304.385C86.455 304.821 86.6982 305.171 87.0249 305.434C87.3552 305.697 87.7707 305.828 88.2714 305.828ZM97.3042 307.165C96.5123 307.165 95.8304 306.986 95.2587 306.627C94.6905 306.265 94.2537 305.766 93.9483 305.13C93.6429 304.495 93.4902 303.767 93.4902 302.946C93.4902 302.115 93.6465 301.382 93.959 300.746C94.2715 300.107 94.7118 299.608 95.28 299.25C95.8482 298.891 96.5176 298.712 97.2882 298.712C97.9096 298.712 98.4636 298.827 98.9501 299.058C99.4366 299.285 99.829 299.605 100.127 300.017C100.429 300.429 100.608 300.91 100.665 301.46H99.1152C99.03 301.077 98.8347 300.746 98.5293 300.469C98.2275 300.192 97.8226 300.054 97.3148 300.054C96.8709 300.054 96.4821 300.171 96.1483 300.406C95.818 300.636 95.5605 300.967 95.3759 301.396C95.1912 301.822 95.0989 302.327 95.0989 302.909C95.0989 303.506 95.1895 304.021 95.3706 304.454C95.5517 304.887 95.8074 305.223 96.1376 305.461C96.4714 305.699 96.8638 305.817 97.3148 305.817C97.6167 305.817 97.8901 305.762 98.1351 305.652C98.3837 305.539 98.5914 305.377 98.7583 305.168C98.9288 304.958 99.0478 304.706 99.1152 304.411H100.665C100.608 304.94 100.436 305.413 100.149 305.828C99.861 306.244 99.4757 306.57 98.9927 306.808C98.5133 307.046 97.9505 307.165 97.3042 307.165ZM107.551 303.607V298.818H109.149V307H107.583V305.583H107.498C107.31 306.02 107.008 306.384 106.593 306.675C106.181 306.963 105.668 307.107 105.053 307.107C104.528 307.107 104.062 306.991 103.658 306.76C103.256 306.526 102.94 306.18 102.709 305.722C102.482 305.263 102.369 304.697 102.369 304.022V298.818H103.961V303.831C103.961 304.388 104.116 304.832 104.425 305.162C104.734 305.493 105.135 305.658 105.628 305.658C105.927 305.658 106.223 305.583 106.518 305.434C106.816 305.285 107.063 305.059 107.258 304.757C107.457 304.456 107.555 304.072 107.551 303.607ZM111.289 307V298.818H112.818V300.15H112.919C113.09 299.699 113.369 299.347 113.756 299.095C114.143 298.839 114.606 298.712 115.146 298.712C115.693 298.712 116.151 298.839 116.52 299.095C116.893 299.351 117.168 299.702 117.346 300.15H117.431C117.626 299.713 117.937 299.365 118.363 299.106C118.789 298.843 119.297 298.712 119.887 298.712C120.629 298.712 121.234 298.944 121.703 299.409C122.175 299.875 122.412 300.576 122.412 301.513V307H120.819V301.663C120.819 301.109 120.668 300.707 120.366 300.459C120.064 300.21 119.704 300.086 119.285 300.086C118.766 300.086 118.363 300.246 118.076 300.565C117.788 300.881 117.644 301.288 117.644 301.785V307H116.057V301.561C116.057 301.118 115.918 300.761 115.641 300.491C115.364 300.221 115.004 300.086 114.56 300.086C114.258 300.086 113.979 300.166 113.724 300.326C113.472 300.482 113.267 300.7 113.111 300.981C112.958 301.261 112.882 301.586 112.882 301.956V307H111.289ZM128.073 307.165C127.266 307.165 126.572 306.993 125.99 306.648C125.411 306.3 124.964 305.812 124.647 305.184C124.335 304.551 124.179 303.811 124.179 302.962C124.179 302.124 124.335 301.386 124.647 300.746C124.964 300.107 125.404 299.608 125.968 299.25C126.537 298.891 127.201 298.712 127.961 298.712C128.422 298.712 128.87 298.788 129.303 298.941C129.736 299.093 130.125 299.333 130.47 299.66C130.814 299.987 131.086 300.411 131.285 300.933C131.483 301.451 131.583 302.082 131.583 302.824V303.388H125.079V302.195H130.022C130.022 301.776 129.937 301.405 129.766 301.082C129.596 300.755 129.356 300.498 129.047 300.31C128.742 300.121 128.383 300.027 127.971 300.027C127.524 300.027 127.133 300.137 126.799 300.358C126.469 300.574 126.214 300.858 126.032 301.21C125.855 301.558 125.766 301.936 125.766 302.344V303.277C125.766 303.824 125.862 304.289 126.054 304.672C126.249 305.056 126.521 305.349 126.869 305.551C127.217 305.75 127.623 305.849 128.089 305.849C128.39 305.849 128.666 305.807 128.914 305.722C129.163 305.633 129.378 305.501 129.559 305.327C129.74 305.153 129.878 304.939 129.974 304.683L131.482 304.955C131.361 305.398 131.144 305.787 130.832 306.121C130.523 306.451 130.134 306.709 129.665 306.893C129.2 307.075 128.669 307.165 128.073 307.165ZM134.943 302.142V307H133.35V298.818H134.879V300.15H134.98C135.168 299.717 135.463 299.369 135.864 299.106C136.269 298.843 136.779 298.712 137.393 298.712C137.95 298.712 138.439 298.829 138.858 299.063C139.277 299.294 139.602 299.638 139.833 300.097C140.063 300.555 140.179 301.121 140.179 301.796V307H138.586V301.988C138.586 301.395 138.432 300.931 138.123 300.597C137.814 300.26 137.389 300.091 136.85 300.091C136.48 300.091 136.152 300.171 135.864 300.331C135.58 300.491 135.355 300.725 135.188 301.034C135.024 301.339 134.943 301.709 134.943 302.142ZM146.134 298.818V300.097H141.665V298.818H146.134ZM142.863 296.858H144.456V304.598C144.456 304.907 144.502 305.139 144.595 305.295C144.687 305.448 144.806 305.553 144.952 305.61C145.101 305.663 145.262 305.69 145.436 305.69C145.564 305.69 145.676 305.681 145.772 305.663C145.868 305.645 145.942 305.631 145.996 305.62L146.283 306.936C146.191 306.972 146.059 307.007 145.889 307.043C145.719 307.082 145.506 307.103 145.25 307.107C144.831 307.114 144.44 307.039 144.078 306.883C143.716 306.727 143.423 306.485 143.199 306.158C142.975 305.832 142.863 305.422 142.863 304.928V296.858ZM154.247 307.181C153.728 307.181 153.259 307.085 152.84 306.893C152.421 306.698 152.089 306.416 151.844 306.047C151.603 305.677 151.482 305.224 151.482 304.688C151.482 304.227 151.571 303.847 151.748 303.548C151.926 303.25 152.166 303.014 152.468 302.84C152.769 302.666 153.107 302.534 153.48 302.446C153.852 302.357 154.232 302.289 154.619 302.243C155.11 302.186 155.507 302.14 155.813 302.105C156.118 302.066 156.34 302.004 156.479 301.918C156.617 301.833 156.686 301.695 156.686 301.503V301.466C156.686 301 156.555 300.64 156.292 300.384C156.033 300.129 155.646 300.001 155.131 300.001C154.595 300.001 154.172 300.12 153.863 300.358C153.558 300.592 153.346 300.853 153.229 301.141L151.732 300.8C151.91 300.303 152.169 299.901 152.51 299.596C152.855 299.287 153.251 299.063 153.698 298.925C154.145 298.783 154.616 298.712 155.11 298.712C155.436 298.712 155.782 298.751 156.148 298.829C156.518 298.903 156.862 299.042 157.182 299.244C157.505 299.447 157.769 299.736 157.975 300.113C158.181 300.485 158.284 300.97 158.284 301.567V307H156.729V305.881H156.665C156.562 306.087 156.407 306.29 156.202 306.489C155.996 306.687 155.731 306.853 155.408 306.984C155.085 307.115 154.698 307.181 154.247 307.181ZM154.593 305.903C155.033 305.903 155.41 305.816 155.722 305.642C156.038 305.468 156.278 305.24 156.441 304.96C156.608 304.676 156.692 304.372 156.692 304.049V302.994C156.635 303.051 156.525 303.104 156.361 303.154C156.202 303.2 156.019 303.241 155.813 303.277C155.607 303.309 155.406 303.339 155.211 303.367C155.015 303.392 154.852 303.413 154.721 303.431C154.412 303.47 154.129 303.536 153.874 303.628C153.622 303.721 153.419 303.854 153.267 304.028C153.117 304.198 153.043 304.425 153.043 304.71C153.043 305.104 153.188 305.402 153.48 305.604C153.771 305.803 154.142 305.903 154.593 305.903ZM169.899 310.068V305.727H169.803C169.707 305.901 169.569 306.1 169.388 306.324C169.21 306.547 168.965 306.743 168.653 306.909C168.34 307.076 167.935 307.16 167.438 307.16C166.778 307.16 166.188 306.991 165.67 306.654C165.155 306.313 164.75 305.828 164.455 305.2C164.164 304.567 164.018 303.809 164.018 302.925C164.018 302.041 164.166 301.284 164.461 300.656C164.759 300.027 165.167 299.546 165.686 299.212C166.204 298.879 166.792 298.712 167.449 298.712C167.957 298.712 168.365 298.797 168.674 298.967C168.987 299.134 169.228 299.33 169.398 299.553C169.572 299.777 169.707 299.974 169.803 300.145H169.936V298.818H171.492V310.068H169.899ZM167.79 305.801C168.248 305.801 168.635 305.681 168.951 305.439C169.271 305.194 169.512 304.855 169.675 304.422C169.842 303.989 169.926 303.484 169.926 302.909C169.926 302.341 169.844 301.844 169.681 301.418C169.517 300.991 169.278 300.659 168.962 300.422C168.646 300.184 168.255 300.065 167.79 300.065C167.31 300.065 166.911 300.189 166.591 300.438C166.272 300.686 166.03 301.025 165.867 301.455C165.707 301.885 165.627 302.369 165.627 302.909C165.627 303.456 165.709 303.948 165.872 304.385C166.036 304.821 166.277 305.168 166.597 305.423C166.92 305.675 167.317 305.801 167.79 305.801ZM178.816 303.607V298.818H180.414V307H178.848V305.583H178.763C178.575 306.02 178.273 306.384 177.857 306.675C177.445 306.963 176.932 307.107 176.318 307.107C175.792 307.107 175.327 306.991 174.922 306.76C174.521 306.526 174.205 306.18 173.974 305.722C173.747 305.263 173.633 304.697 173.633 304.022V298.818H175.226V303.831C175.226 304.388 175.38 304.832 175.689 305.162C175.998 305.493 176.4 305.658 176.893 305.658C177.191 305.658 177.488 305.583 177.783 305.434C178.081 305.285 178.328 305.059 178.523 304.757C178.722 304.456 178.82 304.072 178.816 303.607ZM186.08 307.165C185.274 307.165 184.58 306.993 183.998 306.648C183.419 306.3 182.971 305.812 182.655 305.184C182.343 304.551 182.187 303.811 182.187 302.962C182.187 302.124 182.343 301.386 182.655 300.746C182.971 300.107 183.412 299.608 183.976 299.25C184.544 298.891 185.209 298.712 185.968 298.712C186.43 298.712 186.878 298.788 187.311 298.941C187.744 299.093 188.133 299.333 188.477 299.66C188.822 299.987 189.093 300.411 189.292 300.933C189.491 301.451 189.591 302.082 189.591 302.824V303.388H183.087V302.195H188.03C188.03 301.776 187.945 301.405 187.774 301.082C187.604 300.755 187.364 300.498 187.055 300.31C186.75 300.121 186.391 300.027 185.979 300.027C185.532 300.027 185.141 300.137 184.807 300.358C184.477 300.574 184.221 300.858 184.04 301.21C183.863 301.558 183.774 301.936 183.774 302.344V303.277C183.774 303.824 183.87 304.289 184.062 304.672C184.257 305.056 184.528 305.349 184.877 305.551C185.225 305.75 185.631 305.849 186.096 305.849C186.398 305.849 186.673 305.807 186.922 305.722C187.171 305.633 187.385 305.501 187.566 305.327C187.748 305.153 187.886 304.939 187.982 304.683L189.489 304.955C189.369 305.398 189.152 305.787 188.84 306.121C188.531 306.451 188.142 306.709 187.673 306.893C187.208 307.075 186.677 307.165 186.08 307.165ZM197.489 300.816L196.045 301.071C195.985 300.887 195.889 300.711 195.758 300.544C195.63 300.377 195.456 300.24 195.236 300.134C195.015 300.027 194.74 299.974 194.41 299.974C193.959 299.974 193.583 300.075 193.281 300.278C192.979 300.477 192.828 300.734 192.828 301.05C192.828 301.324 192.929 301.544 193.132 301.711C193.334 301.877 193.661 302.014 194.112 302.121L195.411 302.419C196.164 302.593 196.725 302.861 197.095 303.223C197.464 303.586 197.649 304.056 197.649 304.635C197.649 305.125 197.507 305.562 197.222 305.945C196.942 306.325 196.55 306.624 196.045 306.84C195.545 307.057 194.964 307.165 194.303 307.165C193.387 307.165 192.64 306.97 192.061 306.579C191.482 306.185 191.127 305.626 190.996 304.901L192.535 304.667C192.631 305.068 192.828 305.372 193.126 305.578C193.425 305.78 193.813 305.881 194.293 305.881C194.815 305.881 195.232 305.773 195.545 305.556C195.857 305.336 196.013 305.068 196.013 304.752C196.013 304.496 195.917 304.282 195.726 304.108C195.537 303.934 195.248 303.802 194.857 303.713L193.472 303.41C192.709 303.236 192.144 302.959 191.779 302.579C191.416 302.199 191.235 301.718 191.235 301.135C191.235 300.652 191.37 300.23 191.64 299.868C191.91 299.505 192.283 299.223 192.759 299.021C193.235 298.815 193.78 298.712 194.394 298.712C195.278 298.712 195.974 298.903 196.482 299.287C196.99 299.667 197.325 300.176 197.489 300.816ZM203.219 298.818V300.097H198.75V298.818H203.219ZM199.948 296.858H201.541V304.598C201.541 304.907 201.587 305.139 201.68 305.295C201.772 305.448 201.891 305.553 202.036 305.61C202.186 305.663 202.347 305.69 202.521 305.69C202.649 305.69 202.761 305.681 202.857 305.663C202.953 305.645 203.027 305.631 203.081 305.62L203.368 306.936C203.276 306.972 203.144 307.007 202.974 307.043C202.804 307.082 202.59 307.103 202.335 307.107C201.916 307.114 201.525 307.039 201.163 306.883C200.801 306.727 200.508 306.485 200.284 306.158C200.06 305.832 199.948 305.422 199.948 304.928V296.858ZM204.981 307V298.818H206.574V307H204.981ZM205.785 297.556C205.508 297.556 205.27 297.463 205.071 297.279C204.876 297.091 204.778 296.867 204.778 296.608C204.778 296.345 204.876 296.121 205.071 295.936C205.27 295.748 205.508 295.654 205.785 295.654C206.062 295.654 206.298 295.748 206.494 295.936C206.692 296.121 206.792 296.345 206.792 296.608C206.792 296.867 206.692 297.091 206.494 297.279C206.298 297.463 206.062 297.556 205.785 297.556ZM212.163 307.165C211.396 307.165 210.726 306.989 210.154 306.638C209.583 306.286 209.139 305.794 208.823 305.162C208.507 304.53 208.349 303.792 208.349 302.946C208.349 302.098 208.507 301.355 208.823 300.72C209.139 300.084 209.583 299.591 210.154 299.239C210.726 298.887 211.396 298.712 212.163 298.712C212.93 298.712 213.599 298.887 214.171 299.239C214.742 299.591 215.186 300.084 215.502 300.72C215.818 301.355 215.976 302.098 215.976 302.946C215.976 303.792 215.818 304.53 215.502 305.162C215.186 305.794 214.742 306.286 214.171 306.638C213.599 306.989 212.93 307.165 212.163 307.165ZM212.168 305.828C212.665 305.828 213.077 305.697 213.404 305.434C213.73 305.171 213.972 304.821 214.128 304.385C214.288 303.948 214.368 303.467 214.368 302.941C214.368 302.419 214.288 301.94 214.128 301.503C213.972 301.062 213.73 300.709 213.404 300.443C213.077 300.176 212.665 300.043 212.168 300.043C211.667 300.043 211.252 300.176 210.921 300.443C210.595 300.709 210.351 301.062 210.192 301.503C210.035 301.94 209.957 302.419 209.957 302.941C209.957 303.467 210.035 303.948 210.192 304.385C210.351 304.821 210.595 305.171 210.921 305.434C211.252 305.697 211.667 305.828 212.168 305.828ZM219.347 302.142V307H217.754V298.818H219.283V300.15H219.384C219.572 299.717 219.867 299.369 220.268 299.106C220.673 298.843 221.183 298.712 221.797 298.712C222.355 298.712 222.843 298.829 223.262 299.063C223.681 299.294 224.006 299.638 224.237 300.097C224.468 300.555 224.583 301.121 224.583 301.796V307H222.99V301.988C222.99 301.395 222.836 300.931 222.527 300.597C222.218 300.26 221.794 300.091 221.254 300.091C220.885 300.091 220.556 300.171 220.268 300.331C219.984 300.491 219.759 300.725 219.592 301.034C219.429 301.339 219.347 301.709 219.347 302.142ZM227.768 307.101C227.477 307.101 227.227 306.998 227.017 306.792C226.808 306.583 226.703 306.331 226.703 306.036C226.703 305.745 226.808 305.496 227.017 305.29C227.227 305.081 227.477 304.976 227.768 304.976C228.06 304.976 228.31 305.081 228.52 305.29C228.729 305.496 228.834 305.745 228.834 306.036C228.834 306.231 228.784 306.411 228.685 306.574C228.589 306.734 228.461 306.862 228.301 306.957C228.141 307.053 227.964 307.101 227.768 307.101ZM232.017 307.101C231.725 307.101 231.475 306.998 231.265 306.792C231.056 306.583 230.951 306.331 230.951 306.036C230.951 305.745 231.056 305.496 231.265 305.29C231.475 305.081 231.725 304.976 232.017 304.976C232.308 304.976 232.558 305.081 232.768 305.29C232.977 305.496 233.082 305.745 233.082 306.036C233.082 306.231 233.032 306.411 232.933 306.574C232.837 306.734 232.709 306.862 232.549 306.957C232.389 307.053 232.212 307.101 232.017 307.101ZM236.265 307.101C235.973 307.101 235.723 306.998 235.513 306.792C235.304 306.583 235.199 306.331 235.199 306.036C235.199 305.745 235.304 305.496 235.513 305.29C235.723 305.081 235.973 304.976 236.265 304.976C236.556 304.976 236.806 305.081 237.016 305.29C237.225 305.496 237.33 305.745 237.33 306.036C237.33 306.231 237.28 306.411 237.181 306.574C237.085 306.734 236.957 306.862 236.797 306.957C236.637 307.053 236.46 307.101 236.265 307.101Z" fill="#707070"/>
<rect x="0.5" y="0.5" width="393" height="269" rx="11.5" fill="white"/>
<rect x="12" y="12" width="362" height="16" rx="6" fill="#EEEDEE"/>
<rect x="12" y="32" width="275" height="16" rx="6" fill="#EEEDEE"/>
<rect x="12" y="64" width="342" height="16" rx="6" fill="#EEEDEE"/>
<rect x="12" y="84" width="229" height="16" rx="6" fill="#EEEDEE"/>
<rect x="12" y="116" width="365" height="16" rx="6" fill="#EEEDEE"/>
<rect x="12" y="136" width="308" height="16" rx="6" fill="#EEEDEE"/>
<rect x="4" y="160" width="386" height="54" rx="8" fill="#F3F3F3"/>
<path d="M13.1985 183V172.091H14.8445V176.832H20.283V172.091H21.9343V183H20.283V178.243H14.8445V183H13.1985ZM27.6499 183.165C26.8828 183.165 26.2134 182.989 25.6417 182.638C25.07 182.286 24.6261 181.794 24.31 181.162C23.994 180.53 23.8359 179.792 23.8359 178.946C23.8359 178.098 23.994 177.355 24.31 176.72C24.6261 176.084 25.07 175.591 25.6417 175.239C26.2134 174.887 26.8828 174.712 27.6499 174.712C28.4169 174.712 29.0863 174.887 29.658 175.239C30.2298 175.591 30.6737 176.084 30.9897 176.72C31.3058 177.355 31.4638 178.098 31.4638 178.946C31.4638 179.792 31.3058 180.53 30.9897 181.162C30.6737 181.794 30.2298 182.286 29.658 182.638C29.0863 182.989 28.4169 183.165 27.6499 183.165ZM27.6552 181.828C28.1523 181.828 28.5643 181.697 28.891 181.434C29.2177 181.171 29.4592 180.821 29.6154 180.385C29.7752 179.948 29.8551 179.467 29.8551 178.941C29.8551 178.419 29.7752 177.94 29.6154 177.503C29.4592 177.062 29.2177 176.709 28.891 176.443C28.5643 176.176 28.1523 176.043 27.6552 176.043C27.1545 176.043 26.739 176.176 26.4087 176.443C26.082 176.709 25.8388 177.062 25.679 177.503C25.5227 177.94 25.4446 178.419 25.4446 178.941C25.4446 179.467 25.5227 179.948 25.679 180.385C25.8388 180.821 26.082 181.171 26.4087 181.434C26.739 181.697 27.1545 181.828 27.6552 181.828ZM34.7663 183L32.3587 174.818H34.0046L35.608 180.827H35.6879L37.2965 174.818H38.9425L40.5405 180.8H40.6204L42.2131 174.818H43.859L41.4567 183H39.832L38.1701 177.093H38.0476L36.3857 183H34.7663ZM52.4031 183.16C51.7425 183.16 51.1531 182.991 50.6346 182.654C50.1197 182.313 49.7148 181.828 49.4201 181.2C49.1289 180.567 48.9833 179.809 48.9833 178.925C48.9833 178.041 49.1307 177.284 49.4254 176.656C49.7237 176.027 50.1321 175.546 50.6506 175.212C51.169 174.879 51.7567 174.712 52.4137 174.712C52.9215 174.712 53.3299 174.797 53.6388 174.967C53.9513 175.134 54.1928 175.33 54.3633 175.553C54.5373 175.777 54.6722 175.974 54.7681 176.145H54.864V172.091H56.4567V183H54.9013V181.727H54.7681C54.6722 181.901 54.5337 182.1 54.3526 182.324C54.1751 182.547 53.93 182.743 53.6175 182.909C53.305 183.076 52.9002 183.16 52.4031 183.16ZM52.7546 181.801C53.2127 181.801 53.5998 181.681 53.9158 181.439C54.2354 181.194 54.4769 180.855 54.6403 180.422C54.8072 179.989 54.8906 179.484 54.8906 178.909C54.8906 178.341 54.8089 177.844 54.6456 177.418C54.4822 176.991 54.2425 176.659 53.9265 176.422C53.6104 176.184 53.2198 176.065 52.7546 176.065C52.2752 176.065 51.8757 176.189 51.5561 176.438C51.2365 176.686 50.995 177.025 50.8317 177.455C50.6719 177.885 50.592 178.369 50.592 178.909C50.592 179.456 50.6737 179.948 50.837 180.385C51.0004 180.821 51.2418 181.168 51.5614 181.423C51.8846 181.675 52.2823 181.801 52.7546 181.801ZM58.7298 183V174.818H60.3225V183H58.7298ZM59.5342 173.556C59.2572 173.556 59.0193 173.463 58.8204 173.279C58.6251 173.091 58.5274 172.867 58.5274 172.608C58.5274 172.345 58.6251 172.121 58.8204 171.936C59.0193 171.748 59.2572 171.654 59.5342 171.654C59.8112 171.654 60.0473 171.748 60.2426 171.936C60.4415 172.121 60.5409 172.345 60.5409 172.608C60.5409 172.867 60.4415 173.091 60.2426 173.279C60.0473 173.463 59.8112 173.556 59.5342 173.556ZM65.5281 183.16C64.8675 183.16 64.2781 182.991 63.7596 182.654C63.2447 182.313 62.8398 181.828 62.5451 181.2C62.2539 180.567 62.1083 179.809 62.1083 178.925C62.1083 178.041 62.2557 177.284 62.5504 176.656C62.8487 176.027 63.2571 175.546 63.7756 175.212C64.294 174.879 64.8817 174.712 65.5387 174.712C66.0465 174.712 66.4549 174.797 66.7638 174.967C67.0763 175.134 67.3178 175.33 67.4883 175.553C67.6623 175.777 67.7972 175.974 67.8931 176.145H67.989V172.091H69.5817V183H68.0263V181.727H67.8931C67.7972 181.901 67.6587 182.1 67.4776 182.324C67.3001 182.547 67.055 182.743 66.7425 182.909C66.43 183.076 66.0252 183.16 65.5281 183.16ZM65.8796 181.801C66.3377 181.801 66.7248 181.681 67.0408 181.439C67.3604 181.194 67.6019 180.855 67.7653 180.422C67.9322 179.989 68.0156 179.484 68.0156 178.909C68.0156 178.341 67.9339 177.844 67.7706 177.418C67.6072 176.991 67.3675 176.659 67.0515 176.422C66.7354 176.184 66.3448 176.065 65.8796 176.065C65.4002 176.065 65.0007 176.189 64.6811 176.438C64.3615 176.686 64.12 177.025 63.9567 177.455C63.7969 177.885 63.717 178.369 63.717 178.909C63.717 179.456 63.7987 179.948 63.962 180.385C64.1254 180.821 64.3668 181.168 64.6864 181.423C65.0096 181.675 65.4073 181.801 65.8796 181.801ZM79.6438 174.818V176.097H75.1747V174.818H79.6438ZM76.3732 172.858H77.9659V180.598C77.9659 180.907 78.0121 181.139 78.1044 181.295C78.1967 181.448 78.3157 181.553 78.4613 181.61C78.6104 181.663 78.772 181.69 78.946 181.69C79.0739 181.69 79.1857 181.681 79.2816 181.663C79.3775 181.645 79.4521 181.631 79.5053 181.62L79.793 182.936C79.7006 182.972 79.5692 183.007 79.3988 183.043C79.2283 183.082 79.0153 183.103 78.7596 183.107C78.3406 183.114 77.9499 183.039 77.5877 182.883C77.2255 182.727 76.9325 182.485 76.7088 182.158C76.4851 181.832 76.3732 181.422 76.3732 180.928V172.858ZM83.1741 178.142V183H81.5814V172.091H83.1528V176.15H83.254C83.4458 175.71 83.7387 175.36 84.1329 175.1C84.5271 174.841 85.042 174.712 85.6776 174.712C86.2387 174.712 86.7288 174.827 87.1478 175.058C87.5704 175.289 87.8971 175.633 88.1279 176.091C88.3623 176.546 88.4795 177.114 88.4795 177.796V183H86.8868V177.988C86.8868 177.387 86.7323 176.922 86.4234 176.592C86.1144 176.258 85.6847 176.091 85.1343 176.091C84.7579 176.091 84.4205 176.171 84.1222 176.331C83.8275 176.491 83.5949 176.725 83.4244 177.034C83.2575 177.339 83.1741 177.709 83.1741 178.142ZM94.1311 183.165C93.325 183.165 92.6308 182.993 92.0484 182.648C91.4695 182.3 91.0221 181.812 90.7061 181.184C90.3936 180.551 90.2373 179.811 90.2373 178.962C90.2373 178.124 90.3936 177.386 90.7061 176.746C91.0221 176.107 91.4624 175.608 92.0271 175.25C92.5953 174.891 93.2593 174.712 94.0193 174.712C94.4809 174.712 94.9284 174.788 95.3616 174.941C95.7948 175.093 96.1837 175.333 96.5281 175.66C96.8726 175.987 97.1443 176.411 97.3431 176.933C97.542 177.451 97.6414 178.082 97.6414 178.824V179.388H91.1375V178.195H96.0807C96.0807 177.776 95.9955 177.405 95.825 177.082C95.6546 176.755 95.4149 176.498 95.1059 176.31C94.8005 176.121 94.4419 176.027 94.0299 176.027C93.5825 176.027 93.1919 176.137 92.858 176.358C92.5278 176.574 92.2721 176.858 92.091 177.21C91.9134 177.558 91.8247 177.936 91.8247 178.344V179.277C91.8247 179.824 91.9205 180.289 92.1123 180.672C92.3076 181.056 92.5793 181.349 92.9273 181.551C93.2753 181.75 93.6819 181.849 94.1471 181.849C94.449 181.849 94.7242 181.807 94.9727 181.722C95.2213 181.633 95.4362 181.501 95.6173 181.327C95.7984 181.153 95.9369 180.939 96.0328 180.683L97.5402 180.955C97.4195 181.398 97.2029 181.787 96.8904 182.121C96.5814 182.451 96.1926 182.709 95.7238 182.893C95.2586 183.075 94.7277 183.165 94.1311 183.165ZM109.509 176.816L108.066 177.071C108.005 176.887 107.91 176.711 107.778 176.544C107.65 176.377 107.476 176.24 107.256 176.134C107.036 176.027 106.761 175.974 106.43 175.974C105.979 175.974 105.603 176.075 105.301 176.278C104.999 176.477 104.848 176.734 104.848 177.05C104.848 177.324 104.95 177.544 105.152 177.711C105.354 177.877 105.681 178.014 106.132 178.121L107.432 178.419C108.185 178.593 108.746 178.861 109.115 179.223C109.484 179.586 109.669 180.056 109.669 180.635C109.669 181.125 109.527 181.562 109.243 181.945C108.962 182.325 108.57 182.624 108.066 182.84C107.565 183.057 106.984 183.165 106.324 183.165C105.408 183.165 104.66 182.97 104.081 182.579C103.503 182.185 103.147 181.626 103.016 180.901L104.555 180.667C104.651 181.068 104.848 181.372 105.147 181.578C105.445 181.78 105.834 181.881 106.313 181.881C106.835 181.881 107.253 181.773 107.565 181.556C107.878 181.336 108.034 181.068 108.034 180.752C108.034 180.496 107.938 180.282 107.746 180.108C107.558 179.934 107.269 179.802 106.878 179.713L105.493 179.41C104.729 179.236 104.165 178.959 103.799 178.579C103.437 178.199 103.256 177.718 103.256 177.135C103.256 176.652 103.391 176.23 103.661 175.868C103.93 175.505 104.303 175.223 104.779 175.021C105.255 174.815 105.8 174.712 106.415 174.712C107.299 174.712 107.995 174.903 108.503 175.287C109.01 175.667 109.346 176.176 109.509 176.816ZM115.24 174.818V176.097H110.77V174.818H115.24ZM111.969 172.858H113.562V180.598C113.562 180.907 113.608 181.139 113.7 181.295C113.792 181.448 113.911 181.553 114.057 181.61C114.206 181.663 114.368 181.69 114.542 181.69C114.67 181.69 114.781 181.681 114.877 181.663C114.973 181.645 115.048 181.631 115.101 181.62L115.389 182.936C115.296 182.972 115.165 183.007 114.994 183.043C114.824 183.082 114.611 183.103 114.355 183.107C113.936 183.114 113.546 183.039 113.183 182.883C112.821 182.727 112.528 182.485 112.305 182.158C112.081 181.832 111.969 181.422 111.969 180.928V172.858ZM122.184 179.607V174.818H123.782V183H122.216V181.583H122.131C121.943 182.02 121.641 182.384 121.225 182.675C120.813 182.963 120.3 183.107 119.686 183.107C119.16 183.107 118.695 182.991 118.29 182.76C117.889 182.526 117.573 182.18 117.342 181.722C117.115 181.263 117.001 180.697 117.001 180.022V174.818H118.594V179.831C118.594 180.388 118.748 180.832 119.057 181.162C119.366 181.493 119.768 181.658 120.261 181.658C120.56 181.658 120.856 181.583 121.151 181.434C121.449 181.285 121.696 181.059 121.891 180.757C122.09 180.456 122.188 180.072 122.184 179.607ZM128.985 183.16C128.325 183.16 127.735 182.991 127.217 182.654C126.702 182.313 126.297 181.828 126.002 181.2C125.711 180.567 125.565 179.809 125.565 178.925C125.565 178.041 125.713 177.284 126.007 176.656C126.306 176.027 126.714 175.546 127.233 175.212C127.751 174.879 128.339 174.712 128.996 174.712C129.504 174.712 129.912 174.797 130.221 174.967C130.533 175.134 130.775 175.33 130.945 175.553C131.119 175.777 131.254 175.974 131.35 176.145H131.446V172.091H133.039V183H131.483V181.727H131.35C131.254 181.901 131.116 182.1 130.935 182.324C130.757 182.547 130.512 182.743 130.2 182.909C129.887 183.076 129.482 183.16 128.985 183.16ZM129.337 181.801C129.795 181.801 130.182 181.681 130.498 181.439C130.817 181.194 131.059 180.855 131.222 180.422C131.389 179.989 131.473 179.484 131.473 178.909C131.473 178.341 131.391 177.844 131.228 177.418C131.064 176.991 130.825 176.659 130.509 176.422C130.192 176.184 129.802 176.065 129.337 176.065C128.857 176.065 128.458 176.189 128.138 176.438C127.819 176.686 127.577 177.025 127.414 177.455C127.254 177.885 127.174 178.369 127.174 178.909C127.174 179.456 127.256 179.948 127.419 180.385C127.582 180.821 127.824 181.168 128.143 181.423C128.467 181.675 128.864 181.801 129.337 181.801ZM136.319 186.068C136.081 186.068 135.864 186.049 135.669 186.01C135.473 185.974 135.328 185.935 135.232 185.892L135.616 184.587C135.907 184.665 136.166 184.699 136.393 184.689C136.62 184.678 136.821 184.593 136.995 184.433C137.173 184.273 137.329 184.012 137.464 183.65L137.661 183.107L134.667 174.818H136.372L138.444 181.168H138.529L140.601 174.818H142.311L138.939 184.092C138.783 184.518 138.584 184.879 138.343 185.173C138.101 185.472 137.814 185.695 137.48 185.844C137.146 185.994 136.759 186.068 136.319 186.068ZM150.159 183.181C149.64 183.181 149.172 183.085 148.752 182.893C148.333 182.698 148.001 182.416 147.756 182.047C147.515 181.677 147.394 181.224 147.394 180.688C147.394 180.227 147.483 179.847 147.661 179.548C147.838 179.25 148.078 179.014 148.38 178.84C148.681 178.666 149.019 178.534 149.392 178.446C149.765 178.357 150.145 178.289 150.532 178.243C151.022 178.186 151.419 178.14 151.725 178.105C152.03 178.066 152.252 178.004 152.391 177.918C152.529 177.833 152.598 177.695 152.598 177.503V177.466C152.598 177 152.467 176.64 152.204 176.384C151.945 176.129 151.558 176.001 151.043 176.001C150.507 176.001 150.084 176.12 149.775 176.358C149.47 176.592 149.259 176.853 149.141 177.141L147.645 176.8C147.822 176.303 148.081 175.901 148.422 175.596C148.767 175.287 149.163 175.063 149.61 174.925C150.058 174.783 150.528 174.712 151.022 174.712C151.348 174.712 151.695 174.751 152.06 174.829C152.43 174.903 152.774 175.042 153.094 175.244C153.417 175.447 153.681 175.736 153.887 176.113C154.093 176.485 154.196 176.97 154.196 177.567V183H152.641V181.881H152.577C152.474 182.087 152.32 182.29 152.114 182.489C151.908 182.687 151.643 182.853 151.32 182.984C150.997 183.115 150.61 183.181 150.159 183.181ZM150.505 181.903C150.945 181.903 151.322 181.816 151.634 181.642C151.95 181.468 152.19 181.24 152.353 180.96C152.52 180.676 152.604 180.372 152.604 180.049V178.994C152.547 179.051 152.437 179.104 152.273 179.154C152.114 179.2 151.931 179.241 151.725 179.277C151.519 179.309 151.318 179.339 151.123 179.367C150.928 179.392 150.764 179.413 150.633 179.431C150.324 179.47 150.042 179.536 149.786 179.628C149.534 179.721 149.331 179.854 149.179 180.028C149.029 180.198 148.955 180.425 148.955 180.71C148.955 181.104 149.1 181.402 149.392 181.604C149.683 181.803 150.054 181.903 150.505 181.903ZM159.764 183.165C158.972 183.165 158.29 182.986 157.719 182.627C157.15 182.265 156.714 181.766 156.408 181.13C156.103 180.495 155.95 179.767 155.95 178.946C155.95 178.115 156.106 177.382 156.419 176.746C156.731 176.107 157.172 175.608 157.74 175.25C158.308 174.891 158.978 174.712 159.748 174.712C160.37 174.712 160.924 174.827 161.41 175.058C161.897 175.285 162.289 175.605 162.587 176.017C162.889 176.429 163.068 176.91 163.125 177.46H161.575C161.49 177.077 161.295 176.746 160.989 176.469C160.687 176.192 160.283 176.054 159.775 176.054C159.331 176.054 158.942 176.171 158.608 176.406C158.278 176.636 158.021 176.967 157.836 177.396C157.651 177.822 157.559 178.327 157.559 178.909C157.559 179.506 157.649 180.021 157.831 180.454C158.012 180.887 158.267 181.223 158.598 181.461C158.931 181.699 159.324 181.817 159.775 181.817C160.077 181.817 160.35 181.762 160.595 181.652C160.844 181.539 161.051 181.377 161.218 181.168C161.389 180.958 161.508 180.706 161.575 180.411H163.125C163.068 180.94 162.896 181.413 162.609 181.828C162.321 182.244 161.936 182.57 161.453 182.808C160.973 183.046 160.41 183.165 159.764 183.165ZM168.275 183.165C167.483 183.165 166.801 182.986 166.229 182.627C165.661 182.265 165.224 181.766 164.919 181.13C164.614 180.495 164.461 179.767 164.461 178.946C164.461 178.115 164.617 177.382 164.93 176.746C165.242 176.107 165.683 175.608 166.251 175.25C166.819 174.891 167.488 174.712 168.259 174.712C168.88 174.712 169.434 174.827 169.921 175.058C170.407 175.285 170.8 175.605 171.098 176.017C171.4 176.429 171.579 176.91 171.636 177.46H170.086C170.001 177.077 169.805 176.746 169.5 176.469C169.198 176.192 168.793 176.054 168.286 176.054C167.842 176.054 167.453 176.171 167.119 176.406C166.789 176.636 166.531 176.967 166.347 177.396C166.162 177.822 166.07 178.327 166.07 178.909C166.07 179.506 166.16 180.021 166.341 180.454C166.522 180.887 166.778 181.223 167.108 181.461C167.442 181.699 167.835 181.817 168.286 181.817C168.587 181.817 168.861 181.762 169.106 181.652C169.354 181.539 169.562 181.377 169.729 181.168C169.9 180.958 170.018 180.706 170.086 180.411H171.636C171.579 180.94 171.407 181.413 171.119 181.828C170.832 182.244 170.446 182.57 169.963 182.808C169.484 183.046 168.921 183.165 168.275 183.165ZM176.786 183.165C176.019 183.165 175.349 182.989 174.777 182.638C174.206 182.286 173.762 181.794 173.446 181.162C173.13 180.53 172.972 179.792 172.972 178.946C172.972 178.098 173.13 177.355 173.446 176.72C173.762 176.084 174.206 175.591 174.777 175.239C175.349 174.887 176.019 174.712 176.786 174.712C177.553 174.712 178.222 174.887 178.794 175.239C179.366 175.591 179.809 176.084 180.125 176.72C180.441 177.355 180.6 178.098 180.6 178.946C180.6 179.792 180.441 180.53 180.125 181.162C179.809 181.794 179.366 182.286 178.794 182.638C178.222 182.989 177.553 183.165 176.786 183.165ZM176.791 181.828C177.288 181.828 177.7 181.697 178.027 181.434C178.353 181.171 178.595 180.821 178.751 180.385C178.911 179.948 178.991 179.467 178.991 178.941C178.991 178.419 178.911 177.94 178.751 177.503C178.595 177.062 178.353 176.709 178.027 176.443C177.7 176.176 177.288 176.043 176.791 176.043C176.29 176.043 175.875 176.176 175.544 176.443C175.218 176.709 174.975 177.062 174.815 177.503C174.658 177.94 174.58 178.419 174.58 178.941C174.58 179.467 174.658 179.948 174.815 180.385C174.975 180.821 175.218 181.171 175.544 181.434C175.875 181.697 176.29 181.828 176.791 181.828ZM187.56 179.607V174.818H189.158V183H187.592V181.583H187.507C187.319 182.02 187.017 182.384 186.601 182.675C186.189 182.963 185.676 183.107 185.062 183.107C184.536 183.107 184.071 182.991 183.666 182.76C183.265 182.526 182.949 182.18 182.718 181.722C182.491 181.263 182.377 180.697 182.377 180.022V174.818H183.97V179.831C183.97 180.388 184.124 180.832 184.433 181.162C184.742 181.493 185.144 181.658 185.637 181.658C185.936 181.658 186.232 181.583 186.527 181.434C186.825 181.285 187.072 181.059 187.267 180.757C187.466 180.456 187.564 180.072 187.56 179.607ZM192.891 178.142V183H191.298V174.818H192.827V176.15H192.928C193.116 175.717 193.411 175.369 193.812 175.106C194.217 174.843 194.727 174.712 195.341 174.712C195.899 174.712 196.387 174.829 196.806 175.063C197.225 175.294 197.55 175.638 197.781 176.097C198.012 176.555 198.127 177.121 198.127 177.796V183H196.534V177.988C196.534 177.395 196.38 176.931 196.071 176.597C195.762 176.26 195.338 176.091 194.798 176.091C194.429 176.091 194.1 176.171 193.812 176.331C193.528 176.491 193.303 176.725 193.136 177.034C192.973 177.339 192.891 177.709 192.891 178.142ZM204.082 174.818V176.097H199.613V174.818H204.082ZM200.812 172.858H202.404V180.598C202.404 180.907 202.451 181.139 202.543 181.295C202.635 181.448 202.754 181.553 202.9 181.61C203.049 181.663 203.21 181.69 203.384 181.69C203.512 181.69 203.624 181.681 203.72 181.663C203.816 181.645 203.891 181.631 203.944 181.62L204.231 182.936C204.139 182.972 204.008 183.007 203.837 183.043C203.667 183.082 203.454 183.103 203.198 183.107C202.779 183.114 202.388 183.039 202.026 182.883C201.664 182.727 201.371 182.485 201.147 182.158C200.924 181.832 200.812 181.422 200.812 180.928V172.858ZM213.708 174.818V176.097H209.084V174.818H213.708ZM210.352 183V173.87C210.352 173.359 210.464 172.934 210.687 172.597C210.911 172.256 211.208 172.002 211.577 171.835C211.946 171.665 212.348 171.58 212.781 171.58C213.1 171.58 213.374 171.606 213.601 171.659C213.828 171.709 213.997 171.755 214.107 171.798L213.734 173.087C213.66 173.066 213.564 173.041 213.447 173.012C213.329 172.98 213.187 172.964 213.021 172.964C212.633 172.964 212.356 173.06 212.19 173.252C212.026 173.444 211.945 173.721 211.945 174.083V183H210.352ZM218.475 183.165C217.708 183.165 217.039 182.989 216.467 182.638C215.895 182.286 215.451 181.794 215.135 181.162C214.819 180.53 214.661 179.792 214.661 178.946C214.661 178.098 214.819 177.355 215.135 176.72C215.451 176.084 215.895 175.591 216.467 175.239C217.039 174.887 217.708 174.712 218.475 174.712C219.242 174.712 219.911 174.887 220.483 175.239C221.055 175.591 221.499 176.084 221.815 176.72C222.131 177.355 222.289 178.098 222.289 178.946C222.289 179.792 222.131 180.53 221.815 181.162C221.499 181.794 221.055 182.286 220.483 182.638C219.911 182.989 219.242 183.165 218.475 183.165ZM218.48 181.828C218.978 181.828 219.389 181.697 219.716 181.434C220.043 181.171 220.284 180.821 220.441 180.385C220.6 179.948 220.68 179.467 220.68 178.941C220.68 178.419 220.6 177.94 220.441 177.503C220.284 177.062 220.043 176.709 219.716 176.443C219.389 176.176 218.978 176.043 218.48 176.043C217.98 176.043 217.564 176.176 217.234 176.443C216.907 176.709 216.664 177.062 216.504 177.503C216.348 177.94 216.27 178.419 216.27 178.941C216.27 179.467 216.348 179.948 216.504 180.385C216.664 180.821 216.907 181.171 217.234 181.434C217.564 181.697 217.98 181.828 218.48 181.828ZM224.067 183V174.818H225.606V176.118H225.691C225.841 175.678 226.103 175.331 226.48 175.079C226.86 174.824 227.289 174.696 227.769 174.696C227.868 174.696 227.985 174.699 228.12 174.706C228.259 174.713 228.367 174.722 228.445 174.733V176.256C228.381 176.239 228.268 176.219 228.104 176.198C227.941 176.173 227.778 176.161 227.614 176.161C227.238 176.161 226.902 176.24 226.608 176.4C226.316 176.556 226.086 176.775 225.915 177.055C225.745 177.332 225.659 177.648 225.659 178.004V183H224.067ZM236.174 183.181C235.656 183.181 235.187 183.085 234.768 182.893C234.349 182.698 234.017 182.416 233.772 182.047C233.531 181.677 233.41 181.224 233.41 180.688C233.41 180.227 233.499 179.847 233.676 179.548C233.854 179.25 234.093 179.014 234.395 178.84C234.697 178.666 235.034 178.534 235.407 178.446C235.78 178.357 236.16 178.289 236.547 178.243C237.037 178.186 237.435 178.14 237.74 178.105C238.046 178.066 238.268 178.004 238.406 177.918C238.545 177.833 238.614 177.695 238.614 177.503V177.466C238.614 177 238.483 176.64 238.22 176.384C237.961 176.129 237.574 176.001 237.059 176.001C236.522 176.001 236.1 176.12 235.791 176.358C235.485 176.592 235.274 176.853 235.157 177.141L233.66 176.8C233.838 176.303 234.097 175.901 234.438 175.596C234.782 175.287 235.178 175.063 235.626 174.925C236.073 174.783 236.544 174.712 237.037 174.712C237.364 174.712 237.71 174.751 238.076 174.829C238.445 174.903 238.79 175.042 239.109 175.244C239.433 175.447 239.697 175.736 239.903 176.113C240.109 176.485 240.212 176.97 240.212 177.567V183H238.657V181.881H238.593C238.49 182.087 238.335 182.29 238.129 182.489C237.923 182.687 237.659 182.853 237.336 182.984C237.012 183.115 236.625 183.181 236.174 183.181ZM236.521 181.903C236.961 181.903 237.337 181.816 237.65 181.642C237.966 181.468 238.206 181.24 238.369 180.96C238.536 180.676 238.619 180.372 238.619 180.049V178.994C238.563 179.051 238.452 179.104 238.289 179.154C238.129 179.2 237.946 179.241 237.74 179.277C237.534 179.309 237.334 179.339 237.138 179.367C236.943 179.392 236.78 179.413 236.648 179.431C236.339 179.47 236.057 179.536 235.801 179.628C235.549 179.721 235.347 179.854 235.194 180.028C235.045 180.198 234.971 180.425 234.971 180.71C234.971 181.104 235.116 181.402 235.407 181.604C235.699 181.803 236.07 181.903 236.521 181.903ZM245.764 186.239C245.114 186.239 244.555 186.153 244.086 185.983C243.621 185.813 243.241 185.587 242.946 185.306C242.651 185.026 242.431 184.719 242.285 184.385L243.654 183.82C243.75 183.977 243.878 184.142 244.038 184.316C244.201 184.493 244.421 184.644 244.698 184.768C244.979 184.893 245.339 184.955 245.78 184.955C246.383 184.955 246.882 184.808 247.277 184.513C247.671 184.222 247.868 183.756 247.868 183.117V181.509H247.767C247.671 181.683 247.532 181.876 247.351 182.089C247.174 182.302 246.929 182.487 246.616 182.643C246.304 182.799 245.897 182.877 245.396 182.877C244.75 182.877 244.168 182.727 243.649 182.425C243.134 182.119 242.726 181.67 242.424 181.077C242.126 180.48 241.976 179.747 241.976 178.877C241.976 178.007 242.124 177.261 242.419 176.64C242.717 176.018 243.125 175.543 243.644 175.212C244.162 174.879 244.75 174.712 245.407 174.712C245.915 174.712 246.325 174.797 246.637 174.967C246.95 175.134 247.193 175.33 247.367 175.553C247.545 175.777 247.681 175.974 247.777 176.145H247.894V174.818H249.455V183.181C249.455 183.884 249.292 184.461 248.965 184.912C248.638 185.363 248.196 185.697 247.639 185.914C247.085 186.13 246.46 186.239 245.764 186.239ZM245.748 181.556C246.206 181.556 246.593 181.45 246.909 181.237C247.229 181.02 247.47 180.711 247.633 180.31C247.8 179.905 247.884 179.42 247.884 178.856C247.884 178.305 247.802 177.821 247.639 177.402C247.475 176.983 247.236 176.656 246.92 176.422C246.604 176.184 246.213 176.065 245.748 176.065C245.268 176.065 244.869 176.189 244.549 176.438C244.23 176.683 243.988 177.016 243.825 177.439C243.665 177.862 243.585 178.334 243.585 178.856C243.585 179.392 243.667 179.863 243.83 180.267C243.994 180.672 244.235 180.988 244.555 181.216C244.878 181.443 245.275 181.556 245.748 181.556ZM255.117 183.165C254.311 183.165 253.617 182.993 253.035 182.648C252.456 182.3 252.008 181.812 251.692 181.184C251.38 180.551 251.224 179.811 251.224 178.962C251.224 178.124 251.38 177.386 251.692 176.746C252.008 176.107 252.449 175.608 253.013 175.25C253.582 174.891 254.246 174.712 255.006 174.712C255.467 174.712 255.915 174.788 256.348 174.941C256.781 175.093 257.17 175.333 257.514 175.66C257.859 175.987 258.131 176.411 258.329 176.933C258.528 177.451 258.628 178.082 258.628 178.824V179.388H252.124V178.195H257.067C257.067 177.776 256.982 177.405 256.811 177.082C256.641 176.755 256.401 176.498 256.092 176.31C255.787 176.121 255.428 176.027 255.016 176.027C254.569 176.027 254.178 176.137 253.844 176.358C253.514 176.574 253.258 176.858 253.077 177.21C252.9 177.558 252.811 177.936 252.811 178.344V179.277C252.811 179.824 252.907 180.289 253.099 180.672C253.294 181.056 253.566 181.349 253.914 181.551C254.262 181.75 254.668 181.849 255.133 181.849C255.435 181.849 255.71 181.807 255.959 181.722C256.208 181.633 256.422 181.501 256.604 181.327C256.785 181.153 256.923 180.939 257.019 180.683L258.527 180.955C258.406 181.398 258.189 181.787 257.877 182.121C257.568 182.451 257.179 182.709 256.71 182.893C256.245 183.075 255.714 183.165 255.117 183.165ZM267.891 183.165C267.085 183.165 266.391 182.993 265.808 182.648C265.229 182.3 264.782 181.812 264.466 181.184C264.153 180.551 263.997 179.811 263.997 178.962C263.997 178.124 264.153 177.386 264.466 176.746C264.782 176.107 265.222 175.608 265.787 175.25C266.355 174.891 267.019 174.712 267.779 174.712C268.241 174.712 268.688 174.788 269.121 174.941C269.555 175.093 269.943 175.333 270.288 175.66C270.632 175.987 270.904 176.411 271.103 176.933C271.302 177.451 271.401 178.082 271.401 178.824V179.388H264.897V178.195H269.84C269.84 177.776 269.755 177.405 269.585 177.082C269.414 176.755 269.175 176.498 268.866 176.31C268.56 176.121 268.202 176.027 267.79 176.027C267.342 176.027 266.952 176.137 266.618 176.358C266.288 176.574 266.032 176.858 265.851 177.21C265.673 177.558 265.584 177.936 265.584 178.344V179.277C265.584 179.824 265.68 180.289 265.872 180.672C266.067 181.056 266.339 181.349 266.687 181.551C267.035 181.75 267.442 181.849 267.907 181.849C268.209 181.849 268.484 181.807 268.733 181.722C268.981 181.633 269.196 181.501 269.377 181.327C269.558 181.153 269.697 180.939 269.793 180.683L271.3 180.955C271.179 181.398 270.963 181.787 270.65 182.121C270.341 182.451 269.952 182.709 269.484 182.893C269.018 183.075 268.487 183.165 267.891 183.165ZM277.062 174.818V176.097H272.439V174.818H277.062ZM273.706 183V173.87C273.706 173.359 273.818 172.934 274.042 172.597C274.266 172.256 274.562 172.002 274.931 171.835C275.301 171.665 275.702 171.58 276.135 171.58C276.455 171.58 276.728 171.606 276.956 171.659C277.183 171.709 277.352 171.755 277.462 171.798L277.089 173.087C277.014 173.066 276.918 173.041 276.801 173.012C276.684 172.98 276.542 172.964 276.375 172.964C275.988 172.964 275.711 173.06 275.544 173.252C275.381 173.444 275.299 173.721 275.299 174.083V183H273.706ZM282.599 174.818V176.097H277.976V174.818H282.599ZM279.243 183V173.87C279.243 173.359 279.355 172.934 279.579 172.597C279.803 172.256 280.099 172.002 280.469 171.835C280.838 171.665 281.239 171.58 281.672 171.58C281.992 171.58 282.265 171.606 282.493 171.659C282.72 171.709 282.889 171.755 282.999 171.798L282.626 173.087C282.551 173.066 282.455 173.041 282.338 173.012C282.221 172.98 282.079 172.964 281.912 172.964C281.525 172.964 281.248 173.06 281.081 173.252C280.918 173.444 280.836 173.721 280.836 174.083V183H279.243ZM287.447 183.165C286.64 183.165 285.946 182.993 285.364 182.648C284.785 182.3 284.338 181.812 284.021 181.184C283.709 180.551 283.553 179.811 283.553 178.962C283.553 178.124 283.709 177.386 284.021 176.746C284.338 176.107 284.778 175.608 285.343 175.25C285.911 174.891 286.575 174.712 287.335 174.712C287.796 174.712 288.244 174.788 288.677 174.941C289.11 175.093 289.499 175.333 289.844 175.66C290.188 175.987 290.46 176.411 290.659 176.933C290.857 177.451 290.957 178.082 290.957 178.824V179.388H284.453V178.195H289.396C289.396 177.776 289.311 177.405 289.14 177.082C288.97 176.755 288.73 176.498 288.421 176.31C288.116 176.121 287.757 176.027 287.345 176.027C286.898 176.027 286.507 176.137 286.173 176.358C285.843 176.574 285.588 176.858 285.406 177.21C285.229 177.558 285.14 177.936 285.14 178.344V179.277C285.14 179.824 285.236 180.289 285.428 180.672C285.623 181.056 285.895 181.349 286.243 181.551C286.591 181.75 286.997 181.849 287.463 181.849C287.764 181.849 288.04 181.807 288.288 181.722C288.537 181.633 288.752 181.501 288.933 181.327C289.114 181.153 289.252 180.939 289.348 180.683L290.856 180.955C290.735 181.398 290.518 181.787 290.206 182.121C289.897 182.451 289.508 182.709 289.039 182.893C288.574 183.075 288.043 183.165 287.447 183.165ZM296.17 183.165C295.378 183.165 294.697 182.986 294.125 182.627C293.557 182.265 293.12 181.766 292.815 181.13C292.509 180.495 292.356 179.767 292.356 178.946C292.356 178.115 292.513 177.382 292.825 176.746C293.138 176.107 293.578 175.608 294.146 175.25C294.714 174.891 295.384 174.712 296.154 174.712C296.776 174.712 297.33 174.827 297.816 175.058C298.303 175.285 298.695 175.605 298.994 176.017C299.295 176.429 299.475 176.91 299.532 177.46H297.981C297.896 177.077 297.701 176.746 297.396 176.469C297.094 176.192 296.689 176.054 296.181 176.054C295.737 176.054 295.348 176.171 295.014 176.406C294.684 176.636 294.427 176.967 294.242 177.396C294.057 177.822 293.965 178.327 293.965 178.909C293.965 179.506 294.056 180.021 294.237 180.454C294.418 180.887 294.674 181.223 295.004 181.461C295.338 181.699 295.73 181.817 296.181 181.817C296.483 181.817 296.756 181.762 297.001 181.652C297.25 181.539 297.458 181.377 297.625 181.168C297.795 180.958 297.914 180.706 297.981 180.411H299.532C299.475 180.94 299.302 181.413 299.015 181.828C298.727 182.244 298.342 182.57 297.859 182.808C297.38 183.046 296.817 183.165 296.17 183.165ZM305.054 174.818V176.097H300.585V174.818H305.054ZM301.783 172.858H303.376V180.598C303.376 180.907 303.422 181.139 303.515 181.295C303.607 181.448 303.726 181.553 303.871 181.61C304.021 181.663 304.182 181.69 304.356 181.69C304.484 181.69 304.596 181.681 304.692 181.663C304.788 181.645 304.862 181.631 304.915 181.62L305.203 182.936C305.111 182.972 304.979 183.007 304.809 183.043C304.638 183.082 304.425 183.103 304.17 183.107C303.751 183.114 303.36 183.039 302.998 182.883C302.636 182.727 302.343 182.485 302.119 182.158C301.895 181.832 301.783 181.422 301.783 180.928V172.858ZM312.815 176.816L311.371 177.071C311.311 176.887 311.215 176.711 311.084 176.544C310.956 176.377 310.782 176.24 310.562 176.134C310.342 176.027 310.066 175.974 309.736 175.974C309.285 175.974 308.909 176.075 308.607 176.278C308.305 176.477 308.154 176.734 308.154 177.05C308.154 177.324 308.255 177.544 308.458 177.711C308.66 177.877 308.987 178.014 309.438 178.121L310.738 178.419C311.49 178.593 312.051 178.861 312.421 179.223C312.79 179.586 312.975 180.056 312.975 180.635C312.975 181.125 312.833 181.562 312.549 181.945C312.268 182.325 311.876 182.624 311.371 182.84C310.871 183.057 310.29 183.165 309.63 183.165C308.713 183.165 307.966 182.97 307.387 182.579C306.808 182.185 306.453 181.626 306.322 180.901L307.861 180.667C307.957 181.068 308.154 181.372 308.452 181.578C308.751 181.78 309.14 181.881 309.619 181.881C310.141 181.881 310.558 181.773 310.871 181.556C311.183 181.336 311.339 181.068 311.339 180.752C311.339 180.496 311.244 180.282 311.052 180.108C310.864 179.934 310.574 179.802 310.184 179.713L308.799 179.41C308.035 179.236 307.471 178.959 307.105 178.579C306.743 178.199 306.561 177.718 306.561 177.135C306.561 176.652 306.696 176.23 306.966 175.868C307.236 175.505 307.609 175.223 308.085 175.021C308.561 174.815 309.106 174.712 309.72 174.712C310.604 174.712 311.3 174.903 311.808 175.287C312.316 175.667 312.652 176.176 312.815 176.816ZM322.142 183.165C321.375 183.165 320.706 182.989 320.134 182.638C319.562 182.286 319.118 181.794 318.802 181.162C318.486 180.53 318.328 179.792 318.328 178.946C318.328 178.098 318.486 177.355 318.802 176.72C319.118 176.084 319.562 175.591 320.134 175.239C320.706 174.887 321.375 174.712 322.142 174.712C322.909 174.712 323.578 174.887 324.15 175.239C324.722 175.591 325.166 176.084 325.482 176.72C325.798 177.355 325.956 178.098 325.956 178.946C325.956 179.792 325.798 180.53 325.482 181.162C325.166 181.794 324.722 182.286 324.15 182.638C323.578 182.989 322.909 183.165 322.142 183.165ZM322.147 181.828C322.645 181.828 323.056 181.697 323.383 181.434C323.71 181.171 323.951 180.821 324.108 180.385C324.267 179.948 324.347 179.467 324.347 178.941C324.347 178.419 324.267 177.94 324.108 177.503C323.951 177.062 323.71 176.709 323.383 176.443C323.056 176.176 322.645 176.043 322.147 176.043C321.647 176.043 321.231 176.176 320.901 176.443C320.574 176.709 320.331 177.062 320.171 177.503C320.015 177.94 319.937 178.419 319.937 178.941C319.937 179.467 320.015 179.948 320.171 180.385C320.331 180.821 320.574 181.171 320.901 181.434C321.231 181.697 321.647 181.828 322.147 181.828ZM329.326 178.142V183H327.734V174.818H329.263V176.15H329.364C329.552 175.717 329.847 175.369 330.248 175.106C330.653 174.843 331.162 174.712 331.777 174.712C332.334 174.712 332.823 174.829 333.242 175.063C333.661 175.294 333.986 175.638 334.216 176.097C334.447 176.555 334.563 177.121 334.563 177.796V183H332.97V177.988C332.97 177.395 332.815 176.931 332.506 176.597C332.198 176.26 331.773 176.091 331.233 176.091C330.864 176.091 330.536 176.171 330.248 176.331C329.964 176.491 329.738 176.725 329.571 177.034C329.408 177.339 329.326 177.709 329.326 178.142ZM16.517 202.165C15.7251 202.165 15.0433 201.986 14.4716 201.627C13.9034 201.265 13.4666 200.766 13.1612 200.13C12.8558 199.495 12.7031 198.767 12.7031 197.946C12.7031 197.115 12.8594 196.382 13.1719 195.746C13.4844 195.107 13.9247 194.608 14.4929 194.25C15.0611 193.891 15.7305 193.712 16.5011 193.712C17.1225 193.712 17.6765 193.827 18.163 194.058C18.6495 194.285 19.0419 194.605 19.3402 195.017C19.642 195.429 19.8214 195.91 19.8782 196.46H18.3281C18.2429 196.077 18.0476 195.746 17.7422 195.469C17.4403 195.192 17.0355 195.054 16.5277 195.054C16.0838 195.054 15.695 195.171 15.3612 195.406C15.0309 195.636 14.7734 195.967 14.5888 196.396C14.4041 196.822 14.3118 197.327 14.3118 197.909C14.3118 198.506 14.4023 199.021 14.5835 199.454C14.7646 199.887 15.0202 200.223 15.3505 200.461C15.6843 200.699 16.0767 200.817 16.5277 200.817C16.8295 200.817 17.103 200.762 17.348 200.652C17.5966 200.539 17.8043 200.377 17.9712 200.168C18.1417 199.958 18.2607 199.706 18.3281 199.411H19.8782C19.8214 199.94 19.6491 200.413 19.3615 200.828C19.0739 201.244 18.6886 201.57 18.2056 201.808C17.7262 202.046 17.1634 202.165 16.517 202.165ZM25.0278 202.165C24.2607 202.165 23.5914 201.989 23.0196 201.638C22.4479 201.286 22.004 200.794 21.6879 200.162C21.3719 199.53 21.2139 198.792 21.2139 197.946C21.2139 197.098 21.3719 196.355 21.6879 195.72C22.004 195.084 22.4479 194.591 23.0196 194.239C23.5914 193.887 24.2607 193.712 25.0278 193.712C25.7948 193.712 26.4642 193.887 27.036 194.239C27.6077 194.591 28.0516 195.084 28.3676 195.72C28.6837 196.355 28.8417 197.098 28.8417 197.946C28.8417 198.792 28.6837 199.53 28.3676 200.162C28.0516 200.794 27.6077 201.286 27.036 201.638C26.4642 201.989 25.7948 202.165 25.0278 202.165ZM25.0331 200.828C25.5303 200.828 25.9422 200.697 26.2689 200.434C26.5956 200.171 26.8371 199.821 26.9933 199.385C27.1531 198.948 27.233 198.467 27.233 197.941C27.233 197.419 27.1531 196.94 26.9933 196.503C26.8371 196.062 26.5956 195.709 26.2689 195.443C25.9422 195.176 25.5303 195.043 25.0331 195.043C24.5324 195.043 24.1169 195.176 23.7867 195.443C23.46 195.709 23.2167 196.062 23.0569 196.503C22.9007 196.94 22.8225 197.419 22.8225 197.941C22.8225 198.467 22.9007 198.948 23.0569 199.385C23.2167 199.821 23.46 200.171 23.7867 200.434C24.1169 200.697 24.5324 200.828 25.0331 200.828ZM34.0499 205.239C33.4 205.239 32.8407 205.153 32.372 204.983C31.9068 204.813 31.5268 204.587 31.2321 204.306C30.9373 204.026 30.7172 203.719 30.5716 203.385L31.9405 202.82C32.0364 202.977 32.1642 203.142 32.324 203.316C32.4874 203.493 32.7076 203.644 32.9846 203.768C33.2651 203.893 33.6255 203.955 34.0659 203.955C34.6696 203.955 35.1685 203.808 35.5627 203.513C35.9569 203.222 36.1539 202.756 36.1539 202.117V200.509H36.0527C35.9569 200.683 35.8184 200.876 35.6373 201.089C35.4597 201.302 35.2147 201.487 34.9022 201.643C34.5897 201.799 34.1831 201.877 33.6824 201.877C33.036 201.877 32.4537 201.727 31.9352 201.425C31.4203 201.119 31.0119 200.67 30.71 200.077C30.4118 199.48 30.2626 198.747 30.2626 197.877C30.2626 197.007 30.41 196.261 30.7047 195.64C31.003 195.018 31.4114 194.543 31.9299 194.212C32.4483 193.879 33.036 193.712 33.693 193.712C34.2008 193.712 34.611 193.797 34.9235 193.967C35.236 194.134 35.4792 194.33 35.6532 194.553C35.8308 194.777 35.9675 194.974 36.0634 195.145H36.1806V193.818H37.7413V202.181C37.7413 202.884 37.5779 203.461 37.2512 203.912C36.9245 204.363 36.4824 204.697 35.9249 204.914C35.3709 205.13 34.7459 205.239 34.0499 205.239ZM34.0339 200.556C34.492 200.556 34.8791 200.45 35.1951 200.237C35.5147 200.02 35.7562 199.711 35.9196 199.31C36.0865 198.905 36.1699 198.42 36.1699 197.856C36.1699 197.305 36.0882 196.821 35.9249 196.402C35.7615 195.983 35.5218 195.656 35.2058 195.422C34.8897 195.184 34.4991 195.065 34.0339 195.065C33.5545 195.065 33.155 195.189 32.8354 195.438C32.5158 195.683 32.2743 196.016 32.111 196.439C31.9512 196.862 31.8713 197.334 31.8713 197.856C31.8713 198.392 31.9529 198.863 32.1163 199.267C32.2797 199.672 32.5211 199.988 32.8407 200.216C33.1639 200.443 33.5616 200.556 34.0339 200.556ZM41.47 197.142V202H39.8773V193.818H41.4061V195.15H41.5073C41.6955 194.717 41.9902 194.369 42.3915 194.106C42.7963 193.843 43.3059 193.712 43.9203 193.712C44.4778 193.712 44.9661 193.829 45.3851 194.063C45.8042 194.294 46.1291 194.638 46.3599 195.097C46.5907 195.555 46.7061 196.121 46.7061 196.796V202H45.1135V196.988C45.1135 196.395 44.959 195.931 44.65 195.597C44.3411 195.26 43.9167 195.091 43.377 195.091C43.0076 195.091 42.6792 195.171 42.3915 195.331C42.1074 195.491 41.8819 195.725 41.715 196.034C41.5517 196.339 41.47 196.709 41.47 197.142ZM48.8422 202V193.818H50.4348V202H48.8422ZM49.6465 192.556C49.3695 192.556 49.1316 192.463 48.9327 192.279C48.7374 192.091 48.6397 191.867 48.6397 191.608C48.6397 191.345 48.7374 191.121 48.9327 190.936C49.1316 190.748 49.3695 190.654 49.6465 190.654C49.9235 190.654 50.1596 190.748 50.3549 190.936C50.5538 191.121 50.6532 191.345 50.6532 191.608C50.6532 191.867 50.5538 192.091 50.3549 192.279C50.1596 192.463 49.9235 192.556 49.6465 192.556ZM56.3968 193.818V195.097H51.9276V193.818H56.3968ZM53.1262 191.858H54.7188V199.598C54.7188 199.907 54.765 200.139 54.8573 200.295C54.9497 200.448 55.0686 200.553 55.2142 200.61C55.3634 200.663 55.5249 200.69 55.699 200.69C55.8268 200.69 55.9387 200.681 56.0345 200.663C56.1304 200.645 56.205 200.631 56.2583 200.62L56.5459 201.936C56.4536 201.972 56.3222 202.007 56.1517 202.043C55.9813 202.082 55.7682 202.103 55.5125 202.107C55.0935 202.114 54.7029 202.039 54.3406 201.883C53.9784 201.727 53.6855 201.485 53.4617 201.158C53.238 200.832 53.1262 200.422 53.1262 199.928V191.858ZM58.1586 202V193.818H59.7512V202H58.1586ZM58.9629 192.556C58.6859 192.556 58.448 192.463 58.2491 192.279C58.0538 192.091 57.9561 191.867 57.9561 191.608C57.9561 191.345 58.0538 191.121 58.2491 190.936C58.448 190.748 58.6859 190.654 58.9629 190.654C59.2399 190.654 59.476 190.748 59.6713 190.936C59.8702 191.121 59.9696 191.345 59.9696 191.608C59.9696 191.867 59.8702 192.091 59.6713 192.279C59.476 192.463 59.2399 192.556 58.9629 192.556ZM68.8932 193.818L65.9262 202H64.2217L61.2494 193.818H62.9593L65.0313 200.114H65.1166L67.1833 193.818H68.8932ZM73.638 202.165C72.8319 202.165 72.1376 201.993 71.5552 201.648C70.9764 201.3 70.5289 200.812 70.2129 200.184C69.9004 199.551 69.7441 198.811 69.7441 197.962C69.7441 197.124 69.9004 196.386 70.2129 195.746C70.5289 195.107 70.9693 194.608 71.5339 194.25C72.1021 193.891 72.7662 193.712 73.5261 193.712C73.9877 193.712 74.4352 193.788 74.8684 193.941C75.3017 194.093 75.6905 194.333 76.035 194.66C76.3794 194.987 76.6511 195.411 76.85 195.933C77.0488 196.451 77.1483 197.082 77.1483 197.824V198.388H70.6444V197.195H75.5875C75.5875 196.776 75.5023 196.405 75.3319 196.082C75.1614 195.755 74.9217 195.498 74.6127 195.31C74.3074 195.121 73.9487 195.027 73.5368 195.027C73.0893 195.027 72.6987 195.137 72.3649 195.358C72.0346 195.574 71.7789 195.858 71.5978 196.21C71.4203 196.558 71.3315 196.936 71.3315 197.344V198.277C71.3315 198.824 71.4274 199.289 71.6191 199.672C71.8145 200.056 72.0861 200.349 72.4341 200.551C72.7821 200.75 73.1887 200.849 73.6539 200.849C73.9558 200.849 74.231 200.807 74.4796 200.722C74.7282 200.633 74.943 200.501 75.1241 200.327C75.3052 200.153 75.4437 199.939 75.5396 199.683L77.0471 199.955C76.9263 200.398 76.7097 200.787 76.3972 201.121C76.0882 201.451 75.6994 201.709 75.2306 201.893C74.7654 202.075 74.2346 202.165 73.638 202.165ZM82.8851 205.068V193.818H84.4405V195.145H84.5737C84.666 194.974 84.7992 194.777 84.9732 194.553C85.1472 194.33 85.3887 194.134 85.6976 193.967C86.0066 193.797 86.415 193.712 86.9228 193.712C87.5833 193.712 88.1728 193.879 88.6912 194.212C89.2097 194.546 89.6163 195.027 89.911 195.656C90.2093 196.284 90.3585 197.041 90.3585 197.925C90.3585 198.809 90.2111 199.567 89.9164 200.2C89.6216 200.828 89.2168 201.313 88.7019 201.654C88.187 201.991 87.5993 202.16 86.9387 202.16C86.4416 202.16 86.035 202.076 85.7189 201.909C85.4064 201.743 85.1614 201.547 84.9838 201.324C84.8063 201.1 84.6696 200.901 84.5737 200.727H84.4778V205.068H82.8851ZM84.4458 197.909C84.4458 198.484 84.5293 198.989 84.6962 199.422C84.8631 199.855 85.1046 200.194 85.4206 200.439C85.7367 200.681 86.1238 200.801 86.5819 200.801C87.0577 200.801 87.4554 200.675 87.775 200.423C88.0946 200.168 88.3361 199.821 88.4995 199.385C88.6664 198.948 88.7498 198.456 88.7498 197.909C88.7498 197.369 88.6681 196.885 88.5048 196.455C88.345 196.025 88.1035 195.686 87.7804 195.438C87.4608 195.189 87.0613 195.065 86.5819 195.065C86.1202 195.065 85.7296 195.184 85.41 195.422C85.0939 195.659 84.8542 195.991 84.6909 196.418C84.5275 196.844 84.4458 197.341 84.4458 197.909ZM95.6692 202.165C94.8631 202.165 94.1689 201.993 93.5865 201.648C93.0076 201.3 92.5602 200.812 92.2441 200.184C91.9316 199.551 91.7754 198.811 91.7754 197.962C91.7754 197.124 91.9316 196.386 92.2441 195.746C92.5602 195.107 93.0005 194.608 93.5652 194.25C94.1333 193.891 94.7974 193.712 95.5574 193.712C96.019 193.712 96.4664 193.788 96.8997 193.941C97.3329 194.093 97.7218 194.333 98.0662 194.66C98.4107 194.987 98.6824 195.411 98.8812 195.933C99.0801 196.451 99.1795 197.082 99.1795 197.824V198.388H92.6756V197.195H97.6188C97.6188 196.776 97.5336 196.405 97.3631 196.082C97.1926 195.755 96.9529 195.498 96.644 195.31C96.3386 195.121 95.9799 195.027 95.568 195.027C95.1206 195.027 94.7299 195.137 94.3961 195.358C94.0659 195.574 93.8102 195.858 93.6291 196.21C93.4515 196.558 93.3627 196.936 93.3627 197.344V198.277C93.3627 198.824 93.4586 199.289 93.6504 199.672C93.8457 200.056 94.1174 200.349 94.4654 200.551C94.8134 200.75 95.22 200.849 95.6852 200.849C95.987 200.849 96.2623 200.807 96.5108 200.722C96.7594 200.633 96.9743 200.501 97.1554 200.327C97.3365 200.153 97.475 199.939 97.5708 199.683L99.0783 199.955C98.9576 200.398 98.7409 200.787 98.4284 201.121C98.1195 201.451 97.7306 201.709 97.2619 201.893C96.7967 202.075 96.2658 202.165 95.6692 202.165ZM100.947 202V193.818H102.486V195.118H102.571C102.72 194.678 102.983 194.331 103.36 194.079C103.74 193.824 104.169 193.696 104.649 193.696C104.748 193.696 104.865 193.699 105 193.706C105.139 193.713 105.247 193.722 105.325 193.733V195.256C105.261 195.239 105.148 195.219 104.984 195.198C104.821 195.173 104.658 195.161 104.494 195.161C104.118 195.161 103.782 195.24 103.487 195.4C103.196 195.556 102.965 195.775 102.795 196.055C102.625 196.332 102.539 196.648 102.539 197.004V202H100.947ZM111.081 193.818V195.097H106.457V193.818H111.081ZM107.725 202V192.87C107.725 192.359 107.837 191.934 108.06 191.597C108.284 191.256 108.581 191.002 108.95 190.835C109.319 190.665 109.721 190.58 110.154 190.58C110.473 190.58 110.747 190.606 110.974 190.659C111.201 190.709 111.37 190.755 111.48 190.798L111.107 192.087C111.033 192.066 110.937 192.041 110.82 192.012C110.703 191.98 110.56 191.964 110.394 191.964C110.006 191.964 109.729 192.06 109.563 192.252C109.399 192.444 109.318 192.721 109.318 193.083V202H107.725ZM115.848 202.165C115.081 202.165 114.412 201.989 113.84 201.638C113.268 201.286 112.824 200.794 112.508 200.162C112.192 199.53 112.034 198.792 112.034 197.946C112.034 197.098 112.192 196.355 112.508 195.72C112.824 195.084 113.268 194.591 113.84 194.239C114.412 193.887 115.081 193.712 115.848 193.712C116.615 193.712 117.285 193.887 117.856 194.239C118.428 194.591 118.872 195.084 119.188 195.72C119.504 196.355 119.662 197.098 119.662 197.946C119.662 198.792 119.504 199.53 119.188 200.162C118.872 200.794 118.428 201.286 117.856 201.638C117.285 201.989 116.615 202.165 115.848 202.165ZM115.853 200.828C116.351 200.828 116.763 200.697 117.089 200.434C117.416 200.171 117.657 199.821 117.814 199.385C117.973 198.948 118.053 198.467 118.053 197.941C118.053 197.419 117.973 196.94 117.814 196.503C117.657 196.062 117.416 195.709 117.089 195.443C116.763 195.176 116.351 195.043 115.853 195.043C115.353 195.043 114.937 195.176 114.607 195.443C114.28 195.709 114.037 196.062 113.877 196.503C113.721 196.94 113.643 197.419 113.643 197.941C113.643 198.467 113.721 198.948 113.877 199.385C114.037 199.821 114.28 200.171 114.607 200.434C114.937 200.697 115.353 200.828 115.853 200.828ZM121.44 202V193.818H122.979V195.118H123.064C123.214 194.678 123.476 194.331 123.853 194.079C124.233 193.824 124.662 193.696 125.142 193.696C125.241 193.696 125.358 193.699 125.493 193.706C125.632 193.713 125.74 193.722 125.818 193.733V195.256C125.754 195.239 125.641 195.219 125.477 195.198C125.314 195.173 125.151 195.161 124.987 195.161C124.611 195.161 124.275 195.24 123.981 195.4C123.689 195.556 123.459 195.775 123.288 196.055C123.118 196.332 123.032 196.648 123.032 197.004V202H121.44ZM127.197 202V193.818H128.725V195.15H128.827C128.997 194.699 129.276 194.347 129.663 194.095C130.05 193.839 130.513 193.712 131.053 193.712C131.6 193.712 132.058 193.839 132.427 194.095C132.8 194.351 133.076 194.702 133.253 195.15H133.338C133.534 194.713 133.844 194.365 134.271 194.106C134.697 193.843 135.204 193.712 135.794 193.712C136.536 193.712 137.142 193.944 137.61 194.409C138.083 194.875 138.319 195.576 138.319 196.513V202H136.726V196.663C136.726 196.109 136.575 195.707 136.273 195.459C135.972 195.21 135.611 195.086 135.192 195.086C134.674 195.086 134.271 195.246 133.983 195.565C133.695 195.881 133.551 196.288 133.551 196.785V202H131.964V196.561C131.964 196.118 131.826 195.761 131.549 195.491C131.272 195.221 130.911 195.086 130.467 195.086C130.165 195.086 129.887 195.166 129.631 195.326C129.379 195.482 129.175 195.7 129.018 195.981C128.866 196.261 128.789 196.586 128.789 196.956V202H127.197ZM142.835 202.181C142.316 202.181 141.847 202.085 141.428 201.893C141.009 201.698 140.677 201.416 140.432 201.047C140.191 200.677 140.07 200.224 140.07 199.688C140.07 199.227 140.159 198.847 140.336 198.548C140.514 198.25 140.754 198.014 141.055 197.84C141.357 197.666 141.695 197.534 142.067 197.446C142.44 197.357 142.82 197.289 143.207 197.243C143.697 197.186 144.095 197.14 144.401 197.105C144.706 197.066 144.928 197.004 145.066 196.918C145.205 196.833 145.274 196.695 145.274 196.503V196.466C145.274 196 145.143 195.64 144.88 195.384C144.621 195.129 144.234 195.001 143.719 195.001C143.183 195.001 142.76 195.12 142.451 195.358C142.146 195.592 141.934 195.853 141.817 196.141L140.32 195.8C140.498 195.303 140.757 194.901 141.098 194.596C141.442 194.287 141.838 194.063 142.286 193.925C142.733 193.783 143.204 193.712 143.697 193.712C144.024 193.712 144.37 193.751 144.736 193.829C145.105 193.903 145.45 194.042 145.77 194.244C146.093 194.447 146.357 194.736 146.563 195.113C146.769 195.485 146.872 195.97 146.872 196.567V202H145.317V200.881H145.253C145.15 201.087 144.995 201.29 144.789 201.489C144.583 201.687 144.319 201.853 143.996 201.984C143.673 202.115 143.286 202.181 142.835 202.181ZM143.181 200.903C143.621 200.903 143.998 200.816 144.31 200.642C144.626 200.468 144.866 200.24 145.029 199.96C145.196 199.676 145.279 199.372 145.279 199.049V197.994C145.223 198.051 145.113 198.104 144.949 198.154C144.789 198.2 144.607 198.241 144.401 198.277C144.195 198.309 143.994 198.339 143.799 198.367C143.603 198.392 143.44 198.413 143.309 198.431C143 198.47 142.717 198.536 142.462 198.628C142.21 198.721 142.007 198.854 141.854 199.028C141.705 199.198 141.631 199.425 141.631 199.71C141.631 200.104 141.776 200.402 142.067 200.604C142.359 200.803 142.73 200.903 143.181 200.903ZM150.586 197.142V202H148.994V193.818H150.522V195.15H150.623C150.812 194.717 151.106 194.369 151.508 194.106C151.913 193.843 152.422 193.712 153.036 193.712C153.594 193.712 154.082 193.829 154.501 194.063C154.92 194.294 155.245 194.638 155.476 195.097C155.707 195.555 155.822 196.121 155.822 196.796V202H154.23V196.988C154.23 196.395 154.075 195.931 153.766 195.597C153.457 195.26 153.033 195.091 152.493 195.091C152.124 195.091 151.795 195.171 151.508 195.331C151.224 195.491 150.998 195.725 150.831 196.034C150.668 196.339 150.586 196.709 150.586 197.142ZM161.405 202.165C160.613 202.165 159.931 201.986 159.359 201.627C158.791 201.265 158.354 200.766 158.049 200.13C157.744 199.495 157.591 198.767 157.591 197.946C157.591 197.115 157.747 196.382 158.06 195.746C158.372 195.107 158.812 194.608 159.381 194.25C159.949 193.891 160.618 193.712 161.389 193.712C162.01 193.712 162.564 193.827 163.051 194.058C163.537 194.285 163.93 194.605 164.228 195.017C164.53 195.429 164.709 195.91 164.766 196.46H163.216C163.131 196.077 162.935 195.746 162.63 195.469C162.328 195.192 161.923 195.054 161.415 195.054C160.972 195.054 160.583 195.171 160.249 195.406C159.919 195.636 159.661 195.967 159.476 196.396C159.292 196.822 159.199 197.327 159.199 197.909C159.199 198.506 159.29 199.021 159.471 199.454C159.652 199.887 159.908 200.223 160.238 200.461C160.572 200.699 160.964 200.817 161.415 200.817C161.717 200.817 161.991 200.762 162.236 200.652C162.484 200.539 162.692 200.377 162.859 200.168C163.029 199.958 163.148 199.706 163.216 199.411H164.766C164.709 199.94 164.537 200.413 164.249 200.828C163.962 201.244 163.576 201.57 163.093 201.808C162.614 202.046 162.051 202.165 161.405 202.165ZM169.995 202.165C169.189 202.165 168.495 201.993 167.913 201.648C167.334 201.3 166.886 200.812 166.57 200.184C166.258 199.551 166.102 198.811 166.102 197.962C166.102 197.124 166.258 196.386 166.57 195.746C166.886 195.107 167.327 194.608 167.891 194.25C168.46 193.891 169.124 193.712 169.884 193.712C170.345 193.712 170.793 193.788 171.226 193.941C171.659 194.093 172.048 194.333 172.392 194.66C172.737 194.987 173.009 195.411 173.207 195.933C173.406 196.451 173.506 197.082 173.506 197.824V198.388H167.002V197.195H171.945C171.945 196.776 171.86 196.405 171.689 196.082C171.519 195.755 171.279 195.498 170.97 195.31C170.665 195.121 170.306 195.027 169.894 195.027C169.447 195.027 169.056 195.137 168.722 195.358C168.392 195.574 168.136 195.858 167.955 196.21C167.778 196.558 167.689 196.936 167.689 197.344V198.277C167.689 198.824 167.785 199.289 167.977 199.672C168.172 200.056 168.444 200.349 168.792 200.551C169.14 200.75 169.546 200.849 170.011 200.849C170.313 200.849 170.588 200.807 170.837 200.722C171.086 200.633 171.3 200.501 171.482 200.327C171.663 200.153 171.801 199.939 171.897 199.683L173.404 199.955C173.284 200.398 173.067 200.787 172.755 201.121C172.446 201.451 172.057 201.709 171.588 201.893C171.123 202.075 170.592 202.165 169.995 202.165ZM181.624 202.181C181.105 202.181 180.636 202.085 180.217 201.893C179.798 201.698 179.466 201.416 179.221 201.047C178.98 200.677 178.859 200.224 178.859 199.688C178.859 199.227 178.948 198.847 179.125 198.548C179.303 198.25 179.543 198.014 179.844 197.84C180.146 197.666 180.484 197.534 180.857 197.446C181.229 197.357 181.609 197.289 181.996 197.243C182.487 197.186 182.884 197.14 183.19 197.105C183.495 197.066 183.717 197.004 183.855 196.918C183.994 196.833 184.063 196.695 184.063 196.503V196.466C184.063 196 183.932 195.64 183.669 195.384C183.41 195.129 183.023 195.001 182.508 195.001C181.972 195.001 181.549 195.12 181.24 195.358C180.935 195.592 180.723 195.853 180.606 196.141L179.109 195.8C179.287 195.303 179.546 194.901 179.887 194.596C180.232 194.287 180.627 194.063 181.075 193.925C181.522 193.783 181.993 193.712 182.487 193.712C182.813 193.712 183.159 193.751 183.525 193.829C183.895 193.903 184.239 194.042 184.559 194.244C184.882 194.447 185.146 194.736 185.352 195.113C185.558 195.485 185.661 195.97 185.661 196.567V202H184.106V200.881H184.042C183.939 201.087 183.784 201.29 183.578 201.489C183.373 201.687 183.108 201.853 182.785 201.984C182.462 202.115 182.075 202.181 181.624 202.181ZM181.97 200.903C182.41 200.903 182.787 200.816 183.099 200.642C183.415 200.468 183.655 200.24 183.818 199.96C183.985 199.676 184.069 199.372 184.069 199.049V197.994C184.012 198.051 183.902 198.104 183.738 198.154C183.578 198.2 183.396 198.241 183.19 198.277C182.984 198.309 182.783 198.339 182.588 198.367C182.392 198.392 182.229 198.413 182.098 198.431C181.789 198.47 181.506 198.536 181.251 198.628C180.999 198.721 180.796 198.854 180.643 199.028C180.494 199.198 180.42 199.425 180.42 199.71C180.42 200.104 180.565 200.402 180.857 200.604C181.148 200.803 181.519 200.903 181.97 200.903ZM189.375 197.142V202H187.783V193.818H189.311V195.15H189.413C189.601 194.717 189.896 194.369 190.297 194.106C190.702 193.843 191.211 193.712 191.826 193.712C192.383 193.712 192.871 193.829 193.29 194.063C193.709 194.294 194.034 194.638 194.265 195.097C194.496 195.555 194.611 196.121 194.611 196.796V202H193.019V196.988C193.019 196.395 192.864 195.931 192.555 195.597C192.246 195.26 191.822 195.091 191.282 195.091C190.913 195.091 190.584 195.171 190.297 195.331C190.013 195.491 189.787 195.725 189.62 196.034C189.457 196.339 189.375 196.709 189.375 197.142ZM199.81 202.16C199.15 202.16 198.56 201.991 198.042 201.654C197.527 201.313 197.122 200.828 196.827 200.2C196.536 199.567 196.391 198.809 196.391 197.925C196.391 197.041 196.538 196.284 196.833 195.656C197.131 195.027 197.539 194.546 198.058 194.212C198.576 193.879 199.164 193.712 199.821 193.712C200.329 193.712 200.737 193.797 201.046 193.967C201.359 194.134 201.6 194.33 201.771 194.553C201.945 194.777 202.079 194.974 202.175 195.145H202.271V191.091H203.864V202H202.309V200.727H202.175C202.079 200.901 201.941 201.1 201.76 201.324C201.582 201.547 201.337 201.743 201.025 201.909C200.712 202.076 200.307 202.16 199.81 202.16ZM200.162 200.801C200.62 200.801 201.007 200.681 201.323 200.439C201.643 200.194 201.884 199.855 202.047 199.422C202.214 198.989 202.298 198.484 202.298 197.909C202.298 197.341 202.216 196.844 202.053 196.418C201.889 195.991 201.65 195.659 201.334 195.422C201.018 195.184 200.627 195.065 200.162 195.065C199.682 195.065 199.283 195.189 198.963 195.438C198.644 195.686 198.402 196.025 198.239 196.455C198.079 196.885 197.999 197.369 197.999 197.909C197.999 198.456 198.081 198.948 198.244 199.385C198.408 199.821 198.649 200.168 198.969 200.423C199.292 200.675 199.69 200.801 200.162 200.801ZM216.238 195.816L214.794 196.071C214.734 195.887 214.638 195.711 214.507 195.544C214.379 195.377 214.205 195.24 213.985 195.134C213.764 195.027 213.489 194.974 213.159 194.974C212.708 194.974 212.332 195.075 212.03 195.278C211.728 195.477 211.577 195.734 211.577 196.05C211.577 196.324 211.678 196.544 211.881 196.711C212.083 196.877 212.41 197.014 212.861 197.121L214.16 197.419C214.913 197.593 215.474 197.861 215.844 198.223C216.213 198.586 216.398 199.056 216.398 199.635C216.398 200.125 216.256 200.562 215.972 200.945C215.691 201.325 215.299 201.624 214.794 201.84C214.294 202.057 213.713 202.165 213.052 202.165C212.136 202.165 211.389 201.97 210.81 201.579C210.231 201.185 209.876 200.626 209.745 199.901L211.284 199.667C211.38 200.068 211.577 200.372 211.875 200.578C212.174 200.78 212.562 200.881 213.042 200.881C213.564 200.881 213.981 200.773 214.294 200.556C214.606 200.336 214.762 200.068 214.762 199.752C214.762 199.496 214.666 199.282 214.475 199.108C214.286 198.934 213.997 198.802 213.606 198.713L212.222 198.41C211.458 198.236 210.893 197.959 210.528 197.579C210.165 197.199 209.984 196.718 209.984 196.135C209.984 195.652 210.119 195.23 210.389 194.868C210.659 194.505 211.032 194.223 211.508 194.021C211.984 193.815 212.529 193.712 213.143 193.712C214.027 193.712 214.723 193.903 215.231 194.287C215.739 194.667 216.074 195.176 216.238 195.816ZM223.332 198.607V193.818H224.93V202H223.364V200.583H223.278C223.09 201.02 222.788 201.384 222.373 201.675C221.961 201.963 221.448 202.107 220.833 202.107C220.308 202.107 219.843 201.991 219.438 201.76C219.037 201.526 218.721 201.18 218.49 200.722C218.262 200.263 218.149 199.697 218.149 199.022V193.818H219.741V198.831C219.741 199.388 219.896 199.832 220.205 200.162C220.514 200.493 220.915 200.658 221.409 200.658C221.707 200.658 222.004 200.583 222.298 200.434C222.597 200.285 222.843 200.059 223.039 199.757C223.238 199.456 223.335 199.072 223.332 198.607ZM227.07 202V193.818H228.609V195.118H228.694C228.843 194.678 229.106 194.331 229.483 194.079C229.863 193.824 230.292 193.696 230.772 193.696C230.871 193.696 230.988 193.699 231.123 193.706C231.262 193.713 231.37 193.722 231.448 193.733V195.256C231.384 195.239 231.271 195.219 231.107 195.198C230.944 195.173 230.781 195.161 230.617 195.161C230.241 195.161 229.905 195.24 229.611 195.4C229.319 195.556 229.089 195.775 228.918 196.055C228.748 196.332 228.662 196.648 228.662 197.004V202H227.07ZM240.075 193.818L237.108 202H235.403L232.431 193.818H234.141L236.213 200.114H236.298L238.365 193.818H240.075ZM241.572 202V193.818H243.164V202H241.572ZM242.376 192.556C242.099 192.556 241.861 192.463 241.662 192.279C241.467 192.091 241.369 191.867 241.369 191.608C241.369 191.345 241.467 191.121 241.662 190.936C241.861 190.748 242.099 190.654 242.376 190.654C242.653 190.654 242.889 190.748 243.084 190.936C243.283 191.121 243.383 191.345 243.383 191.608C243.383 191.867 243.283 192.091 243.084 192.279C242.889 192.463 242.653 192.556 242.376 192.556ZM252.306 193.818L249.339 202H247.635L244.662 193.818H246.372L248.444 200.114H248.53L250.596 193.818H252.306ZM255.95 202.181C255.431 202.181 254.963 202.085 254.544 201.893C254.124 201.698 253.792 201.416 253.547 201.047C253.306 200.677 253.185 200.224 253.185 199.688C253.185 199.227 253.274 198.847 253.452 198.548C253.629 198.25 253.869 198.014 254.171 197.84C254.472 197.666 254.81 197.534 255.183 197.446C255.556 197.357 255.936 197.289 256.323 197.243C256.813 197.186 257.21 197.14 257.516 197.105C257.821 197.066 258.043 197.004 258.182 196.918C258.32 196.833 258.389 196.695 258.389 196.503V196.466C258.389 196 258.258 195.64 257.995 195.384C257.736 195.129 257.349 195.001 256.834 195.001C256.298 195.001 255.875 195.12 255.566 195.358C255.261 195.592 255.05 195.853 254.932 196.141L253.436 195.8C253.613 195.303 253.872 194.901 254.213 194.596C254.558 194.287 254.954 194.063 255.401 193.925C255.849 193.783 256.319 193.712 256.813 193.712C257.139 193.712 257.486 193.751 257.851 193.829C258.221 193.903 258.565 194.042 258.885 194.244C259.208 194.447 259.472 194.736 259.678 195.113C259.884 195.485 259.987 195.97 259.987 196.567V202H258.432V200.881H258.368C258.265 201.087 258.111 201.29 257.905 201.489C257.699 201.687 257.434 201.853 257.111 201.984C256.788 202.115 256.401 202.181 255.95 202.181ZM256.296 200.903C256.736 200.903 257.113 200.816 257.425 200.642C257.741 200.468 257.981 200.24 258.144 199.96C258.311 199.676 258.395 199.372 258.395 199.049V197.994C258.338 198.051 258.228 198.104 258.064 198.154C257.905 198.2 257.722 198.241 257.516 198.277C257.31 198.309 257.109 198.339 256.914 198.367C256.719 198.392 256.555 198.413 256.424 198.431C256.115 198.47 255.833 198.536 255.577 198.628C255.325 198.721 255.122 198.854 254.97 199.028C254.82 199.198 254.746 199.425 254.746 199.71C254.746 200.104 254.892 200.402 255.183 200.604C255.474 200.803 255.845 200.903 256.296 200.903ZM263.701 191.091V202H262.109V191.091H263.701ZM267.586 198.863V198.761C267.593 198.101 267.659 197.575 267.783 197.185C267.911 196.794 268.092 196.478 268.326 196.237C268.561 195.995 268.843 195.775 269.173 195.576C269.386 195.441 269.578 195.29 269.749 195.123C269.919 194.956 270.054 194.765 270.153 194.548C270.253 194.331 270.303 194.092 270.303 193.829C270.303 193.513 270.228 193.239 270.079 193.009C269.93 192.778 269.731 192.6 269.482 192.476C269.237 192.348 268.964 192.284 268.662 192.284C268.388 192.284 268.127 192.341 267.879 192.455C267.63 192.568 267.424 192.746 267.261 192.987C267.098 193.225 267.004 193.532 266.979 193.909H265.359C265.384 193.27 265.546 192.73 265.844 192.289C266.142 191.846 266.537 191.51 267.027 191.283C267.52 191.055 268.065 190.942 268.662 190.942C269.315 190.942 269.887 191.064 270.377 191.309C270.867 191.551 271.247 191.89 271.517 192.327C271.79 192.76 271.927 193.266 271.927 193.845C271.927 194.243 271.865 194.601 271.741 194.921C271.616 195.237 271.439 195.519 271.208 195.768C270.981 196.016 270.707 196.237 270.388 196.428C270.086 196.616 269.841 196.812 269.653 197.014C269.468 197.217 269.333 197.456 269.248 197.733C269.163 198.01 269.116 198.353 269.109 198.761V198.863H267.586ZM268.39 202.101C268.099 202.101 267.849 201.998 267.639 201.792C267.43 201.583 267.325 201.331 267.325 201.036C267.325 200.745 267.43 200.496 267.639 200.29C267.849 200.081 268.099 199.976 268.39 199.976C268.678 199.976 268.926 200.081 269.136 200.29C269.349 200.496 269.456 200.745 269.456 201.036C269.456 201.231 269.406 201.411 269.306 201.574C269.211 201.734 269.083 201.862 268.923 201.957C268.763 202.053 268.586 202.101 268.39 202.101Z" fill="black"/>
<rect x="12" y="222" width="358" height="16" rx="6" fill="#EEEDEE"/>
<rect x="12" y="242" width="276" height="16" rx="6" fill="#EEEDEE"/>
<rect x="0.5" y="0.5" width="393" height="269" rx="11.5" stroke="#EFEFEF"/>
<g filter="url(#filter0_d_739_169)">
<path d="M330.585 214.28C330.305 213.92 329.955 213.19 329.345 212.28C328.995 211.78 328.135 210.83 327.875 210.34C327.688 210.042 327.633 209.68 327.725 209.34C327.882 208.694 328.495 208.266 329.155 208.34C329.666 208.443 330.135 208.693 330.505 209.06C330.763 209.303 331.001 209.567 331.215 209.85C331.375 210.05 331.415 210.13 331.595 210.36C331.775 210.59 331.895 210.82 331.805 210.48C331.735 209.98 331.615 209.14 331.445 208.39C331.315 207.82 331.285 207.73 331.165 207.3C331.045 206.87 330.975 206.51 330.845 206.02C330.726 205.538 330.633 205.051 330.565 204.56C330.439 203.932 330.531 203.279 330.825 202.71C331.175 202.381 331.687 202.295 332.125 202.49C332.566 202.815 332.894 203.27 333.065 203.79C333.327 204.43 333.502 205.103 333.585 205.79C333.745 206.79 334.055 208.25 334.065 208.55C334.065 208.18 333.995 207.4 334.065 207.05C334.134 206.685 334.388 206.382 334.735 206.25C335.033 206.159 335.348 206.138 335.655 206.19C335.965 206.255 336.24 206.433 336.425 206.69C336.657 207.273 336.785 207.893 336.805 208.52C336.832 207.971 336.926 207.426 337.085 206.9C337.252 206.664 337.496 206.495 337.775 206.42C338.106 206.359 338.445 206.359 338.775 206.42C339.046 206.511 339.283 206.681 339.455 206.91C339.667 207.44 339.795 208 339.835 208.57C339.835 208.71 339.905 208.18 340.125 207.83C340.239 207.491 340.526 207.238 340.877 207.167C341.228 207.097 341.59 207.218 341.827 207.487C342.064 207.756 342.139 208.131 342.025 208.47C342.025 209.12 342.025 209.09 342.025 209.53C342.025 209.97 342.025 210.36 342.025 210.73C341.989 211.315 341.908 211.897 341.785 212.47C341.611 212.977 341.369 213.458 341.065 213.9C340.58 214.44 340.178 215.05 339.875 215.71C339.8 216.038 339.766 216.374 339.775 216.71C339.774 217.021 339.814 217.33 339.895 217.63C339.486 217.673 339.074 217.673 338.665 217.63C338.275 217.57 337.795 216.79 337.665 216.55C337.601 216.421 337.469 216.34 337.325 216.34C337.181 216.34 337.049 216.421 336.985 216.55C336.765 216.93 336.275 217.62 335.935 217.66C335.265 217.74 333.885 217.66 332.795 217.66C332.795 217.66 332.975 216.66 332.565 216.3C332.155 215.94 331.735 215.52 331.425 215.24L330.585 214.28Z" fill="white"/>
<path fill-rule="evenodd" clip-rule="evenodd" d="M330.585 214.28C330.305 213.92 329.955 213.19 329.345 212.28C328.995 211.78 328.135 210.83 327.875 210.34C327.688 210.042 327.633 209.68 327.725 209.34C327.882 208.694 328.495 208.266 329.155 208.34C329.666 208.443 330.135 208.693 330.505 209.06C330.763 209.303 331.001 209.567 331.215 209.85C331.375 210.05 331.415 210.13 331.595 210.36C331.775 210.59 331.895 210.82 331.805 210.48C331.735 209.98 331.615 209.14 331.445 208.39C331.315 207.82 331.285 207.73 331.165 207.3C331.045 206.87 330.975 206.51 330.845 206.02C330.726 205.538 330.633 205.051 330.565 204.56C330.439 203.932 330.531 203.279 330.825 202.71C331.175 202.381 331.687 202.295 332.125 202.49C332.566 202.815 332.894 203.27 333.065 203.79C333.327 204.43 333.502 205.103 333.585 205.79C333.745 206.79 334.055 208.25 334.065 208.55C334.065 208.18 333.995 207.4 334.065 207.05C334.134 206.685 334.388 206.382 334.735 206.25C335.033 206.159 335.348 206.138 335.655 206.19C335.965 206.255 336.24 206.433 336.425 206.69C336.657 207.273 336.785 207.893 336.805 208.52C336.832 207.971 336.926 207.426 337.085 206.9C337.252 206.664 337.496 206.495 337.775 206.42C338.106 206.359 338.445 206.359 338.775 206.42C339.046 206.511 339.283 206.681 339.455 206.91C339.667 207.44 339.795 208 339.835 208.57C339.835 208.71 339.905 208.18 340.125 207.83C340.239 207.491 340.526 207.238 340.877 207.167C341.228 207.097 341.59 207.218 341.827 207.487C342.064 207.756 342.139 208.131 342.025 208.47C342.025 209.12 342.025 209.09 342.025 209.53C342.025 209.97 342.025 210.36 342.025 210.73C341.989 211.315 341.908 211.897 341.785 212.47C341.611 212.977 341.369 213.458 341.065 213.9C340.58 214.44 340.178 215.05 339.875 215.71C339.8 216.038 339.766 216.374 339.775 216.71C339.774 217.021 339.814 217.33 339.895 217.63C339.486 217.673 339.074 217.673 338.665 217.63C338.275 217.57 337.795 216.79 337.665 216.55C337.601 216.421 337.469 216.34 337.325 216.34C337.181 216.34 337.049 216.421 336.985 216.55C336.765 216.93 336.275 217.62 335.935 217.66C335.265 217.74 333.885 217.66 332.795 217.66C332.795 217.66 332.975 216.66 332.565 216.3C332.155 215.94 331.735 215.52 331.425 215.24L330.585 214.28Z" stroke="black" stroke-width="0.75" stroke-linecap="round" stroke-linejoin="round"/>
<path d="M339.065 214.826V211.374C339.065 211.167 338.897 211 338.69 211C338.483 211 338.315 211.167 338.315 211.374V214.826C338.315 215.033 338.483 215.2 338.69 215.2C338.897 215.2 339.065 215.033 339.065 214.826Z" fill="black"/>
<path d="M337.085 214.825L337.065 211.371C337.064 211.165 336.895 210.999 336.688 211C336.481 211.001 336.314 211.169 336.315 211.375L336.335 214.829C336.336 215.035 336.505 215.201 336.712 215.2C336.919 215.199 337.086 215.031 337.085 214.825Z" fill="black"/>
<path d="M334.315 211.379L334.335 214.825C334.336 215.033 334.505 215.201 334.712 215.2C334.919 215.199 335.086 215.029 335.085 214.821L335.065 211.375C335.064 211.167 334.895 210.999 334.688 211C334.481 211.001 334.314 211.171 334.315 211.379Z" fill="black"/>
</g>
<defs>
<filter id="filter0_d_739_169" x="326.506" y="202.012" width="16.7461" height="17.8586" filterUnits="userSpaceOnUse" color-interpolation-filters="sRGB">
<feFlood flood-opacity="0" result="BackgroundImageFix"/>
<feColorMatrix in="SourceAlpha" type="matrix" values="0 0 0 0 0 0 0 0 0 0 0 0 0 0 0 0 0 0 127 0" result="hardAlpha"/>
<feOffset dy="1"/>
<feGaussianBlur stdDeviation="0.4"/>
<feColorMatrix type="matrix" values="0 0 0 0 0 0 0 0 0 0 0 0 0 0 0 0 0 0 0.5 0"/>
<feBlend mode="normal" in2="BackgroundImageFix" result="effect1_dropShadow_739_169"/>
<feBlend mode="normal" in="SourceGraphic" in2="effect1_dropShadow_739_169" result="shape"/>
</filter>
</defs>
</svg>
