<svg width="65" height="116" viewBox="0 0 65 116" fill="none" xmlns="http://www.w3.org/2000/svg">
<path d="M24.0955 57.649C21.4905 42.8547 16.8317 27.8575 15.0875 12.9564C15.0141 12.3293 13.5047 5.17196 14.7812 6.63269C15.5741 7.54012 22.8964 18.0047 22.9508 17.8962C23.7499 16.3005 15.954 3.44085 14.1393 2.37549C14.0216 2.30643 8.2702 20.8071 7.77844 23.1243" stroke="#1C1C1C" stroke-width="3" stroke-linecap="round"/>
<path d="M12.28 105.36C11.16 105.12 10.0533 104.653 8.96 103.96C7.86667 103.293 6.86667 102.533 5.96 101.68C5.05333 100.827 4.28 99.96 3.64 99.08C3 98.1733 2.57333 97.3867 2.36 96.72C1.93333 95.4133 1.66667 94.1333 1.56 92.88C1.45333 91.6 1.4 90.52 1.4 89.64C1.4 87.4 1.73333 85.48 2.4 83.88C3.09333 82.28 3.86667 81.0133 4.72 80.08C6.02667 78.64 7.24 77.5867 8.36 76.92C9.48 76.2533 10.4667 75.92 11.32 75.92C12.0667 75.92 12.7467 76.1467 13.36 76.6C13.5467 76.7067 13.64 77 13.64 77.48C13.64 77.8533 13.5467 78.2 13.36 78.52C13.1733 78.8133 12.84 79.0133 12.36 79.12C11.7467 79.2267 11.12 79.3733 10.48 79.56C9.86667 79.7467 9.13333 80.2133 8.28 80.96C7.82667 81.36 7.37333 81.8533 6.92 82.44C6.49333 83.0267 6.10667 83.72 5.76 84.52C5.41333 85.32 5.13333 86.24 4.92 87.28C4.70667 88.2933 4.6 89.4267 4.6 90.68C4.6 92.9733 5.34667 95.3467 6.84 97.8C7.29333 98.36 7.72 98.8667 8.12 99.32C8.52 99.7467 8.86667 100.107 9.16 100.4C9.45333 100.693 9.74667 100.973 10.04 101.24C10.3333 101.533 10.7867 101.84 11.4 102.16C11.6133 102.267 11.8933 102.373 12.24 102.48C12.5867 102.613 12.8667 102.72 13.08 102.8C13.5067 103.04 13.72 103.373 13.72 103.8C13.72 104.227 13.5733 104.613 13.28 104.96C13.0133 105.307 12.72 105.44 12.4 105.36H12.28ZM22.1941 91.84C22.0341 91.84 21.8207 91.8267 21.5541 91.8C21.3141 91.7467 21.0474 91.7067 20.7541 91.68C20.4874 91.6267 20.2207 91.5867 19.9541 91.56C19.7141 91.5067 19.5407 91.48 19.4341 91.48C19.0074 91.48 18.6207 91.5333 18.2741 91.64C17.9807 92.68 17.7274 93.9867 17.5141 95.56C17.3274 97.1067 17.2074 98.92 17.1541 101C16.7007 101.133 16.3541 101.2 16.1141 101.2C15.8741 101.2 15.6207 101.173 15.3541 101.12C15.1141 101.067 14.8874 100.947 14.6741 100.76C14.4607 100.6 14.2741 100.373 14.1141 100.08C13.9807 99.7867 13.9141 99.4 13.9141 98.92C13.9141 98.7067 13.9274 98.44 13.9541 98.12C14.0074 97.7733 14.0341 97.5333 14.0341 97.4C14.0341 97.1067 14.0741 96.6 14.1541 95.88C14.2341 95.1333 14.3274 94.2667 14.4341 93.28C14.5407 92.2933 14.6607 91.2267 14.7941 90.08C14.9541 88.9067 15.0874 87.7467 15.1941 86.6C15.3007 85.4533 15.3941 84.3733 15.4741 83.36C15.5541 82.3467 15.5941 81.4933 15.5941 80.8V80.32C15.5941 80 15.7407 79.8133 16.0341 79.76C16.3274 79.7067 16.5407 79.68 16.6741 79.68L17.8741 80C18.1141 80.08 18.3007 80.2267 18.4341 80.44C18.5941 80.6267 18.7141 80.8667 18.7941 81.16C18.8741 81.4267 18.9274 81.72 18.9541 82.04C18.9807 82.36 18.9941 82.6667 18.9941 82.96C18.9941 83.1733 18.9674 83.4933 18.9141 83.92C18.8607 84.3467 18.8074 84.8133 18.7541 85.32C18.7007 85.8 18.6474 86.2933 18.5941 86.8C18.5407 87.28 18.5141 87.6933 18.5141 88.04C18.5141 88.52 18.7007 88.8267 19.0741 88.96C19.4474 89.0667 19.9941 89.12 20.7141 89.12H21.1941C21.5407 89.12 21.8341 89.1067 22.0741 89.08C22.3141 89.0533 22.4874 89.04 22.5941 89.04H22.7541C23.1007 87.6 23.4074 86 23.6741 84.24C23.9674 82.4533 24.2474 80.4267 24.5141 78.16C24.6474 77.2533 24.9274 76.7867 25.3541 76.76H25.7141C26.2207 76.76 26.6341 76.84 26.9541 77C27.3007 77.1333 27.5141 77.3467 27.5941 77.64C27.5674 78.28 27.4874 79.1733 27.3541 80.32C27.2474 81.44 27.1141 82.7067 26.9541 84.12C26.7941 85.5067 26.6207 86.9733 26.4341 88.52C26.2741 90.0667 26.1141 91.5733 25.9541 93.04C25.7941 94.48 25.6607 95.8267 25.5541 97.08C25.4741 98.3333 25.4341 99.36 25.4341 100.16C25.4341 100.587 25.4341 100.987 25.4341 101.36C25.4607 101.76 25.4874 102.147 25.5141 102.52C25.5141 102.707 25.4474 102.88 25.3141 103.04C25.2074 103.227 25.0607 103.32 24.8741 103.32C23.8074 103.32 23.0607 103.013 22.6341 102.4C22.2341 101.813 22.0341 100.947 22.0341 99.8C22.0341 99.64 22.0341 99.4267 22.0341 99.16C22.0607 98.8933 22.0741 98.6133 22.0741 98.32C22.1007 98 22.1141 97.7067 22.1141 97.44C22.1407 97.1733 22.1541 96.96 22.1541 96.8C22.1541 96.5867 22.1674 96.2533 22.1941 95.8C22.2474 95.3467 22.3007 94.8667 22.3541 94.36C22.4074 93.8533 22.4474 93.3733 22.4741 92.92C22.5274 92.44 22.5541 92.08 22.5541 91.84H22.1941ZM28.8328 101.8C28.8328 100.76 29.1261 99.52 29.7128 98.08C30.5128 96.1333 30.9528 94.72 31.0328 93.84C31.0328 93.6267 30.8595 93.3867 30.5128 93.12C30.1395 92.8267 29.9528 92.6 29.9528 92.44C29.9528 92.28 30.0061 92.1467 30.1128 92.04C30.2195 91.88 30.4995 91.76 30.9528 91.68C31.4061 91.5733 31.6595 91.4267 31.7128 91.24C32.1928 89.9333 32.9528 87.4533 33.9928 83.8C34.4461 82.2 34.8595 80.8133 35.2328 79.64C35.6328 78.44 36.0061 77.4133 36.3528 76.56C36.5128 76.1867 36.8461 76 37.3528 76C37.7261 76 38.0595 76.12 38.3528 76.36C39.0995 77 39.5795 77.96 39.7928 79.24C39.8728 79.7733 39.9528 80.32 40.0328 80.88C40.1128 81.44 40.1795 81.9867 40.2328 82.52C40.8995 85.6667 41.5795 88.5333 42.2728 91.12C42.9661 93.68 43.6728 96 44.3928 98.08C44.5528 98.5333 44.6328 98.9067 44.6328 99.2C44.6328 99.7333 44.4061 100.2 43.9528 100.6C43.5261 100.973 43.2195 101.16 43.0328 101.16C41.7261 100.92 40.8995 99.8667 40.5528 98C40.2061 95.9733 39.7661 94.28 39.2328 92.92L36.5128 93.16C35.4728 93.2933 34.6595 93.6133 34.0728 94.12C33.9395 94.5467 33.7661 95.12 33.5528 95.84C33.3661 96.56 33.1528 97.4533 32.9128 98.52C32.4595 100.493 32.0195 101.973 31.5928 102.96C31.4595 103.28 31.1928 103.44 30.7928 103.44C30.7128 103.44 30.6195 103.44 30.5128 103.44C30.4328 103.44 30.3395 103.413 30.2328 103.36C29.3528 103.093 28.8861 102.693 28.8328 102.16V101.8ZM38.5528 90.44C38.4995 89.9067 38.4328 89.3733 38.3528 88.84C38.2728 88.28 38.1661 87.7067 38.0328 87.12C37.8995 86.5867 37.7661 86.0533 37.6328 85.52C37.5261 84.9867 37.4061 84.4533 37.2728 83.92C36.4728 86.16 35.7795 88.3733 35.1928 90.56C35.6195 90.48 36.7395 90.44 38.5528 90.44ZM53.5763 100.4C53.5763 100.56 53.5629 100.693 53.5363 100.8C53.5363 100.933 53.5229 101.053 53.4963 101.16C53.3629 101.56 53.0963 101.76 52.6963 101.76C51.9229 101.733 51.2829 101.4 50.7763 100.76C50.2963 100.147 50.0296 99.4533 49.9763 98.68C49.8963 97.6933 49.8563 96.6533 49.8563 95.56C49.8563 93.8 49.9763 91.0133 50.2163 87.2C50.3229 85.6 50.4029 84.1733 50.4563 82.92C50.5096 81.64 50.5363 80.5333 50.5363 79.6V78.84H50.0163C49.6963 78.84 49.3229 78.8533 48.8963 78.88C48.4963 78.9067 48.0429 78.96 47.5363 79.04C47.2429 79.0933 47.0163 79.1467 46.8563 79.2C46.6963 79.2267 46.4696 79.24 46.1763 79.24C44.8963 79.24 43.8296 78.8933 42.9763 78.2C42.6562 77.5333 42.4962 77.1733 42.4962 77.12C42.4962 76.9067 42.5896 76.7067 42.7763 76.52C43.2029 76.3867 43.6963 76.2667 44.2563 76.16C44.8163 76.0267 45.5096 75.92 46.3363 75.84C48.5763 75.6 50.3096 75.1733 51.5363 74.56C52.5496 74.8533 53.6163 75 54.7363 75C55.8563 75 57.0029 74.8533 58.1763 74.56C58.3363 74.5333 58.5896 74.48 58.9363 74.4C59.2829 74.2933 59.6429 74.1867 60.0163 74.08C60.6563 73.8933 61.2829 73.8 61.8963 73.8C61.9763 73.8 62.0563 73.8133 62.1363 73.84C62.2429 73.84 62.3363 73.84 62.4163 73.84C62.8163 73.84 63.0163 73.9867 63.0163 74.28V74.44C63.7363 74.44 64.0963 74.68 64.0963 75.16C63.8563 76.12 63.4029 76.68 62.7363 76.84C61.8829 77.0533 60.7896 77.2933 59.4563 77.56C58.1496 77.8 56.4296 78.0933 54.2963 78.44C54.0296 81.8 53.8296 84.84 53.6963 87.56C53.5629 90.28 53.4963 92.7733 53.4963 95.04C53.4963 95.8933 53.4963 96.7333 53.4963 97.56C53.5229 98.36 53.5496 99.1733 53.5763 100V100.4Z" fill="black"/>
</svg>
