<svg width="151" height="76" viewBox="0 0 151 76" fill="none" xmlns="http://www.w3.org/2000/svg">
<path d="M54.4902 33.9587C39.0165 42.0486 25.241 51.4615 10.7635 61.1115C9.94588 61.6565 1.53088 67.5404 2.19421 67.6384C7.81534 68.4688 13.6304 63.1546 18.8838 63.3439C24.4878 63.5458 7.58969 65.5146 2.899 68.5875C1.20339 69.6984 4.87698 64.4486 5.31307 63.6863C7.91693 59.135 8.38428 54.3369 9.13886 49.2291" stroke="black" stroke-width="3" stroke-linecap="round"/>
<path d="M74.88 35.72C74.64 34.76 74.4 33.5333 74.16 32.04C73.9467 30.5467 73.7333 28.7867 73.52 26.76C73.3067 24.7333 73.08 22.9867 72.84 21.52C72.6267 20.0267 72.4 18.8133 72.16 17.88C72.08 17.56 72.12 17.2533 72.28 16.96C72.44 16.6667 72.6667 16.5067 72.96 16.48C73.2267 16.4267 73.4933 16.4 73.76 16.4C74.5067 16.4 75.08 16.7333 75.48 17.4C75.6933 18.52 75.96 20.48 76.28 23.28C76.6267 26.0533 77.0267 29.7067 77.48 34.24C78.1467 31.9467 78.5867 30.28 78.8 29.24C78.9067 28.7333 79.0133 28.1467 79.12 27.48C79.2267 26.8133 79.3467 26.0667 79.48 25.24C79.6133 24.7333 79.7333 24.2267 79.84 23.72C79.9467 23.2133 80.0533 22.7067 80.16 22.2C80.2667 20.9733 80.72 20.36 81.52 20.36C81.7867 20.36 82.08 20.4 82.4 20.48C82.4267 20.64 82.5467 20.7333 82.76 20.76C82.9733 20.7867 83.0933 20.8267 83.12 20.88C83.7333 22.2133 84.1733 23.96 84.44 26.12C84.7067 27.6667 84.9467 29.1867 85.16 30.68C85.3733 32.1467 85.56 33.6 85.72 35.04C86.0933 32.64 86.4267 30.5733 86.72 28.84C87.04 27.08 87.3067 25.6 87.52 24.4C88.08 21.6533 88.8 19.4133 89.68 17.68C89.8667 17.3333 90.2533 17.16 90.84 17.16C91.2667 17.16 91.64 17.24 91.96 17.4C92.5733 17.6933 92.88 18.12 92.88 18.68C92.88 19.0533 92.72 19.56 92.4 20.2C92.1867 20.6267 92.0267 20.96 91.92 21.2C91.84 21.44 91.7867 21.5867 91.76 21.64C91.44 22.6267 91.0933 23.8667 90.72 25.36C90.3467 26.8533 89.9467 28.6133 89.52 30.64C89.0933 32.6667 88.7067 34.4267 88.36 35.92C88.0133 37.3867 87.6933 38.5867 87.4 39.52C87.24 40.0533 86.7867 40.32 86.04 40.32C85.7467 40.32 85.44 40.2533 85.12 40.12C84.1333 39.6133 83.4267 38.6267 83 37.16C82.9733 37.1067 82.92 36.7867 82.84 36.2C82.76 35.6133 82.6267 34.76 82.44 33.64C82.3333 32.7867 82.2133 31.8 82.08 30.68C81.9733 29.56 81.8267 28.3067 81.64 26.92C81.32 28.3867 81.0267 29.7467 80.76 31C80.52 32.2533 80.2933 33.4 80.08 34.44C79.5467 37 78.92 38.6267 78.2 39.32C77.9867 39.5333 77.6133 39.56 77.08 39.4C76.2267 39.2933 75.6533 38.8133 75.36 37.96L74.88 35.72ZM94.8063 35.28C94.8596 34.5067 94.9263 33.6667 95.0063 32.76C95.1129 31.8267 95.1663 30.8267 95.1663 29.76V25.4C95.1663 23.56 95.1796 21.8933 95.2063 20.4C95.2596 18.9067 95.3929 17.52 95.6063 16.24C95.8729 14.72 97.2463 13.96 99.7263 13.96H100.286C101.726 14.0133 102.98 14.7333 104.046 16.12C105.033 17.3467 105.526 18.7333 105.526 20.28C105.526 21.5333 105.06 22.7867 104.126 24.04C103.3 25.16 102.326 26.0667 101.206 26.76C100.966 26.8933 100.78 27.0267 100.646 27.16C100.513 27.2667 100.446 27.4 100.446 27.56C100.446 27.7467 100.5 27.9067 100.606 28.04C100.74 28.1467 100.953 28.32 101.246 28.56L102.526 29.64L106.966 33.8C107.873 34.6533 108.66 35.4533 109.326 36.2C109.993 36.92 110.513 37.6133 110.886 38.28C110.966 38.4133 111.006 38.5333 111.006 38.64C111.006 39.2533 110.366 39.72 109.086 40.04C107.673 38.9733 105.913 37.2933 103.806 35C102.606 33.72 101.58 32.6533 100.726 31.8C99.8729 30.92 99.1529 30.2267 98.5663 29.72C98.5129 30.0667 98.4463 30.6933 98.3663 31.6C98.3129 32.5067 98.2329 33.6933 98.1263 35.16C97.9929 37.3733 97.7529 39.1333 97.4062 40.44C97.3529 40.44 97.2196 40.4933 97.0063 40.6C96.7929 40.7333 96.5796 40.8 96.3663 40.8C96.3396 40.8 96.3129 40.7867 96.2863 40.76C96.2596 40.76 96.2329 40.76 96.2063 40.76C95.0329 40.4667 94.4463 39.6533 94.4463 38.32C94.4463 38.1067 94.4596 37.8667 94.4863 37.6C94.5129 37.3067 94.5529 37.0133 94.6063 36.72L94.8063 35.28ZM102.526 19.04C102.446 18.48 102.206 17.9733 101.806 17.52C101.433 17.0667 100.82 16.84 99.9663 16.84C99.3263 16.84 98.9263 17.04 98.7663 17.44C98.7129 17.8133 98.6596 18.2 98.6063 18.6C98.5796 18.9733 98.5663 19.3467 98.5663 19.72C98.5663 20.0667 98.6063 20.96 98.6863 22.4C98.6863 22.6933 98.6863 22.96 98.6863 23.2C98.7129 23.44 98.7263 23.6667 98.7263 23.88C98.7263 24.0933 98.7129 24.3067 98.6863 24.52C98.6863 24.7333 98.6863 24.92 98.6863 25.08C100.9 23.4533 102.153 21.8667 102.446 20.32C102.473 20.1333 102.486 19.96 102.486 19.8C102.513 19.64 102.526 19.4933 102.526 19.36V19.04ZM117.32 17.76C117.347 18.1333 117.36 18.52 117.36 18.92C117.387 19.32 117.4 19.7333 117.4 20.16C117.4 21.0667 117.347 22.2 117.24 23.56C117.16 24.92 117.027 26.52 116.84 28.36C116.653 30.2 116.507 31.8133 116.4 33.2C116.32 34.56 116.28 35.7067 116.28 36.64C116.28 36.9867 116.28 37.3333 116.28 37.68C116.28 38 116.293 38.3333 116.32 38.68C116.08 39.4 115.56 39.76 114.76 39.76C113.613 39.7067 112.987 39.2133 112.88 38.28C112.827 37.8267 112.787 37.36 112.76 36.88C112.733 36.3733 112.72 35.8533 112.72 35.32C112.72 34.4133 112.773 33.2933 112.88 31.96C112.987 30.6267 113.147 29.04 113.36 27.2C113.573 25.36 113.733 23.7867 113.84 22.48C113.973 21.1467 114.04 20.0267 114.04 19.12C114.04 18.7733 114.027 18.44 114 18.12C114 17.7733 113.987 17.4267 113.96 17.08C114.227 16.5733 114.68 16.32 115.32 16.32C115.8 16.32 116.307 16.4667 116.84 16.76C116.947 16.68 117.027 16.64 117.08 16.64C117.16 16.64 117.2 16.7733 117.2 17.04C117.173 17.1467 117.16 17.28 117.16 17.44C117.16 17.5467 117.173 17.6 117.2 17.6L117.32 17.76ZM129.576 38.4C129.576 38.56 129.563 38.6933 129.536 38.8C129.536 38.9333 129.523 39.0533 129.496 39.16C129.363 39.56 129.096 39.76 128.696 39.76C127.923 39.7333 127.283 39.4 126.776 38.76C126.296 38.1467 126.03 37.4533 125.976 36.68C125.896 35.6933 125.856 34.6533 125.856 33.56C125.856 31.8 125.976 29.0133 126.216 25.2C126.323 23.6 126.403 22.1733 126.456 20.92C126.51 19.64 126.536 18.5333 126.536 17.6V16.84H126.016C125.696 16.84 125.323 16.8533 124.896 16.88C124.496 16.9067 124.043 16.96 123.536 17.04C123.243 17.0933 123.016 17.1467 122.856 17.2C122.696 17.2267 122.47 17.24 122.176 17.24C120.896 17.24 119.83 16.8933 118.976 16.2C118.656 15.5333 118.496 15.1733 118.496 15.12C118.496 14.9067 118.59 14.7067 118.776 14.52C119.203 14.3867 119.696 14.2667 120.256 14.16C120.816 14.0267 121.51 13.92 122.336 13.84C124.576 13.6 126.31 13.1733 127.536 12.56C128.55 12.8533 129.616 13 130.736 13C131.856 13 133.003 12.8533 134.176 12.56C134.336 12.5333 134.59 12.48 134.936 12.4C135.283 12.2933 135.643 12.1867 136.016 12.08C136.656 11.8933 137.283 11.8 137.896 11.8C137.976 11.8 138.056 11.8133 138.136 11.84C138.243 11.84 138.336 11.84 138.416 11.84C138.816 11.84 139.016 11.9867 139.016 12.28V12.44C139.736 12.44 140.096 12.68 140.096 13.16C139.856 14.12 139.403 14.68 138.736 14.84C137.883 15.0533 136.79 15.2933 135.456 15.56C134.15 15.8 132.43 16.0933 130.296 16.44C130.03 19.8 129.83 22.84 129.696 25.56C129.563 28.28 129.496 30.7733 129.496 33.04C129.496 33.8933 129.496 34.7333 129.496 35.56C129.523 36.36 129.55 37.1733 129.576 38V38.4ZM135.731 27.44C135.784 27.2 135.984 26.9867 136.331 26.8C136.731 26.5867 136.957 26.3733 137.011 26.16C137.037 26.0533 137.077 25.6933 137.131 25.08C137.184 24.4667 137.251 23.56 137.331 22.36C135.864 22.0933 135.131 21.5333 135.131 20.68C135.157 19.9067 135.624 19.2933 136.531 18.84L139.091 17.8C139.597 17.5333 140.157 17.2933 140.771 17.08C141.384 16.8667 142.064 16.6533 142.811 16.44C143.477 16.2533 144.131 16.08 144.771 15.92C145.411 15.76 146.064 15.6 146.731 15.44C146.784 15.4133 146.944 15.4 147.211 15.4C147.931 15.4 148.771 15.68 149.731 16.24C149.757 16.3467 149.824 16.5467 149.931 16.84C150.037 17.1333 150.091 17.3467 150.091 17.48C150.091 17.72 149.997 17.8933 149.811 18C149.304 18.2133 148.691 18.44 147.971 18.68C147.251 18.8933 146.411 19.1333 145.451 19.4C144.491 19.6667 143.651 19.92 142.931 20.16C142.211 20.3733 141.597 20.5867 141.091 20.8C140.984 21.12 140.877 21.6667 140.771 22.44C140.691 23.2133 140.624 24.2133 140.571 25.44C140.997 25.6 141.491 25.68 142.051 25.68C142.264 25.68 142.517 25.6667 142.811 25.64C143.131 25.5867 143.504 25.5333 143.931 25.48C144.357 25.4267 144.717 25.3867 145.011 25.36C145.331 25.3067 145.597 25.28 145.811 25.28C146.557 25.28 147.197 25.44 147.731 25.76C148.104 26.2933 148.291 26.64 148.291 26.8C148.291 26.9867 148.197 27.1333 148.011 27.24C147.984 27.2667 147.917 27.32 147.811 27.4C147.731 27.48 147.611 27.6133 147.451 27.8C147.291 28.0133 147.024 28.12 146.651 28.12C146.091 28.2267 145.064 28.3067 143.571 28.36C142.317 28.4133 141.317 28.5733 140.571 28.84C140.064 30.7067 139.811 32.2667 139.811 33.52C139.811 34.24 139.917 34.8533 140.131 35.36C141.224 36.1333 143.024 36.52 145.531 36.52C145.717 36.52 145.891 36.52 146.051 36.52C146.237 36.4933 146.437 36.48 146.651 36.48C146.864 36.48 147.091 36.3867 147.331 36.2C147.571 35.9867 147.771 35.88 147.931 35.88C147.984 35.88 148.024 35.88 148.051 35.88C148.077 35.8533 148.117 35.84 148.171 35.84C148.811 35.84 149.224 36.4133 149.411 37.56C149.411 37.6133 149.411 37.6667 149.411 37.72C149.437 37.7733 149.451 37.8267 149.451 37.88C149.451 38.2533 149.331 38.5733 149.091 38.84C148.877 39.1333 148.584 39.2933 148.211 39.32C147.971 39.32 147.731 39.32 147.491 39.32C147.251 39.3467 147.011 39.36 146.771 39.36C144.211 39.36 141.891 39.0933 139.811 38.56C139.064 38.3733 138.384 37.96 137.771 37.32C137.157 36.68 136.811 35.96 136.731 35.16C136.677 34.5733 136.624 34.0133 136.571 33.48C136.544 32.9467 136.531 32.4133 136.531 31.88C136.531 31.3467 136.544 30.84 136.571 30.36C136.624 29.8533 136.677 29.3733 136.731 28.92C136.064 28.44 135.731 28 135.731 27.6V27.44Z" fill="black"/>
</svg>
