<svg width="101" height="24" viewBox="0 0 101 24" fill="none" xmlns="http://www.w3.org/2000/svg">
<g clip-path="url(#clip0_392_782)">
<path d="M85.979 23.4293H89.8501V15.1789C89.8501 13.2112 90.7388 10.7362 93.6587 10.7362C95.6265 10.7362 96.5142 11.6883 96.5142 13.9097V23.4293H100.385V12.7995C100.385 8.1343 97.2439 6.99191 94.5153 6.99191C92.3251 6.99191 90.7701 7.84846 89.9135 8.95964H89.8501V0.200971H85.979V23.4293ZM84.7732 11.5615C83.7899 9.14987 81.8855 6.99191 77.9823 6.99191C72.7786 6.99191 69.7641 10.6093 69.7641 15.4004C69.7641 20.1924 72.7786 23.8098 77.6964 23.8098C82.0446 23.8098 83.8845 21.2401 84.9635 18.8909L81.6631 17.1466C81.0602 18.6061 80.0768 20.2558 77.7608 20.2558C75.0634 20.2558 73.8254 17.9085 73.8254 15.4004C73.8254 12.8941 75.2214 10.5459 77.9823 10.5459C79.5052 10.5459 80.87 11.5293 81.3782 13.1165L84.7732 11.5615ZM56.6056 13.338C57.0183 11.6249 58.5099 10.1654 60.7625 10.1654C63.3643 10.1654 64.4111 12.4814 64.4111 13.338H56.6056ZM68.4734 16.3213C68.4734 10.5771 66.1252 6.99191 60.7625 6.99191C55.5578 6.99191 52.5433 10.6093 52.5433 15.4004C52.5433 20.1924 55.5578 23.8098 60.7625 23.8098C65.1409 23.8098 67.4578 21.7162 68.6636 19.8753L65.3955 17.972C65.014 18.5105 63.8082 20.2558 60.7625 20.2558C58.668 20.2558 56.669 18.7017 56.6056 16.3213H68.4734ZM45.0129 3.87594V19.7485C45.0129 22.1923 46.0919 23.6195 49.2644 23.6195C50.4712 23.6195 51.4224 23.4293 52.3433 23.2391V20.0655C51.7716 20.1289 51.1687 20.2558 50.6293 20.2558C49.1376 20.2558 48.884 19.5582 48.884 18.289V10.1654H52.3433V7.37239H48.884V2.02645e-06L45.0129 3.87594ZM38.5263 23.4293H42.3974V0.200971H38.5263V23.4293ZM31.8837 17.6861C31.8837 19.7485 29.5677 20.6372 27.758 20.6372C26.362 20.6372 25.2518 19.8431 25.2518 18.6373C25.2518 17.1144 26.4576 16.7018 27.917 16.4169L30.0428 15.972C30.7413 15.8452 31.3764 15.655 31.8837 15.4004V17.6861ZM35.7547 12.26C35.7547 7.69042 32.2963 6.99191 28.837 6.99191C25.3152 6.99191 21.9826 8.45136 21.9826 12.2278L25.8547 12.3868C25.8547 10.6415 26.5844 9.9752 28.837 9.9752C30.5189 9.9752 31.8837 10.4191 31.8837 12.0054V12.4814C30.9003 12.8307 29.0906 13.1478 27.6946 13.4336L26.0761 13.7507C23.6967 14.2267 21.1895 15.6238 21.1895 18.7651C21.1895 21.8742 23.6011 23.8098 26.6478 23.8098C28.6467 23.8098 30.392 23.1756 31.8837 21.9698C31.8837 22.3825 32.0105 23.0488 32.2642 23.4293H36.3576C36.1362 23.08 35.7547 22.3825 35.7547 20.7318V12.26ZM20.6061 7.37239C19.5271 2.64477 16.0677 0.264381 11.5304 0.264381C4.77161 0.264381 0.818604 5.75391 0.818604 12.1322C0.818604 18.5105 4.29553 24 11.5304 24C16.0365 24 19.051 21.8108 20.8597 17.2734L16.9887 15.496C16.1633 18.13 14.4815 20.0655 11.5304 20.0655C7.0242 20.0655 5.15209 16.0676 5.15209 12.1322C5.15209 8.19772 7.0242 4.19983 11.5304 4.19983C14.101 4.19983 16.1633 5.91293 16.5126 8.42015L20.6061 7.37239Z" fill="#F58427"/>
</g>
<defs>
<clipPath id="clip0_392_782">
<rect width="99.5667" height="24" fill="white" transform="translate(0.818604)"/>
</clipPath>
</defs>
</svg>
