<svg width="123" height="32" viewBox="0 0 123 32" fill="none" xmlns="http://www.w3.org/2000/svg">
<mask id="mask0_392_798" style="mask-type:luminance" maskUnits="userSpaceOnUse" x="0" y="0" width="123" height="32">
<path d="M0.496338 2.9824e-07H122.817V32H0.496338V2.9824e-07Z" fill="white"/>
</mask>
<g mask="url(#mask0_392_798)">
<path d="M50.5357 21.6685C50.5357 21.4215 50.3747 21.2387 50.0457 21.1675V21.0077C50.2279 21.0077 50.8346 21.0321 51.0053 21.0321C51.1529 21.0321 51.7405 21.0077 51.9233 21.0077V21.1675C51.6179 21.2271 51.4575 21.4074 51.4575 21.6685V24.8041C51.4575 25.797 52.0027 26.3583 53.1433 26.3583C54.1261 26.3583 54.8907 25.917 54.8907 24.8779V21.6563C54.8907 21.4234 54.7444 21.2387 54.3762 21.1675V21.0077C54.5102 21.0077 55.0119 21.0321 55.1832 21.0321C55.3295 21.0321 55.8561 21.0077 55.9907 21.0077V21.1675C55.6355 21.2522 55.4776 21.4112 55.4776 21.6563V24.7051C55.4776 26.0735 54.6815 26.8594 52.9637 26.8594C51.3645 26.8594 50.5357 26.1325 50.5357 24.8469V21.6685Z" fill="#1D1D1B"/>
<path d="M57.3953 26.6137C57.7674 26.5444 57.9143 26.3559 57.9143 26.1249V21.7911C57.9143 21.4235 57.7186 21.2582 57.385 21.1671V21.0073C57.5737 21.0214 57.8905 21.0296 58.0522 21.0296C58.1991 21.0296 58.4275 21.0272 58.5814 21.0073L62.3404 25.4271V21.6564C62.3404 21.4241 62.1929 21.2395 61.826 21.1671V21.0073C61.9607 21.0073 62.4444 21.0323 62.6163 21.0323C62.7658 21.0323 63.284 21.0073 63.4206 21.0073V21.1671C63.062 21.2517 62.889 21.4121 62.889 21.6564V26.8594H62.6625C62.5199 26.8267 62.2506 26.6734 61.8401 26.2231L58.4769 22.3056V26.1249C58.4769 26.3571 58.6108 26.5412 58.9779 26.6137V26.7741C58.8432 26.7741 58.3595 26.7485 58.1876 26.7485C58.0394 26.7485 57.5319 26.7741 57.3953 26.7741V26.6137Z" fill="#1D1D1B"/>
<path d="M87.0571 25.4478H87.2162C87.3004 25.7717 87.4856 26.0669 87.7454 26.2375C88.0156 26.428 88.4396 26.5191 88.782 26.5191C89.5383 26.5191 90.0176 26.1445 90.0176 25.5517C90.0176 24.9379 89.4036 24.6191 88.668 24.2515C88.1207 23.9776 87.0457 23.5255 87.0457 22.4862C87.0457 21.5181 87.784 20.9159 88.965 20.9159C89.7443 20.9159 90.11 21.1063 90.636 21.0819L90.6258 22.2565H90.4653C90.2549 21.5643 89.6263 21.3231 88.9379 21.3231C88.1682 21.3231 87.8802 21.7634 87.8802 22.211C87.8802 22.8519 88.5074 23.175 89.2182 23.492C90.0176 23.848 90.8849 24.2977 90.8849 25.2991C90.8849 26.2471 90.1433 26.9336 88.7879 26.9336C87.9815 26.9336 87.4978 26.7033 87.0738 26.6511L87.0571 25.4478Z" fill="#1D1D1B"/>
<path d="M103.211 24.3897L101.681 21.9342C101.42 21.5032 101.22 21.2759 100.928 21.1683V21.009C101.138 21.009 101.705 21.0341 101.866 21.0341C102.011 21.0341 102.623 21.009 102.843 21.009V21.1683C102.648 21.2028 102.556 21.3009 102.556 21.4485C102.556 21.5787 102.645 21.7462 102.734 21.8918C102.821 22.0361 103.862 23.763 103.862 23.763L104.949 21.8925C105.059 21.7051 105.137 21.5191 105.137 21.3965C105.137 21.2849 105.058 21.1925 104.872 21.1683V21.009C105.056 21.009 105.443 21.0341 105.566 21.0341C105.69 21.0341 106.134 21.009 106.317 21.009V21.1574C105.899 21.3287 105.638 21.6955 105.384 22.1208L103.993 24.4462M104.088 24.153V26.1146C104.088 26.309 104.236 26.5534 104.571 26.6148V26.7754C104.384 26.7754 103.775 26.7497 103.598 26.7497C103.45 26.7497 102.866 26.7754 102.655 26.7754V26.6148C102.991 26.5534 103.152 26.309 103.152 26.1146V24.239" fill="#1D1D1B"/>
<path d="M74.7717 21.0097H78.3607C78.4717 21.0097 78.6661 20.997 78.7769 20.9489H78.9375L78.9124 22.115H78.7533C78.6167 21.7481 78.4749 21.4543 77.7802 21.4543H76.222V23.4865H77.423C77.598 23.4865 77.8103 23.4717 77.9021 23.4499C78.1721 23.3909 78.2909 23.2407 78.3454 23.0106H78.5057C78.4942 23.1862 78.4942 23.5872 78.4942 23.7059C78.4942 23.8252 78.5057 24.2473 78.5057 24.4385H78.3454C78.2683 24.2088 78.1632 24.0343 77.9021 23.9702C77.8103 23.9458 77.5943 23.9259 77.423 23.9259H76.222V26.3097H77.9168C78.6571 26.3097 78.8721 26.0011 79.0561 25.565L79.2146 25.602L79.0561 26.7998C78.5057 26.751 78.1754 26.751 77.5505 26.751H75.7597C75.587 26.751 74.9539 26.7761 74.7698 26.7761V26.6163C75.0931 26.5547 75.2818 26.3949 75.2818 26.0851V21.6763C75.2818 21.4031 75.1348 21.2323 74.7717 21.1715V21.0097Z" fill="#1D1D1B"/>
<path d="M65.6053 21.707C65.6053 21.4113 65.4289 21.2485 65.0831 21.1739V21.0155C65.2756 21.0155 65.8986 21.0398 66.0801 21.0398C66.2321 21.0398 66.8724 21.0155 67.0674 21.0155V21.1739C66.7235 21.2485 66.5431 21.3958 66.5431 21.707V26.0851C66.5431 26.3808 66.7203 26.5418 67.0674 26.6148V26.7754C66.873 26.7754 66.259 26.7503 66.0801 26.7503C65.9254 26.7503 65.2756 26.7754 65.0825 26.7754V26.6148C65.436 26.5489 65.6053 26.3943 65.6053 26.0851V21.707Z" fill="#1D1D1B"/>
<path d="M92.8316 21.707C92.8316 21.4113 92.6532 21.2485 92.3081 21.1739V21.0155C92.5006 21.0155 93.1241 21.0398 93.3042 21.0398C93.4577 21.0398 94.0978 21.0155 94.2922 21.0155V21.1739C93.9485 21.2485 93.7687 21.3958 93.7687 21.707V26.0851C93.7687 26.3808 93.9458 26.5418 94.2922 26.6148V26.7754C94.0991 26.7754 93.4858 26.7503 93.3042 26.7503C93.1523 26.7503 92.5006 26.7754 92.3081 26.7754V26.6148C92.6609 26.5489 92.8316 26.3943 92.8316 26.0851V21.707Z" fill="#1D1D1B"/>
<path d="M97.8193 21.0334C95.8519 21.0334 95.5371 20.9968 95.1348 20.9718L95.1381 22.1599H95.2984C95.4453 21.6332 95.7385 21.5107 96.1183 21.5107H97.3524V26.0851C97.3524 26.3941 97.1831 26.5489 96.829 26.6148V26.7754C97.0233 26.7754 97.6788 26.7503 97.8302 26.7503C98.0105 26.7503 98.6264 26.7754 98.8182 26.7754V26.6148C98.4704 26.5418 98.2942 26.3808 98.2942 26.0851V21.5107H99.5185C99.9124 21.5107 100.194 21.6448 100.341 22.1599H100.499L100.502 20.9718C100.102 20.9968 99.7875 21.0334 97.8193 21.0334Z" fill="#1D1D1B"/>
<path d="M82.1204 26.0849C82.1204 26.3806 82.3083 26.541 82.6554 26.6147V26.7752C82.4629 26.7752 81.8336 26.7501 81.654 26.7501C81.5 26.7501 80.8856 26.7752 80.6919 26.7752V26.6147C81.0139 26.5532 81.2036 26.3941 81.2036 26.0849V21.6621C81.2036 21.3901 81.0556 21.2188 80.6932 21.1572V20.9981C80.8856 20.9981 81.4942 21.0224 81.6662 21.0224C81.948 21.0224 82.7484 20.975 83.0634 20.975C84.4425 20.975 85.2104 21.5453 85.2104 22.5228C85.2104 23.2912 84.6388 23.811 83.7586 24.0232C83.7586 24.0232 83.9595 24.1399 84.1596 24.3728C84.4028 24.6595 85.0595 25.602 85.3321 25.9315C85.6042 26.262 85.9525 26.6308 86.3258 26.6475V26.7764C86.1469 26.8155 85.8601 26.8496 85.6407 26.8496C85.1724 26.8496 84.7986 26.6841 84.4355 26.2448C84.1212 25.8623 83.5882 25.0689 83.2743 24.6679C83.0737 24.4126 82.8305 24.2131 82.3853 24.1399C82.2993 24.1252 82.2179 24.113 82.1204 24.1015V26.0849ZM82.1204 23.7345C82.3039 23.7595 82.5739 23.7711 82.8408 23.7711C83.9204 23.7711 84.2604 23.1502 84.2604 22.6005C84.2604 21.8231 83.7413 21.3413 82.7965 21.3413C82.6009 21.3413 82.3173 21.3657 82.1204 21.4027V23.7345Z" fill="#1D1D1B"/>
<path d="M68.4506 21.7267C68.3249 21.4484 68.1318 21.2444 67.8027 21.172V21.0096C68.0073 21.0096 68.7162 21.0353 68.8719 21.0353C69.0152 21.0353 69.6347 21.0096 69.8453 21.0096V21.1674C69.6584 21.2032 69.4456 21.3066 69.4456 21.4978C69.4456 21.6343 69.5282 21.8205 69.6867 22.1708L71.1724 25.5511L72.5785 22.1649C72.6895 21.8916 72.7697 21.68 72.7697 21.5182C72.7697 21.3394 72.6048 21.2155 72.3712 21.1674V21.0096C72.558 21.0096 73.016 21.0353 73.1584 21.0353C73.2886 21.0353 73.8261 21.0096 74.0314 21.0096V21.172C73.6806 21.2669 73.4668 21.46 73.27 21.9174L71.2006 26.7969H70.7323L68.4506 21.7267Z" fill="#1D1D1B"/>
<path d="M73.7558 6.33731C73.5166 5.80932 73.1496 5.42444 72.5281 5.28656V4.97926C72.9148 4.97926 74.1991 5.02547 74.4942 5.02547C74.7662 5.02547 76.01 4.97926 76.4064 4.97926V5.27886C76.0548 5.34758 75.6507 5.54387 75.6507 5.90623C75.6507 6.16209 75.8098 6.51573 76.1049 7.17827L78.9228 13.5847L81.5894 7.16737C81.7973 6.6478 81.9525 6.25072 81.9525 5.94342C81.9525 5.60213 81.6369 5.37068 81.1949 5.27886V4.97926C81.5477 4.97926 82.4054 5.02547 82.6779 5.02547C82.9257 5.02547 83.9443 4.97926 84.3318 4.97926V5.26927C83.6672 5.44957 83.2606 5.83126 82.8904 6.69778L78.9704 15.9473H78.0832L73.7558 6.33731Z" fill="#1D1D1B"/>
<path d="M35.8113 15.5934C36.3231 15.4766 36.683 15.2439 36.683 14.664V6.18428C36.683 5.62752 36.3481 5.3965 35.8113 5.25673V4.95583C36.0801 4.95583 37.2379 5.00145 37.5195 5.00145C37.8441 5.00145 39.0577 4.95583 39.3246 4.95583V5.25673C38.8133 5.37282 38.4342 5.605 38.4342 6.18428V9.72652H44.7514V6.18428C44.7514 5.605 44.4146 5.37282 43.881 5.25673V4.95583C44.1477 4.95583 45.3397 5.00145 45.6636 5.00145C45.9433 5.00145 47.1281 4.95583 47.3923 4.95583V5.25673C46.8806 5.37282 46.5013 5.605 46.5013 6.18428V14.664C46.5013 15.2208 46.8573 15.4542 47.3923 15.5934V15.8711C47.1281 15.8711 45.9433 15.8481 45.6636 15.8481C45.3397 15.8481 44.1477 15.8711 43.881 15.8711V15.5934C44.3891 15.4766 44.7514 15.2439 44.7514 14.664V10.6565H38.4342V14.664C38.4342 15.2439 38.7896 15.4542 39.3246 15.5934V15.8711C39.0577 15.8711 37.8441 15.8481 37.5195 15.8481C37.2379 15.8481 36.0801 15.8711 35.8113 15.8711V15.5934Z" fill="#1D1D1B"/>
<path d="M108.88 15.5956C109.536 15.4788 109.897 15.2184 109.897 14.62V6.18645C109.897 5.60528 109.541 5.37499 108.907 5.2589V4.958C109.272 4.958 110.46 5.00362 110.789 5.00362C111.321 5.00362 112.802 4.88754 113.956 4.88754C117.842 4.88754 120.201 7.05763 120.201 10.3574C120.201 13.5647 117.746 15.9414 113.739 15.9414C112.584 15.9414 111.214 15.8503 110.678 15.8503C110.352 15.8503 109.244 15.8964 108.88 15.8964V15.5956ZM111.647 15.0368C112.043 15.1087 112.774 15.1536 113.351 15.1536C116.615 15.1536 118.315 13.1888 118.315 10.4485C118.315 7.60741 116.522 5.60848 113.469 5.60848C112.846 5.60848 112.067 5.65526 111.647 5.7234V15.0368Z" fill="#1D1D1B"/>
<path d="M64.8939 14.5902C64.8939 15.1522 65.2499 15.4574 65.9049 15.5966V15.8975C65.5399 15.8975 64.3513 15.8513 64.0094 15.8513C63.7207 15.8513 62.5544 15.8975 62.1902 15.8975V15.5966C62.7982 15.4799 63.1568 15.1771 63.1568 14.5902V6.21708C63.1568 5.70187 62.8784 5.37613 62.1913 5.25989V4.95899C62.5565 4.95899 63.7085 5.00461 64.0318 5.00461C64.5662 5.00461 66.0814 4.91555 66.6792 4.91555C69.2925 4.91555 70.7473 5.99638 70.7473 7.84509C70.7473 9.30252 69.662 10.2832 67.9962 10.688C67.9962 10.688 68.374 10.9081 68.7542 11.3513C69.2155 11.8934 70.4883 13.7152 71.0028 14.3392C71.5171 14.9641 72.1772 15.662 72.8829 15.6941V15.9399C72.5448 16.0129 72.0034 16.0752 71.5896 16.0752C70.6987 16.0752 69.9911 15.7634 69.3028 14.9294C68.7095 14.2059 67.6715 12.6676 67.0768 11.9082C66.6972 11.4244 66.2392 11.0473 65.3982 10.9081C65.2326 10.8798 65.0769 10.858 64.8939 10.8375V14.5902ZM64.8939 10.1429C65.2397 10.1884 65.7509 10.2115 66.2578 10.2115C68.3015 10.2115 68.9435 9.03504 68.9435 7.99576C68.9435 6.51987 67.9608 5.60947 66.1705 5.60947C65.8016 5.60947 65.2641 5.6564 64.8939 5.7244V10.1429Z" fill="#1D1D1B"/>
<path d="M99.3393 14.5902C99.3393 15.1522 99.6966 15.4574 100.352 15.5966V15.8975C99.9879 15.8975 98.8004 15.8513 98.4585 15.8513C98.1648 15.8513 97.0024 15.8975 96.6367 15.8975V15.5966C97.2436 15.4799 97.6029 15.1771 97.6029 14.5902V6.21708C97.6029 5.70187 97.3219 5.37613 96.6388 5.25989V4.95899C97.005 4.95899 98.1533 5.00461 98.4792 5.00461C99.0147 5.00461 100.529 4.91555 101.123 4.91555C103.741 4.91555 105.191 5.99638 105.191 7.84509C105.191 9.30252 104.109 10.2832 102.442 10.688C102.442 10.688 102.821 10.9081 103.198 11.3513C103.664 11.8934 104.937 13.7152 105.449 14.3392C105.966 14.9641 106.626 15.662 107.328 15.6941V15.9399C106.994 16.0129 106.45 16.0752 106.04 16.0752C105.147 16.0752 104.436 15.7634 103.75 14.9294C103.157 14.2059 102.122 12.6676 101.522 11.9082C101.142 11.4244 100.686 11.0473 99.8467 10.9081C99.6787 10.8798 99.5246 10.858 99.3393 10.8375V14.5902ZM99.3393 10.1429C99.6895 10.1884 100.198 10.2115 100.705 10.2115C102.749 10.2115 103.39 9.03504 103.39 7.99576C103.39 6.51987 102.406 5.60947 100.619 5.60947C100.247 5.60947 99.712 5.6564 99.3393 5.7244V10.1429Z" fill="#1D1D1B"/>
<path d="M49.0538 15.5936C49.7453 15.432 50.125 14.9843 50.3771 14.3851L53.8758 5.96709C54.0246 5.61883 54.1977 4.90282 54.1977 4.90282H55.1767C55.1767 4.90282 55.3518 5.62071 55.4974 5.96971L59.1948 14.4082C59.4585 14.9893 59.7439 15.4089 60.479 15.5936L60.4772 15.874C60.0769 15.874 58.8324 15.8509 58.5494 15.8509C58.2678 15.8509 57.0792 15.874 56.6796 15.874L56.6809 15.5936C57.2191 15.4615 57.3891 15.1877 57.3891 14.9226C57.3891 14.6976 57.2961 14.4435 57.1832 14.1799L56.3883 12.3669H52.3143L51.5864 14.1901C51.5049 14.3967 51.408 14.6886 51.408 14.8855C51.408 15.1895 51.5671 15.432 52.1777 15.5936L52.1764 15.874C51.8147 15.874 50.8595 15.8509 50.6358 15.8509L49.0532 15.874L49.0538 15.5936ZM56.0196 11.5074L54.2798 7.45402L52.6595 11.5074H56.0196Z" fill="#1D1D1B"/>
<path d="M83.7144 15.5936C84.4055 15.432 84.7864 14.9843 85.0372 14.3851L88.537 5.96709C88.6859 5.61883 88.861 4.90282 88.861 4.90282H89.8398C89.8398 4.90282 90.0132 5.62071 90.1582 5.96971L93.8569 14.4082C94.1184 14.9893 94.4065 15.4089 95.1385 15.5936L95.1372 15.874C94.7382 15.874 93.4925 15.8509 93.2076 15.8509C92.9286 15.8509 91.7406 15.874 91.3403 15.874V15.5936C91.8818 15.4615 92.0492 15.1877 92.0492 14.9226C92.0492 14.6976 91.9573 14.4435 91.8465 14.1799L91.0485 12.3669H86.9744L86.2457 14.1901C86.1642 14.3967 86.068 14.6886 86.068 14.8855C86.068 15.1895 86.2271 15.432 86.8378 15.5936V15.874C86.4747 15.874 85.521 15.8509 85.2958 15.8509L83.7131 15.874L83.7144 15.5936ZM90.6802 11.5074L88.9393 7.45402L87.3202 11.5074H90.6802Z" fill="#1D1D1B"/>
<path d="M3.50977 1.55519H27.9037V10.7699C27.9037 14.992 26.3321 23.9457 15.7978 30.6094C15.7978 30.6094 4.38341 25.8425 3.50977 10.7699L3.50977 1.55519Z" fill="#A81D28"/>
<path d="M3.46021 1.52813H27.8778V10.7493C27.8778 14.9728 26.3043 23.9314 15.7604 30.5996C15.7604 30.5996 4.33516 25.8296 3.46021 10.7493L3.46021 1.52813Z" stroke="#12110C" stroke-width="0.338391"/>
<path d="M21.9734 13.3948C21.9734 13.3948 21.7559 14.0881 20.7886 13.3754L17.4677 13.2952C17.4677 13.2952 17.0328 13.4352 16.9737 12.9802C16.9737 12.9802 17.0533 12.0714 17.0129 11.9918C17.0129 11.9918 17.0328 11.7352 16.5965 11.7352C16.5965 11.7352 15.9256 11.8141 15.9056 11.2202C15.9056 11.2202 15.7884 10.5877 16.7165 10.6088C16.7165 10.6088 17.0129 10.7467 17.0328 10.3702C17.0328 10.3702 16.9937 7.79983 17.0129 7.60354C17.0129 7.60354 17.0924 7.36744 16.6369 7.32705C16.6369 7.32705 15.9853 7.46493 15.9056 7.03137C15.9056 7.03137 15.8666 6.37901 16.3022 6.33862C16.3022 6.33862 16.8352 6.37901 16.9339 6.23982C16.9339 6.23982 17.0533 6.31799 17.0328 5.84593L17.0533 5.03374C17.0533 5.03374 17.1104 4.81697 17.4472 4.83818C17.4472 4.83818 18.0603 4.87726 18.1405 4.81697C18.1405 4.81697 18.2773 4.64 18.3177 4.55965C18.3177 4.55965 18.6345 4.54048 18.6929 4.61995C18.6929 4.61995 19.1676 4.93625 20.9662 4.81697C20.9662 4.81697 21.2434 4.81697 21.3011 4.89659C21.3011 4.89659 21.6385 5.15303 21.8355 4.87726C21.8355 4.87726 22.1319 4.81697 23.0209 4.83818C23.0209 4.83818 23.9908 5.09404 24.6611 4.54048L24.8792 4.58029C24.8792 4.58029 25.1557 5.03374 25.3533 4.89659C25.3533 4.89659 25.9467 4.83818 26.0448 4.95616C26.0448 4.95616 26.2418 5.25067 26.1436 6.02421C26.1436 6.02421 26.0263 6.35911 26.599 6.35911C26.599 6.35911 27.2521 6.23982 27.1718 6.85237C27.1718 6.85237 27.3495 7.54455 26.2636 7.44633C26.2636 7.44633 26.1244 7.64393 26.1436 7.78254C26.1436 7.78254 26.1244 10.0347 26.1045 10.2932C26.1045 10.2932 26.0851 10.6493 26.5587 10.6287C26.5587 10.6287 27.1918 10.5877 27.2129 11.1618C27.2129 11.1618 27.2912 11.9129 26.381 11.7737C26.381 11.7737 26.1045 11.8141 26.0634 11.9918L26.0263 12.9802C26.0263 12.9802 26.0448 13.4742 25.4925 13.355C25.4136 13.355 22.4095 13.416 22.1518 13.3371C22.1518 13.3371 22.0119 13.3172 21.9734 13.3948Z" fill="white"/>
<path d="M15.589 16.6996C15.589 16.6996 15.7276 16.6412 15.7667 16.5437C15.7667 16.5437 16.1824 16.5032 16.2406 16.4444L17.5461 16.5437C17.5461 16.5437 18.8303 16.6412 19.3839 16.2441C19.3839 16.2441 19.5828 16.2441 19.7212 16.3044C19.7212 16.3044 19.9964 16.3647 20.0753 16.4816L20.8272 16.4616C20.8272 16.4616 21.2621 16.6014 21.2217 16.8785V17.2333C21.2217 17.2333 21.1422 17.9454 21.3398 17.9858H21.9144C21.9144 17.9858 22.3893 18.2027 22.3295 18.479C22.3295 18.479 22.3495 18.8729 21.9351 18.9531C21.9351 18.9531 21.5181 19.0711 21.3814 19.0525C21.3814 19.0525 21.2422 19.2296 21.2217 19.447L21.164 22.0367C21.164 22.0367 21.1236 22.3132 21.5393 22.2739C21.5393 22.2739 22.1505 22.2144 22.3295 22.5517C22.3295 22.5517 22.4879 23.1239 22.1718 23.2227L21.9351 23.3401L21.4199 23.4223C21.4199 23.4223 21.2038 23.4402 21.1832 23.8155V24.5062C21.1832 24.5062 21.2038 24.9823 20.8272 24.9823L20.2737 25.022C20.2737 25.022 20.1356 25.1388 19.8593 25.0599C19.8593 25.0599 16.4985 25.1208 16.3798 25.0806L15.9842 25.1606C15.9842 25.1606 15.5497 25.5558 15.1938 25.2581L14.9173 25.0406C14.9173 25.0406 14.7191 25.0806 14.6415 25.0599C14.562 25.0406 10.9248 25.1003 10.9248 25.1003C10.9248 25.1003 10.1537 25.1805 10.0953 24.922C10.0953 24.922 9.99666 23.9149 10.0357 23.7943C10.0357 23.7943 10.0357 23.4992 9.85805 23.48C9.85805 23.48 9.08698 23.4402 9.06708 23.36C9.06708 23.36 8.6514 23.0651 8.7701 22.7691C8.7701 22.7691 8.90929 22.3722 9.32366 22.3329C9.32366 22.3329 9.95612 22.433 9.95612 22.2548C9.95612 22.2548 9.99666 22.1361 9.99666 21.9392C9.99666 21.9392 10.0357 19.5856 10.0158 19.4278C10.0158 19.4278 10.0748 19.1314 9.81766 19.1314C9.81766 19.1314 9.54117 19.2097 9.36406 19.0917C9.36406 19.0917 8.88938 19.1116 8.79059 18.7356C8.79059 18.7356 8.71111 18.4989 8.82909 18.2995C8.82909 18.2995 9.04732 17.8652 9.67978 18.0042C9.67978 18.0042 10.0357 18.1037 10.0748 17.8477L10.0562 16.8971C10.0562 16.8971 9.97603 16.6412 10.4706 16.5032C10.4706 16.5032 11.1031 16.6803 11.3001 16.3647C11.3001 16.3647 11.5182 15.9284 11.694 16.225C11.694 16.225 12.0712 16.5817 13.0988 16.5437C13.0988 16.5437 14.8782 16.404 14.9173 16.4816C14.9173 16.4816 15.3523 16.5437 15.4703 16.6803L15.589 16.6996Z" fill="white"/>
<path d="M10.2155 13.3949C10.2155 13.3949 9.99744 14.0883 9.02891 13.375L5.70854 13.2954C5.70854 13.2954 5.27368 13.4353 5.21396 12.98C5.21396 12.98 5.29358 12.0716 5.25246 11.992C5.25246 11.992 5.27368 11.7341 4.83809 11.7341C4.83809 11.7341 4.16713 11.8149 4.1478 11.2216C4.1478 11.2216 4.02852 10.5871 4.95738 10.6089C4.95738 10.6089 5.25246 10.7468 5.27368 10.3711C5.27368 10.3711 5.23387 7.80189 5.25246 7.60313C5.25246 7.60313 5.33325 7.36833 4.87848 7.3278C4.87848 7.3278 4.22539 7.4651 4.1478 7.03024C4.1478 7.03024 4.10741 6.37918 4.54169 6.33879C4.54169 6.33879 5.0755 6.37918 5.17488 6.24246C5.17488 6.24246 5.29358 6.31888 5.27368 5.84407L5.29358 5.03464C5.29358 5.03464 5.35315 4.81714 5.68733 4.83704C5.68733 4.83704 6.30191 4.87613 6.38139 4.81714C6.38139 4.81714 6.51942 4.64017 6.55719 4.55982C6.55719 4.55982 6.87538 4.54123 6.93437 4.61823C6.93437 4.61823 7.40774 4.93642 9.20835 4.81714C9.20835 4.81714 9.48353 4.81714 9.54325 4.89676C9.54325 4.89676 9.87873 5.1532 10.0763 4.87613C10.0763 4.87613 10.3727 4.81714 11.2629 4.83704C11.2629 4.83704 12.2297 5.09363 12.9027 4.54123L13.1195 4.58176C13.1195 4.58176 13.396 5.03464 13.5955 4.89676C13.5955 4.89676 14.1875 4.83704 14.2869 4.95633C14.2869 4.95633 14.4851 5.25272 14.3844 6.02437C14.3844 6.02437 14.267 6.35986 14.8399 6.35986C14.8399 6.35986 15.4915 6.24246 15.4134 6.85254C15.4134 6.85254 15.5916 7.54472 14.5044 7.4465C14.5044 7.4465 14.3652 7.64468 14.3844 7.78271C14.3844 7.78271 14.3652 10.0349 14.3459 10.2934C14.3459 10.2934 14.3267 10.6469 14.8008 10.6288C14.8008 10.6288 15.4333 10.5871 15.4525 11.1627C15.4525 11.1627 15.5313 11.9131 14.623 11.7739C14.623 11.7739 14.3459 11.8149 14.3055 11.992L14.267 12.98C14.267 12.98 14.2869 13.4744 13.732 13.3564C13.6531 13.3564 10.6505 13.4148 10.3925 13.3372C10.3925 13.3372 10.2546 13.3173 10.2155 13.3949Z" fill="white"/>
<path d="M21.9734 13.3948C21.9734 13.3948 21.7559 14.0881 20.7886 13.3754L17.4677 13.2952C17.4677 13.2952 17.0328 13.4352 16.9737 12.9802C16.9737 12.9802 17.0533 12.0714 17.0129 11.9918C17.0129 11.9918 17.0328 11.7352 16.5965 11.7352C16.5965 11.7352 15.9256 11.8141 15.9056 11.2202C15.9056 11.2202 15.7884 10.5877 16.7165 10.6088C16.7165 10.6088 17.0129 10.7467 17.0328 10.3702C17.0328 10.3702 16.9937 7.79983 17.0129 7.60354C17.0129 7.60354 17.0924 7.36744 16.6369 7.32705C16.6369 7.32705 15.9853 7.46493 15.9056 7.03137C15.9056 7.03137 15.8666 6.37901 16.3022 6.33862C16.3022 6.33862 16.8352 6.37901 16.9339 6.23982C16.9339 6.23982 17.0533 6.31799 17.0328 5.84593L17.0533 5.03374C17.0533 5.03374 17.1104 4.81697 17.4472 4.83818C17.4472 4.83818 18.0603 4.87726 18.1405 4.81697C18.1405 4.81697 18.2773 4.64 18.3177 4.55965C18.3177 4.55965 18.6345 4.54048 18.6929 4.61995C18.6929 4.61995 19.1676 4.93625 20.9662 4.81697C20.9662 4.81697 21.2434 4.81697 21.3011 4.89659C21.3011 4.89659 21.6385 5.15303 21.8355 4.87726C21.8355 4.87726 22.1319 4.81697 23.0209 4.83818C23.0209 4.83818 23.9908 5.09404 24.6611 4.54048L24.8792 4.58029C24.8792 4.58029 25.1557 5.03374 25.3533 4.89659C25.3533 4.89659 25.9467 4.83818 26.0448 4.95616C26.0448 4.95616 26.2418 5.25067 26.1436 6.02421C26.1436 6.02421 26.0263 6.35911 26.599 6.35911C26.599 6.35911 27.2521 6.23982 27.1718 6.85237C27.1718 6.85237 27.3495 7.54455 26.2636 7.44633C26.2636 7.44633 26.1244 7.64393 26.1436 7.78254C26.1436 7.78254 26.1244 10.0347 26.1045 10.2932C26.1045 10.2932 26.0851 10.6493 26.5587 10.6287C26.5587 10.6287 27.1918 10.5877 27.2129 11.1618C27.2129 11.1618 27.2912 11.9129 26.381 11.7737C26.381 11.7737 26.1045 11.8141 26.0634 11.9918L26.0263 12.9802C26.0263 12.9802 26.0448 13.4742 25.4925 13.355C25.4136 13.355 22.4095 13.416 22.1518 13.3371C22.1518 13.3371 22.0119 13.3172 21.9734 13.3948Z" fill="#12110C"/>
<path d="M21.9737 13.3947C21.9737 13.3947 21.7562 14.0881 20.789 13.3755L17.4673 13.2953C17.4673 13.2953 17.0325 13.435 16.9735 12.9797C16.9735 12.9797 17.0537 12.0707 17.0126 11.9911C17.0126 11.9911 17.0325 11.7345 16.5969 11.7345C16.5969 11.7345 15.9253 11.8142 15.9054 11.2201C15.9054 11.2201 15.788 10.5876 16.7162 10.6081C16.7162 10.6081 17.0126 10.7461 17.0325 10.3702C17.0325 10.3702 16.9934 7.79972 17.0126 7.60285C17.0126 7.60285 17.0928 7.36617 16.6373 7.32636C16.6373 7.32636 15.9849 7.46439 15.9054 7.03069C15.9054 7.03069 15.8669 6.3776 16.3018 6.33793C16.3018 6.33793 16.8349 6.3776 16.9338 6.23913C16.9338 6.23913 17.0537 6.3173 17.0325 5.84452L17.0537 5.03248C17.0537 5.03248 17.11 4.8157 17.4481 4.83691C17.4481 4.83691 18.0607 4.876 18.1403 4.8157C18.1403 4.8157 18.277 4.63932 18.318 4.55897C18.318 4.55897 18.6343 4.53921 18.6933 4.61883C18.6933 4.61883 19.1674 4.93499 20.9665 4.8157C20.9665 4.8157 21.2438 4.8157 21.3014 4.89518C21.3014 4.89518 21.6388 5.15176 21.8358 4.876C21.8358 4.876 22.1322 4.8157 23.0213 4.83691C23.0213 4.83691 23.9911 5.09277 24.6621 4.53921L24.8803 4.57829C24.8803 4.57829 25.1566 5.03248 25.3537 4.89518C25.3537 4.89518 25.947 4.83691 26.0451 4.95417C26.0451 4.95417 26.2427 5.24998 26.1446 6.02221C26.1446 6.02221 26.0267 6.35842 26.6 6.35842C26.6 6.35842 27.2525 6.23913 27.1721 6.85111C27.1721 6.85111 27.3498 7.54386 26.2639 7.44506C26.2639 7.44506 26.1253 7.64266 26.1446 7.78185C26.1446 7.78185 26.1253 10.034 26.1054 10.2919C26.1054 10.2919 26.0855 10.6479 26.5596 10.6287C26.5596 10.6287 27.1934 10.5876 27.2138 11.1611C27.2138 11.1611 27.2916 11.9122 26.3819 11.773C26.3819 11.773 26.1054 11.8142 26.0644 11.9911L26.0267 12.9797C26.0267 12.9797 26.0451 13.4743 25.4936 13.355C25.4147 13.355 22.4099 13.4153 22.1521 13.3364C22.1521 13.3364 22.0122 13.3171 21.9737 13.3947Z" stroke="#12110C" stroke-width="0.0147126"/>
<path d="M18.2383 5.25063C18.2383 5.25063 18.2774 5.6464 18.2774 5.74651C18.2774 5.84458 18.2191 11.4575 18.2191 11.4575C18.2191 11.4575 18.2774 11.8924 17.9034 12.1105C17.9034 12.1105 17.8033 12.149 17.7847 11.8725L17.8233 5.94469C17.8233 5.94469 17.863 5.2114 18.2383 5.25063Z" fill="white"/>
<path d="M18.2392 5.24995C18.2392 5.24995 18.2777 5.64573 18.2777 5.74584C18.2777 5.84449 18.22 11.4582 18.22 11.4582C18.22 11.4582 18.2777 11.893 17.9037 12.1104C17.9037 12.1104 17.8036 12.1496 17.7837 11.8731L17.8235 5.94402C17.8235 5.94402 17.8626 5.21073 18.2392 5.24995Z" stroke="#12110C" stroke-width="0.0176552"/>
<path d="M17.5863 12.1675C17.5863 12.1675 17.6255 6.59378 17.6069 6.49499C17.5863 6.39749 17.6255 6.57577 17.6255 6.57577C17.6255 6.57577 17.5664 5.60579 17.8237 5.20943C17.8237 5.20943 17.7435 4.87526 17.2893 5.28964L17.2694 6.09906C17.2694 6.09906 17.2694 6.55455 16.8551 6.53465C16.8551 6.53465 16.3804 6.51416 16.1629 6.73167C16.1629 6.73167 16.0443 7.16711 16.4984 7.08894C16.4984 7.08894 17.2104 7.08894 17.2503 7.3833L17.2104 10.3688C17.2104 10.3688 17.3688 10.8652 16.816 10.8652C16.816 10.8652 16.1418 10.823 16.1629 11.2381C16.1629 11.2381 16.3021 11.5933 16.875 11.4759C16.875 11.4759 17.2893 11.5535 17.2694 11.9506V12.7012C17.2694 12.7012 17.2296 12.9995 17.6255 13.018H20.7089C20.7089 13.018 20.8662 13.0372 20.8662 12.8396C20.8662 12.8396 20.847 12.682 20.6101 12.682L18.0411 12.6422C18.0411 12.6422 17.6255 12.7814 17.5863 12.1675Z" fill="white"/>
<path d="M18.1801 12.1603C18.1801 12.1603 18.1006 12.4368 18.3969 12.379H20.433L20.9853 12.499C20.9853 12.499 21.5582 12.3593 20.9853 12.0435C20.9853 12.0435 19.1674 12.0615 19.0096 12.023C19.0096 12.023 18.6337 11.9248 18.5528 11.9051C18.5528 11.9051 18.3572 11.8262 18.1801 12.1603Z" fill="white"/>
<path d="M18.1789 12.1607C18.1789 12.1607 18.0994 12.4378 18.3957 12.3801H20.4324L20.9848 12.5C20.9848 12.5 21.5581 12.3596 20.9848 12.0433C20.9848 12.0433 19.1667 12.0612 19.0082 12.0234C19.0082 12.0234 18.6325 11.9246 18.5523 11.9047C18.5523 11.9047 18.356 11.8258 18.1789 12.1607Z" stroke="#12110C" stroke-width="0.0176552"/>
<path d="M21.5586 12.4395C21.5586 12.4395 21.1833 12.4395 21.2026 12.9346C21.2026 12.9346 21.2423 13.3086 21.6375 13.3086C21.6375 13.3086 21.9921 13.2503 21.9544 12.8551C21.9544 12.8551 21.7363 12.3611 21.5586 12.4395Z" fill="white"/>
<path d="M21.8351 12.2402C21.8351 12.2402 22.0127 12.0433 22.132 12.0433C22.132 12.0433 24.1085 12.2203 24.442 11.9836C24.442 11.9836 24.7403 11.9246 24.8198 11.9836C24.8198 11.9836 25.1156 12.2203 25.1156 12.3589C25.1156 12.3589 25.0963 12.5378 24.7403 12.4365C24.7403 12.4365 22.5067 12.4583 22.388 12.4583C22.388 12.4583 21.7742 12.5956 21.8351 12.2402Z" fill="white"/>
<path d="M21.8346 12.2397C21.8346 12.2397 22.0123 12.0421 22.1315 12.0421C22.1315 12.0421 24.1085 12.2192 24.4429 11.9824C24.4429 11.9824 24.741 11.9234 24.8206 11.9824C24.8206 11.9824 25.1163 12.2192 25.1163 12.359C25.1163 12.359 25.0971 12.538 24.741 12.4365C24.741 12.4365 22.5063 12.4583 22.3876 12.4583C22.3876 12.4583 21.7737 12.5956 21.8346 12.2397Z" stroke="#12110C" stroke-width="0.0176552"/>
<path d="M22.092 12.8821C22.092 12.8821 22.092 12.7223 22.3691 12.7223L25.1352 12.7031C25.1352 12.7031 25.3931 12.8417 25.3931 12.3682C25.3931 12.3682 25.4944 10.2137 25.5034 7.84148C25.5066 7.13521 25.5387 6.39436 25.5137 5.70785C25.5137 5.70785 25.4521 5.41087 25.3726 5.35058C25.3726 5.35058 25.3726 5.035 25.7092 5.1537C25.7092 5.1537 26.0056 5.17361 25.9268 5.62968L25.9472 6.31852C25.9472 6.31852 25.8877 6.6168 26.42 6.53675C26.42 6.53675 26.9531 6.6168 26.9743 6.81309C26.9743 6.81309 27.1321 7.21018 26.5008 7.16979H26.0441C26.0441 7.16979 25.8473 7.28791 25.9063 7.5259L25.8473 10.3925C25.8473 10.3925 25.8075 10.8858 26.2821 10.8672C26.2821 10.8672 26.7754 10.8467 26.8748 11.0052C26.8748 11.0052 27.2129 11.4991 26.4803 11.4594C26.4803 11.4594 26.0256 11.4388 25.9268 11.519C25.9268 11.519 25.8473 11.6171 25.7881 12.5472C25.7881 12.5472 25.8285 13.1008 25.4129 13.0399C25.4129 13.0399 22.6649 13.079 22.4083 13.0207C22.4083 13.0207 22.1319 13.1008 22.092 12.8821Z" fill="white"/>
<path d="M18.5349 5.07245L18.4752 11.4191C18.4752 11.4191 18.456 11.7136 18.95 11.7732C18.95 11.7732 19.5228 11.8322 19.6601 11.7732C19.6601 11.7732 20.038 11.7527 21.0046 11.7931C21.0046 11.7931 21.2432 12.0324 21.2631 11.7335C21.2631 11.7335 21.4196 6.59657 21.3427 5.52663C21.3427 5.52663 21.3209 5.07245 20.986 5.05254C20.986 5.05254 19.4837 5.17386 19.3452 5.05254L18.7518 4.89606C18.7518 4.89606 18.5144 4.91524 18.5349 5.07245Z" fill="white"/>
<path d="M21.6573 5.3896C21.6573 5.3896 21.5983 8.37435 21.6181 8.47315L21.579 10.9826L21.4988 11.8531C21.4988 11.8531 21.6181 12.0306 21.717 11.9127C21.717 11.9127 22.3495 11.7523 22.7445 11.8146C22.7445 11.8146 24.0109 11.932 24.2668 11.7331C24.2668 11.7331 24.4649 11.8319 24.5228 11.5156C24.5228 11.5156 24.6009 5.98297 24.5645 5.88417C24.5645 5.88417 24.6407 5.09131 24.6009 5.01431C24.6009 5.01431 24.5836 4.83661 24.2468 4.99382C24.2468 4.99382 24.2853 5.15292 22.409 5.09131C22.409 5.09131 21.6977 5.07199 21.6573 5.3896Z" fill="white"/>
<path d="M24.8007 5.31048L24.7815 11.5552C24.7815 11.5552 24.9393 12.1106 25.1959 12.0524C25.1959 12.0524 25.2344 11.9323 25.2536 11.7347L25.3338 5.78457C25.3338 5.78457 25.1348 4.8377 24.8007 5.31048Z" fill="white"/>
<path d="M24.7999 5.31111L24.7808 11.5571C24.7808 11.5571 24.9391 12.1127 25.1957 12.0543C25.1957 12.0543 25.2349 11.9343 25.2541 11.7367L25.3336 5.7852C25.3336 5.7852 25.1348 4.83833 24.7999 5.31111Z" stroke="#12110C" stroke-width="0.0176552"/>
<path d="M22.3741 7.1815C22.3151 7.02371 22.7102 7.0038 22.7102 7.0038L22.9085 7.04289C23.0471 7.02371 23.1856 7.08328 23.1856 7.08328C23.3236 7.3002 23.0862 7.41818 23.0862 7.41818L23.0073 7.67607C22.9868 7.89416 23.0073 9.77177 23.0073 9.77177C23.0471 9.86927 23.2049 10.0464 23.2049 10.0464C23.2049 10.2252 22.9868 10.1861 22.9868 10.1861L22.4145 10.2061C22.2363 10.1861 22.2952 9.98783 22.2952 9.98783C22.4928 9.88917 22.5526 9.53248 22.5526 9.53248V7.57669L22.3741 7.1815Z" fill="#12110C"/>
<path d="M19.7062 9.01988L19.6671 9.63244L19.8435 9.92825C19.9635 10.086 19.7652 10.2061 19.7652 10.2061L19.1327 10.1469C19.0153 10.086 19.1327 9.88903 19.1327 9.88903C19.2913 9.79168 19.311 9.53306 19.311 9.53306L19.2913 8.38684L19.311 7.55679C19.311 7.45726 19.1532 7.28088 19.1532 7.28088C19.0153 7.26097 19.0544 7.08328 19.0544 7.08328C19.0937 6.9839 19.4284 7.04289 19.4284 7.04289H20.2598C21.0508 7.3002 20.9321 7.87352 20.9321 7.87352C20.9918 8.44583 20.3791 8.6844 20.3791 8.6844L20.3381 9.00071L20.9121 9.90835C21.0109 9.98782 20.9918 10.068 20.9918 10.068C20.9121 10.2855 20.5953 10.068 20.5953 10.068L19.8846 8.96031C19.8249 8.88069 19.7062 9.01988 19.7062 9.01988ZM19.7261 7.45726C19.7453 7.89343 19.7453 8.48622 19.7453 8.48622C20.1219 8.7832 20.3381 8.36694 20.3381 8.36694C20.8314 7.89343 20.3381 7.45726 20.2598 7.33986C20.1796 7.22058 19.7845 7.31938 19.7845 7.31938L19.7261 7.45726Z" fill="#12110C"/>
<path d="M15.589 16.6996C15.589 16.6996 15.7276 16.6412 15.7667 16.5437C15.7667 16.5437 16.1824 16.5032 16.2406 16.4444L17.5461 16.5437C17.5461 16.5437 18.8303 16.6412 19.3839 16.2441C19.3839 16.2441 19.5828 16.2441 19.7212 16.3044C19.7212 16.3044 19.9964 16.3647 20.0753 16.4816L20.8272 16.4616C20.8272 16.4616 21.2621 16.6014 21.2217 16.8785V17.2333C21.2217 17.2333 21.1422 17.9454 21.3398 17.9858H21.9144C21.9144 17.9858 22.3893 18.2027 22.3295 18.479C22.3295 18.479 22.3495 18.8729 21.9351 18.9531C21.9351 18.9531 21.5181 19.0711 21.3814 19.0525C21.3814 19.0525 21.2422 19.2296 21.2217 19.447L21.164 22.0367C21.164 22.0367 21.1236 22.3132 21.5393 22.2739C21.5393 22.2739 22.1505 22.2144 22.3295 22.5517C22.3295 22.5517 22.4879 23.1239 22.1718 23.2227L21.9351 23.3401L21.4199 23.4223C21.4199 23.4223 21.2038 23.4402 21.1832 23.8155V24.5062C21.1832 24.5062 21.2038 24.9823 20.8272 24.9823L20.2737 25.022C20.2737 25.022 20.1356 25.1388 19.8593 25.0599C19.8593 25.0599 16.4985 25.1208 16.3798 25.0806L15.9842 25.1606C15.9842 25.1606 15.5497 25.5558 15.1938 25.2581L14.9173 25.0406C14.9173 25.0406 14.7191 25.0806 14.6415 25.0599C14.562 25.0406 10.9248 25.1003 10.9248 25.1003C10.9248 25.1003 10.1537 25.1805 10.0953 24.922C10.0953 24.922 9.99666 23.9149 10.0357 23.7943C10.0357 23.7943 10.0357 23.4992 9.85805 23.48C9.85805 23.48 9.08698 23.4402 9.06708 23.36C9.06708 23.36 8.6514 23.0651 8.7701 22.7691C8.7701 22.7691 8.90929 22.3722 9.32366 22.3329C9.32366 22.3329 9.95612 22.433 9.95612 22.2548C9.95612 22.2548 9.99666 22.1361 9.99666 21.9392C9.99666 21.9392 10.0357 19.5856 10.0158 19.4278C10.0158 19.4278 10.0748 19.1314 9.81766 19.1314C9.81766 19.1314 9.54117 19.2097 9.36406 19.0917C9.36406 19.0917 8.88938 19.1116 8.79059 18.7356C8.79059 18.7356 8.71111 18.4989 8.82909 18.2995C8.82909 18.2995 9.04732 17.8652 9.67978 18.0042C9.67978 18.0042 10.0357 18.1037 10.0748 17.8477L10.0562 16.8971C10.0562 16.8971 9.97603 16.6412 10.4706 16.5032C10.4706 16.5032 11.1031 16.6803 11.3001 16.3647C11.3001 16.3647 11.5182 15.9284 11.694 16.225C11.694 16.225 12.0712 16.5817 13.0988 16.5437C13.0988 16.5437 14.8782 16.404 14.9173 16.4816C14.9173 16.4816 15.3523 16.5437 15.4703 16.6803L15.589 16.6996Z" fill="#12110C"/>
<path d="M15.589 16.674C15.589 16.674 15.7261 16.6163 15.7666 16.5175C15.7666 16.5175 16.1816 16.4771 16.2406 16.418L17.5455 16.5175C17.5455 16.5175 18.8303 16.6163 19.3839 16.2192C19.3839 16.2192 19.5828 16.2192 19.7212 16.2795C19.7212 16.2795 19.9971 16.3391 20.0747 16.4559L20.8278 16.4366C20.8278 16.4366 21.2621 16.5765 21.2217 16.8528V17.2084C21.2217 17.2084 21.1428 17.9203 21.3404 17.9595H21.9144C21.9144 17.9595 22.3885 18.1776 22.3301 18.4541C22.3301 18.4541 22.35 18.848 21.935 18.9282C21.935 18.9282 21.5188 19.0462 21.3821 19.0269C21.3821 19.0269 21.2429 19.2046 21.2217 19.4221L21.1633 22.0123C21.1633 22.0123 21.1236 22.2875 21.5385 22.249C21.5385 22.249 22.1505 22.1908 22.3301 22.5261C22.3301 22.5261 22.4886 23.099 22.1723 23.1984L21.935 23.3165L21.4198 23.3967C21.4198 23.3967 21.2031 23.4159 21.1839 23.7899V24.4833C21.1839 24.4833 21.2031 24.9573 20.8278 24.9573L20.2742 24.9971C20.2742 24.9971 20.1356 25.1152 19.8593 25.0363C19.8593 25.0363 16.4985 25.0959 16.3798 25.0549L15.9834 25.135C15.9834 25.135 15.5497 25.5307 15.1938 25.2325L14.9167 25.015C14.9167 25.015 14.7191 25.0549 14.6409 25.0363C14.5613 25.015 10.9248 25.076 10.9248 25.076C10.9248 25.076 10.1531 25.1556 10.0941 24.8977C10.0941 24.8977 9.99591 23.8892 10.035 23.7699C10.035 23.7699 10.035 23.4749 9.85672 23.455C9.85672 23.455 9.08637 23.4159 9.06589 23.3362C9.06589 23.3362 8.65079 23.0394 8.76934 22.7436C8.76934 22.7436 8.90853 22.3472 9.32364 22.3073C9.32364 22.3073 9.95551 22.4088 9.95551 22.2284C9.95551 22.2284 9.99591 22.1104 9.99591 21.9141C9.99591 21.9141 10.035 19.5607 10.0158 19.4027C10.0158 19.4027 10.0748 19.1052 9.8169 19.1052C9.8169 19.1052 9.54056 19.1841 9.36272 19.0667C9.36272 19.0667 8.88878 19.086 8.78998 18.7107C8.78998 18.7107 8.70977 18.474 8.82906 18.2751C8.82906 18.2751 9.04598 17.8401 9.67902 17.9787C9.67902 17.9787 10.035 18.0788 10.0748 17.8222L10.0549 16.8722C10.0549 16.8722 9.97542 16.6163 10.47 16.4771C10.47 16.4771 11.1025 16.6554 11.3001 16.3391C11.3001 16.3391 11.5168 15.9037 11.6939 16.1987C11.6939 16.1987 12.0711 16.5554 13.0981 16.5175C13.0981 16.5175 14.8782 16.3776 14.9167 16.4559C14.9167 16.4559 15.3523 16.5175 15.4702 16.6554L15.589 16.674Z" stroke="#12110C" stroke-width="0.0147126"/>
<path d="M16.1027 24.4659C16.1027 24.4659 16.3407 24.3459 16.4992 24.387C16.6576 24.4263 18.9695 24.3677 18.9695 24.3677C18.9695 24.3677 19.9772 24.446 20.1363 24.3061L20.3717 24.2279C20.3717 24.2279 20.4711 24.11 20.4711 23.9528C20.4711 23.7931 20.491 23.2593 20.491 23.2593L20.5513 23.0631C20.5513 23.0631 20.5308 22.8654 20.5513 17.5867C20.5513 17.5867 20.6289 17.1737 20.3717 16.9152C20.3717 16.9152 20.3717 16.7586 20.4506 16.7773C20.5308 16.7985 20.491 16.7985 20.491 16.7985C20.491 16.7985 20.8464 16.6977 20.9048 16.8362C20.9048 16.8362 21.0645 17.3089 20.9253 17.5867C20.9253 17.5867 20.8855 18.1608 21.1845 18.1608C21.1845 18.1608 21.3011 18.2802 21.5385 18.2199C21.5385 18.2199 22.0523 18.2802 22.0523 18.4367C22.0523 18.4367 22.0523 18.794 21.6963 18.7344L21.2211 18.7728C21.2211 18.7728 20.9048 18.8338 20.9452 19.2079C20.9856 19.5837 20.9253 22.272 20.9253 22.272C20.9253 22.272 20.9253 22.5896 21.4206 22.5697C21.4206 22.5697 22.0325 22.5492 22.0325 22.7262C22.0325 22.7262 22.1902 23.1214 21.756 23.142C21.756 23.142 20.9253 23.1214 20.9856 23.3581C20.9856 23.3581 20.9253 23.9129 20.8855 24.0104C20.8855 24.0104 20.9664 24.4659 20.8657 24.5455C20.8657 24.5455 20.8073 24.8014 20.2742 24.7623C20.2742 24.7623 16.8751 24.743 16.3407 24.7822C16.3407 24.7822 16.0238 24.743 16.1027 24.4659Z" fill="white"/>
<path d="M15.4913 24.093C15.4913 24.093 15.8268 24.1514 15.8268 24.4683C15.8268 24.7839 15.8467 24.9621 15.6479 25.0014C15.4509 25.041 15.2341 24.9828 15.1757 24.726C15.1149 24.4683 15.2135 24.1514 15.4913 24.093Z" fill="white"/>
<path d="M15.8856 23.9337C15.8856 23.9337 16.241 23.695 16.3794 23.7362C16.3794 23.7362 18.1776 23.8535 18.7325 23.7566C19.2853 23.6572 18.9492 23.7362 18.9492 23.7362C18.9492 23.7362 19.4241 23.7362 19.5612 23.5571C19.5612 23.5571 19.7004 23.5192 19.7793 23.6572L20.0744 23.9746C20.0744 23.9746 20.0968 24.1704 19.7594 24.1505C19.7594 24.1505 16.5367 24.1505 16.4392 24.1704C16.4392 24.1704 15.8266 24.2678 15.8856 23.9337Z" fill="white"/>
<path d="M15.8856 23.933C15.8856 23.933 16.241 23.6943 16.3794 23.7348C16.3794 23.7348 18.1789 23.8528 18.733 23.7559C19.2868 23.6559 18.9498 23.7348 18.9498 23.7348C18.9498 23.7348 19.4252 23.7348 19.5625 23.5551C19.5625 23.5551 19.7011 23.518 19.7806 23.6559L20.0757 23.974C20.0757 23.974 20.0975 24.1704 19.7607 24.1498C19.7607 24.1498 16.538 24.1498 16.4392 24.1704C16.4392 24.1704 15.8266 24.2679 15.8856 23.933Z" stroke="#12110C" stroke-width="0.0176552"/>
<path d="M11.2018 16.9162C11.2018 16.9162 11.3404 16.9162 11.3204 17.1536L11.2801 23.1224C11.2801 23.1224 11.3404 23.5187 11.0042 23.7747C11.0042 23.7747 10.8252 23.9915 10.8252 23.6567L10.906 17.5685C10.906 17.5685 10.9247 17.1136 11.2018 16.9162Z" fill="white"/>
<path d="M11.2024 16.9149C11.2024 16.9149 11.341 16.9149 11.3222 17.1522L11.2807 23.1224C11.2807 23.1224 11.341 23.5187 11.0042 23.7747C11.0042 23.7747 10.8245 23.9915 10.8245 23.6566L10.9054 17.5678C10.9054 17.5678 10.9246 17.1123 11.2024 16.9149Z" stroke="#12110C" stroke-width="0.0176552"/>
<path d="M10.8857 16.9553C10.8857 16.9553 10.6482 17.3909 10.6682 17.4904L10.6482 18.813C10.6482 18.813 10.6283 19.663 10.6482 19.7624C10.6682 19.8606 10.6283 22.3515 10.6283 22.3515C10.6283 22.3515 10.6086 22.8247 10.6283 22.9838V24.0507C10.6283 24.0507 10.5887 24.5259 10.9441 24.4053C10.9441 24.4053 14.4234 24.3272 14.6415 24.3873C14.6415 24.3873 14.9565 24.4459 14.8397 24.6042C14.8397 24.6042 14.8397 24.7436 14.6203 24.703C14.6203 24.703 12.98 24.8601 11.4982 24.8018C11.4982 24.8018 10.5098 24.8601 10.4495 24.7436C10.4495 24.7436 10.2923 24.7235 10.2923 24.1495C10.2923 24.1495 10.2923 23.6171 10.2538 23.5182C10.2538 23.5182 10.2923 23.2379 9.79843 23.1808C9.79843 23.1808 9.10684 23.3001 9.08693 22.8851C9.08693 22.8851 9.18515 22.5887 9.858 22.6272C9.858 22.6272 10.352 22.7067 10.2538 22.3104L10.3122 19.3871C10.3122 19.3871 10.3731 18.8708 10.0357 18.8502C10.0357 18.8502 9.7207 18.8342 9.62001 18.8708C9.62001 18.8708 9.04727 18.8708 9.08693 18.5373C9.08693 18.5373 9.28453 18.1806 9.858 18.26C9.858 18.26 10.2923 18.3385 10.3122 17.8457C10.3122 17.8457 10.2923 16.8367 10.529 16.7982C10.529 16.7982 11.0243 16.8161 10.8857 16.9553Z" fill="white"/>
<path d="M11.4781 23.4981C11.4781 23.4981 11.7552 23.7932 12.2107 23.7759L14.8964 23.8144C14.8964 23.8144 15.1949 23.8355 15.1761 23.992C15.1761 23.992 15.1338 24.2288 14.7798 24.1499L11.5377 24.1108L11.1812 24.1325C11.1812 24.1325 10.9437 24.0915 11.3209 23.6373L11.4781 23.4981Z" fill="white"/>
<path d="M11.4769 23.4995C11.4769 23.4995 11.7541 23.7952 12.2102 23.7771L14.8966 23.8164C14.8966 23.8164 15.1942 23.8368 15.1763 23.9939C15.1763 23.9939 15.1346 24.2313 14.7805 24.1532L11.5366 24.1139L11.1799 24.1344C11.1799 24.1344 10.9432 24.0942 11.3197 23.6387L11.4769 23.4995Z" stroke="#12110C" stroke-width="0.0176552"/>
<path d="M19.7795 23.2393C19.7795 23.2393 20.0168 23.6948 20.1355 23.7569C20.1355 23.7569 20.353 24.0116 20.294 23.5575L20.3331 17.8645C20.3331 17.8645 20.2734 17.6663 20.3331 17.3513L20.0964 16.9163C20.0964 16.9163 19.8385 16.7188 19.8385 17.0344L19.7994 23.1033L19.7795 23.2393Z" fill="white"/>
<path d="M19.7793 23.2391C19.7793 23.2391 20.0173 23.6939 20.1366 23.7568C20.1366 23.7568 20.3541 24.0121 20.2951 23.5567L20.3342 17.8623C20.3342 17.8623 20.2745 17.6654 20.3342 17.3504L20.0969 16.915C20.0969 16.915 19.8383 16.7179 19.8383 17.0335L19.7992 23.103L19.7793 23.2391Z" stroke="#12110C" stroke-width="0.0176552"/>
<path d="M15.392 20.5338C15.392 20.5338 15.4119 21.0066 15.3516 21.4602C15.3195 21.7109 15.4316 22.8656 15.3317 23.4577C15.3317 23.4577 15.3137 23.6558 14.8967 23.4789C14.8967 23.4789 12.3674 23.5371 12.2885 23.4577C12.2885 23.4577 11.5971 23.4789 11.5374 23.1222C11.5374 23.1222 11.6362 20.4145 11.5772 20.3138C11.5772 20.3138 11.5374 18.832 11.5772 18.6941C11.5772 18.6941 11.6362 17.3304 11.5971 17.1724C11.5971 17.1724 11.617 16.8561 11.5573 16.6972C11.5573 16.6972 11.5573 16.4996 11.894 16.6177C11.894 16.6177 12.0109 16.8358 12.6638 16.7389C12.6638 16.7389 13.1391 16.8172 13.594 16.7575C13.594 16.7575 14.601 16.6786 14.8589 16.7575C14.8589 16.7575 15.2547 16.6786 15.3713 17.1148L15.3516 18.3393L15.4696 18.7345L15.6087 18.6363L15.6672 18.3393L15.6871 17.0346C15.6871 17.0346 15.766 16.7966 16.0834 16.7575C16.0834 16.7575 16.5774 16.6972 16.6576 16.7389C16.7365 16.7768 17.8019 16.8358 18.1002 16.7768C18.3959 16.7177 18.4543 16.9743 19.3454 16.5208C19.3454 16.5208 19.5826 16.5407 19.5826 16.6972C19.5826 16.6972 19.5019 18.3798 19.5826 18.6941C19.5826 18.6941 19.5826 21.7771 19.521 21.9946L19.5614 22.9828C19.5614 22.9828 19.6007 23.418 18.9104 23.4577C18.9104 23.4577 19.3454 23.5172 16.6159 23.4383C16.6159 23.4383 16.1816 23.418 15.7075 23.6348C15.7075 23.6348 15.6087 23.6154 15.6087 23.3589C15.6087 23.3589 15.6871 22.4307 15.6087 21.5197L15.5704 20.5121L15.392 20.5338Z" fill="white"/>
<path d="M13.6125 19.1298C13.6125 19.1298 13.6722 20.5919 13.6125 20.7893L13.5939 21.1064C13.5939 21.1064 13.6722 21.3224 13.7909 21.4026C13.7909 21.4026 13.8903 21.6784 13.6523 21.6592C13.6523 21.6592 13.159 21.6194 13.0403 21.6381C13.0403 21.6381 12.7625 21.6381 13.0403 21.2845C13.0403 21.2845 13.1391 21.144 13.1186 20.7893C13.1186 20.7893 13.1186 19.1298 13.159 19.0317C13.159 19.0317 13.1981 18.8129 13.0595 18.7533L12.8215 18.7738L12.5264 19.0503C12.5264 19.0503 12.4661 19.348 12.3276 19.0317V18.872L12.5066 18.398L12.6253 18.3773C12.6253 18.3773 12.8023 18.4962 12.9601 18.5371H13.8903L14.2257 18.3773C14.2257 18.3773 14.3636 18.398 14.3258 18.5757C14.3258 18.5757 14.3835 19.0317 14.1269 19.0896C14.1269 19.0896 13.9686 19.0317 13.8903 18.8129C13.8903 18.8129 13.6331 18.6758 13.6125 19.1298Z" fill="#12110C"/>
<path d="M17.9802 18.5977C17.9802 18.5977 17.2304 18.538 17.2118 19.3481C17.2118 19.3481 17.1303 19.903 17.9616 20.2591C17.9616 20.2591 18.5749 20.5542 18.5338 20.9295C18.5338 20.9295 18.4549 21.6018 17.8025 21.2661C17.8025 21.2661 17.487 21.1071 17.508 20.9295C17.508 20.9295 17.4075 20.7114 17.2894 20.7517C17.2894 20.7517 17.1502 20.7903 17.2118 21.4433C17.2118 21.4433 17.2118 21.7004 17.508 21.4433L17.6639 21.4837C17.6639 21.4837 18.1983 21.9185 18.6519 21.3837C18.6519 21.3837 19.1471 20.9295 18.7904 20.3765C18.7904 20.3765 18.5338 19.9826 18.0798 19.7845C18.0798 19.7845 17.6447 19.585 17.5467 19.2493C17.5467 19.2493 17.6851 18.6554 18.2176 18.9717C18.2176 18.9717 18.4158 19.2091 18.5338 19.2493C18.5338 19.2493 18.6923 19.2493 18.6519 18.8921L18.6146 18.5977C18.6146 18.5977 18.5749 18.3776 18.2971 18.5977C18.2971 18.5977 18.0399 18.6952 17.9802 18.5977Z" fill="#12110C"/>
<path d="M15.5695 18.181C15.7074 18.2817 15.7273 18.4787 15.7273 18.4787C16.1225 19.5255 16.4593 21.0489 16.4593 21.0489C16.5574 21.2446 16.7358 21.4037 16.7358 21.4037C17.0718 21.5217 16.7358 21.6199 16.7358 21.6199C16.5972 21.6802 16.1437 21.6019 16.1437 21.6019C15.905 21.5596 16.0032 21.4826 16.0032 21.4826C16.1032 21.3838 16.0237 20.9873 16.0237 20.9873C16.0032 20.8308 15.8268 20.5731 15.8268 20.5731C15.7479 20.5331 15.6093 20.711 15.6093 20.711C15.6093 20.711 15.3926 20.7904 15.3713 20.711C15.3514 20.6306 15.2136 20.5558 15.2136 20.5558C14.9761 20.5558 14.8781 21.1451 14.8781 21.1451C15.016 21.6398 14.8781 21.5596 14.8781 21.5596C14.7601 21.7194 14.3835 21.6019 14.3835 21.6019C14.2058 21.5596 14.3257 21.4217 14.3257 21.4217C14.5419 21.3838 14.6009 21.1451 14.6009 21.1451C14.7004 21.0072 15.3315 18.4383 15.3315 18.4383C15.3926 18.3189 15.4309 18.0822 15.5695 18.181ZM15.2547 19.4851C15.234 19.5845 15.0948 20.1381 15.0948 20.1381L15.2136 20.3376C15.2136 20.3376 15.5304 20.3556 15.6484 20.3556C15.7658 20.3556 15.787 20.2587 15.787 20.1578C15.787 20.0599 15.5695 19.4671 15.5695 19.4671L15.4696 19.3484L15.2547 19.4851Z" fill="#12110C"/>
<path d="M10.2155 13.3949C10.2155 13.3949 9.99744 14.0883 9.02891 13.375L5.70854 13.2954C5.70854 13.2954 5.27368 13.4353 5.21396 12.98C5.21396 12.98 5.29358 12.0716 5.25246 11.992C5.25246 11.992 5.27368 11.7341 4.83809 11.7341C4.83809 11.7341 4.16713 11.8149 4.1478 11.2216C4.1478 11.2216 4.02852 10.5871 4.95738 10.6089C4.95738 10.6089 5.25246 10.7468 5.27368 10.3711C5.27368 10.3711 5.23387 7.80189 5.25246 7.60313C5.25246 7.60313 5.33325 7.36833 4.87848 7.3278C4.87848 7.3278 4.22539 7.4651 4.1478 7.03024C4.1478 7.03024 4.10741 6.37918 4.54169 6.33879C4.54169 6.33879 5.0755 6.37918 5.17488 6.24246C5.17488 6.24246 5.29358 6.31888 5.27368 5.84407L5.29358 5.03464C5.29358 5.03464 5.35315 4.81714 5.68733 4.83704C5.68733 4.83704 6.30191 4.87613 6.38139 4.81714C6.38139 4.81714 6.51942 4.64017 6.55719 4.55982C6.55719 4.55982 6.87538 4.54123 6.93437 4.61823C6.93437 4.61823 7.40774 4.93642 9.20835 4.81714C9.20835 4.81714 9.48353 4.81714 9.54325 4.89676C9.54325 4.89676 9.87873 5.1532 10.0763 4.87613C10.0763 4.87613 10.3727 4.81714 11.2629 4.83704C11.2629 4.83704 12.2297 5.09363 12.9027 4.54123L13.1195 4.58176C13.1195 4.58176 13.396 5.03464 13.5955 4.89676C13.5955 4.89676 14.1875 4.83704 14.2869 4.95633C14.2869 4.95633 14.4851 5.25272 14.3844 6.02437C14.3844 6.02437 14.267 6.35986 14.8399 6.35986C14.8399 6.35986 15.4915 6.24246 15.4134 6.85254C15.4134 6.85254 15.5916 7.54472 14.5044 7.4465C14.5044 7.4465 14.3652 7.64468 14.3844 7.78271C14.3844 7.78271 14.3652 10.0349 14.3459 10.2934C14.3459 10.2934 14.3267 10.6469 14.8008 10.6288C14.8008 10.6288 15.4333 10.5871 15.4525 11.1627C15.4525 11.1627 15.5313 11.9131 14.623 11.7739C14.623 11.7739 14.3459 11.8149 14.3055 11.992L14.267 12.98C14.267 12.98 14.2869 13.4744 13.732 13.3564C13.6531 13.3564 10.6505 13.4148 10.3925 13.3372C10.3925 13.3372 10.2546 13.3173 10.2155 13.3949Z" fill="#12110C"/>
<path d="M10.2146 13.3949C10.2146 13.3949 9.99649 14.0883 9.02797 13.375L5.70701 13.2955C5.70701 13.2955 5.272 13.4353 5.21243 12.9793C5.21243 12.9793 5.29264 12.071 5.25152 11.9913C5.25152 11.9913 5.272 11.7342 4.83642 11.7342C4.83642 11.7342 4.16545 11.815 4.14628 11.2216C4.14628 11.2216 4.02757 10.5865 4.95643 10.6083C4.95643 10.6083 5.25152 10.7463 5.272 10.371C5.272 10.371 5.23219 7.80066 5.25152 7.60248C5.25152 7.60248 5.3323 7.36696 4.87695 7.32715C4.87695 7.32715 4.22386 7.4646 4.14628 7.02901C4.14628 7.02901 4.10588 6.37781 4.54075 6.33814C4.54075 6.33814 5.07382 6.37781 5.17393 6.24065C5.17393 6.24065 5.29264 6.31824 5.272 5.84342L5.29264 5.03327C5.29264 5.03327 5.35162 4.81591 5.68638 4.8364C5.68638 4.8364 6.30039 4.8749 6.37986 4.81591C6.37986 4.81591 6.51847 4.63953 6.55625 4.55918C6.55625 4.55918 6.87371 4.54 6.93343 4.61759C6.93343 4.61759 7.40621 4.9352 9.2074 4.81591C9.2074 4.81591 9.48259 4.81591 9.5423 4.89539C9.5423 4.89539 9.87778 5.15197 10.0754 4.8749C10.0754 4.8749 10.3724 4.81591 11.262 4.8364C11.262 4.8364 12.2295 5.09168 12.9018 4.54L13.1191 4.58039C13.1191 4.58039 13.3956 5.03327 13.5945 4.89539C13.5945 4.89539 14.1866 4.8364 14.2873 4.95437C14.2873 4.95437 14.4841 5.2515 14.3842 6.02242C14.3842 6.02242 14.2661 6.35921 14.839 6.35921C14.839 6.35921 15.4919 6.24065 15.4124 6.85132C15.4124 6.85132 15.5907 7.54407 14.5041 7.44527C14.5041 7.44527 14.3643 7.64345 14.3842 7.78206C14.3842 7.78206 14.3643 10.0342 14.3457 10.2921C14.3457 10.2921 14.3258 10.6468 14.7999 10.6289C14.7999 10.6289 15.4323 10.5865 15.4522 11.1626C15.4522 11.1626 15.5304 11.9124 14.622 11.7733C14.622 11.7733 14.3457 11.815 14.3053 11.9913L14.2661 12.9793C14.2661 12.9793 14.2873 13.4745 13.7318 13.3564C13.6529 13.3564 10.6496 13.4142 10.3915 13.3366C10.3915 13.3366 10.2537 13.3173 10.2146 13.3949Z" stroke="#12110C" stroke-width="0.0147126"/>
<path d="M6.47927 5.25228C6.47927 5.25228 6.51908 5.64675 6.51908 5.74555C6.51908 5.84434 6.45879 11.4579 6.45879 11.4579C6.45879 11.4579 6.51908 11.894 6.14263 12.1102C6.14263 12.1102 6.04441 12.1506 6.02393 11.8741L6.06432 5.94445C6.06432 5.94445 6.1034 5.21247 6.47927 5.25228Z" fill="white"/>
<path d="M6.48 5.25046C6.48 5.25046 6.51966 5.64493 6.51966 5.74373C6.51966 5.84253 6.45937 11.4566 6.45937 11.4566C6.45937 11.4566 6.51966 11.8928 6.14263 12.1103C6.14263 12.1103 6.04441 12.1501 6.02393 11.8736L6.06301 5.94322C6.06301 5.94322 6.10282 5.21123 6.48 5.25046Z" stroke="#12110C" stroke-width="0.0176552"/>
<path d="M5.82703 12.168C5.82703 12.168 5.86553 6.59433 5.84693 6.4948C5.82703 6.39731 5.86553 6.575 5.86553 6.575C5.86553 6.575 5.80785 5.60764 6.06429 5.21128C6.06429 5.21128 5.98482 4.87508 5.53005 5.28945L5.51203 6.10033C5.51203 6.10033 5.51203 6.5551 5.09577 6.53519C5.09577 6.53519 4.6211 6.51471 4.40301 6.73352C4.40301 6.73352 4.28489 7.16765 4.73849 7.08948C4.73849 7.08948 5.45116 7.08948 5.49024 7.38385L5.45116 10.3693C5.45116 10.3693 5.60952 10.8633 5.05538 10.8633C5.05538 10.8633 4.38369 10.8254 4.40301 11.2405C4.40301 11.2405 4.54148 11.5965 5.11567 11.4772C5.11567 11.4772 5.53005 11.5567 5.51203 11.95V12.703C5.51203 12.703 5.47033 13 5.86553 13.018H8.94966C8.94966 13.018 9.10759 13.0378 9.10759 12.8396C9.10759 12.8396 9.08754 12.6837 8.85159 12.6837L6.2831 12.6427C6.2831 12.6427 5.86553 12.7813 5.82703 12.168Z" fill="white"/>
<path d="M6.36147 12.209C6.36147 12.209 6.28315 12.4868 6.57824 12.4258H8.61423L9.1678 12.5439C9.1678 12.5439 9.74257 12.4059 9.1678 12.089C9.1678 12.089 7.34931 12.1102 7.1908 12.0704C7.1908 12.0704 6.81623 11.9718 6.73676 11.9517C6.73676 11.9517 6.53858 11.8736 6.36147 12.209Z" fill="white"/>
<path d="M6.36 12.2108C6.36 12.2108 6.28169 12.4898 6.57678 12.4276H8.61349L9.16778 12.5469C9.16778 12.5469 9.74242 12.409 9.16778 12.0915C9.16778 12.0915 7.34843 12.1126 7.19006 12.0716C7.19006 12.0716 6.81477 11.9734 6.73529 11.9542C6.73529 11.9542 6.53697 11.8753 6.36 12.2108Z" stroke="#12110C" stroke-width="0.0176552"/>
<path d="M9.74099 12.4902C9.74099 12.4902 9.36454 12.4902 9.3843 12.9816C9.3843 12.9816 9.42411 13.3594 9.81858 13.3594C9.81858 13.3594 10.1747 13.2979 10.1362 12.9046C10.1362 12.9046 9.91796 12.4095 9.74099 12.4902Z" fill="white"/>
<path d="M10.017 12.2879C10.017 12.2879 10.1941 12.0903 10.314 12.0903C10.314 12.0903 12.2898 12.2687 12.6259 12.0319C12.6259 12.0319 12.9235 11.9729 13.0012 12.0319C13.0012 12.0319 13.2976 12.2687 13.2976 12.4066C13.2976 12.4066 13.2783 12.5862 12.9235 12.4874C12.9235 12.4874 10.688 12.506 10.5706 12.506C10.5706 12.506 9.95732 12.6438 10.017 12.2879Z" fill="white"/>
<path d="M10.0161 12.2872C10.0161 12.2872 10.1937 12.089 10.313 12.089C10.313 12.089 12.2895 12.268 12.6255 12.0312C12.6255 12.0312 12.9238 11.9716 13.0014 12.0312C13.0014 12.0312 13.2978 12.268 13.2978 12.4065C13.2978 12.4065 13.2786 12.5862 12.9238 12.4867C12.9238 12.4867 10.6883 12.506 10.5696 12.506C10.5696 12.506 9.95634 12.6439 10.0161 12.2872Z" stroke="#12110C" stroke-width="0.0176552"/>
<path d="M10.3335 12.8796C10.3335 12.8796 10.3335 12.7224 10.6087 12.7224L13.378 12.7019C13.378 12.7019 13.6338 12.8384 13.6338 12.3657C13.6338 12.3657 13.7352 10.2104 13.7442 7.8382C13.748 7.13266 13.7788 6.39181 13.7519 5.7053C13.7519 5.7053 13.693 5.40963 13.6141 5.34861C13.6141 5.34861 13.6141 5.03245 13.9514 5.15232C13.9514 5.15232 14.2458 5.17106 14.1675 5.6251L14.1868 6.31727C14.1868 6.31727 14.1278 6.61367 14.6615 6.53478C14.6615 6.53478 15.1946 6.61367 15.2137 6.81127C15.2137 6.81127 15.3736 7.20763 14.7417 7.16724H14.2875C14.2875 7.16724 14.0893 7.28536 14.1483 7.52335L14.0893 10.3887C14.0893 10.3887 14.0482 10.8827 14.5242 10.8646C14.5242 10.8646 15.0182 10.8442 15.1157 11.0019C15.1157 11.0019 15.453 11.4965 14.7212 11.4569C14.7212 11.4569 14.2663 11.4362 14.1675 11.5151C14.1675 11.5151 14.0893 11.6158 14.0296 12.5435C14.0296 12.5435 14.0687 13.0971 13.6537 13.0374C13.6537 13.0374 10.9062 13.0759 10.6504 13.0174C10.6504 13.0174 10.3726 13.0971 10.3335 12.8796Z" fill="white"/>
<path d="M6.77459 5.07435L6.71691 11.4197C6.71691 11.4197 6.697 11.7142 7.19085 11.7738C7.19085 11.7738 7.76505 11.8335 7.90235 11.7738C7.90235 11.7738 8.27692 11.7546 9.24616 11.7944C9.24616 11.7944 9.48357 12.0304 9.50275 11.7354C9.50275 11.7354 9.66127 6.59528 9.58223 5.52854C9.58223 5.52854 9.56305 5.07435 9.22568 5.05445C9.22568 5.05445 7.72466 5.17257 7.58605 5.05445L6.99398 4.89593C6.99398 4.89593 6.75541 4.91468 6.77459 5.07435Z" fill="white"/>
<path d="M13.0401 5.30978L13.0208 11.5563C13.0208 11.5563 13.1793 12.1114 13.4372 12.0522C13.4372 12.0522 13.4762 11.9329 13.4956 11.734L13.5758 5.78387C13.5758 5.78387 13.3774 4.83496 13.0401 5.30978Z" fill="white" stroke="#12110C" stroke-width="0.0176552"/>
<path d="M13.0401 5.30978L13.0208 11.5563C13.0208 11.5563 13.1793 12.1114 13.4372 12.0522C13.4372 12.0522 13.4762 11.9329 13.4956 11.734L13.5758 5.78387C13.5758 5.78387 13.3774 4.83496 13.0401 5.30978Z" stroke="#12110C" stroke-width="0.0176552"/>
<path d="M9.89909 5.36087C9.89909 5.36087 9.83952 8.34504 9.85812 8.44514L9.82078 10.9558L9.74072 11.8231C9.74072 11.8231 9.85812 12.0034 9.9575 11.8839C9.9575 11.8839 10.5907 11.7267 10.9857 11.7853C10.9857 11.7853 12.2514 11.9046 12.5074 11.7062C12.5074 11.7062 12.705 11.8045 12.7646 11.4882C12.7646 11.4882 12.8429 5.95482 12.8036 5.85544C12.8036 5.85544 12.8833 5.06578 12.8429 4.98761C12.8429 4.98761 12.823 4.80788 12.4888 4.96509C12.4888 4.96509 12.5271 5.12477 10.6503 5.06578C10.6503 5.06578 9.93832 5.04529 9.89909 5.36087Z" fill="white"/>
<path d="M9.28847 7.19092L9.10961 7.5681C9.10961 7.5681 8.67649 9.48422 8.43981 9.87869C8.43981 9.87869 8.4 10.2752 8.06394 9.95817C8.06394 9.95817 7.29229 7.52771 7.25306 7.44824L6.99589 7.2704C6.99589 7.2704 6.83999 7.05304 7.11518 7.03372L7.84644 7.05304C7.84644 7.05304 8.08312 7.24991 7.76754 7.46988C7.76754 7.46988 7.80677 7.78561 8.22173 8.98965C8.22173 8.98965 8.33971 9.44441 8.47831 9.10821L8.87409 7.70468L8.75539 7.28972C8.75539 7.28972 8.6361 7.09212 8.8151 7.07294C8.8151 7.07294 9.2302 7.03372 9.28847 7.19092Z" fill="#12110C"/>
<path d="M10.4365 7.50918L10.4153 9.6043L10.3576 9.76209C10.3576 9.76209 10.1594 10.0181 10.2973 10.0386C10.2973 10.0386 10.1209 10.1579 11.5617 10.177C11.5617 10.177 12.1165 10.2753 11.9773 9.56391C11.9773 9.56391 11.9184 9.30717 11.7194 9.68319C11.7194 9.68319 11.6605 9.99804 10.9504 9.89997C10.9504 9.89997 10.7919 9.76209 10.7919 9.6043V8.73385C10.7919 8.73385 10.7708 8.51562 11.1075 8.53814C11.1075 8.53814 11.4828 8.77424 11.5425 8.67413C11.5425 8.67413 11.6804 8.35914 11.5425 8.16096C11.5425 8.16096 11.3641 8.14236 11.3449 8.22126C11.3449 8.22126 11.2262 8.45721 10.8901 8.31875C10.8901 8.31875 10.7323 8.00317 10.831 7.74586C10.831 7.74586 10.7919 7.25143 11.1281 7.29167C11.1281 7.29167 11.5232 7.36999 11.5617 7.49C11.5617 7.49 11.6605 7.72799 11.7606 7.45091L11.6605 7.1134C11.6605 7.1134 11.6028 6.97479 11.5033 7.0146C11.5033 7.0146 10.831 7.1134 10.7509 7.0332L10.2171 7.09349C10.2171 7.09349 10.139 7.29167 10.3769 7.38931C10.3769 7.38931 10.4365 7.4297 10.4365 7.50918Z" fill="#12110C"/>
</g>
</svg>
