<svg width="141" height="22" viewBox="0 0 141 22" fill="none" xmlns="http://www.w3.org/2000/svg">
<path d="M54.3101 12.0619L52.4432 11.8903C51.2192 11.7835 50.7263 11.3543 50.7263 10.6026C50.7263 9.72259 51.477 9.14339 52.9362 9.14339C54.3101 9.14339 54.9971 9.74321 55.1039 10.7095H59.4826C59.2033 7.85567 57.1864 5.83786 53.0655 5.83786C48.7731 5.83786 46.4113 8.02718 46.4113 10.9241C46.4113 13.6289 47.8921 15.1097 51.5632 15.4105L53.4095 15.5605C54.8462 15.6682 55.3617 16.1612 55.3617 17.0197C55.3617 17.9213 54.611 18.5867 53.0655 18.5867C51.6269 18.5867 50.7694 17.9428 50.6194 16.806H46.0037C46.4114 19.9175 48.6007 21.9775 53.044 21.9775C57.3579 21.9775 59.7403 19.7676 59.7403 16.7835C59.7403 13.8866 58.1517 12.4058 54.3101 12.0619ZM39.2005 5.83786C36.4535 5.83786 34.8218 7.27554 34.0496 10.2165H33.7703V6.0956H29.4348V21.7207H34.0496V12.6204C34.0496 10.538 35.1227 9.40112 37.0543 9.40112C38.9643 9.40112 39.909 10.582 39.909 12.5989V21.7207H44.5229V11.7835C44.5229 8.00562 42.5491 5.83786 39.2005 5.83786ZM24.9493 0C23.3823 0 22.2014 1.03093 22.2014 2.597C22.2014 4.16401 23.3607 5.194 24.9278 5.194C26.4948 5.194 27.6531 4.16307 27.6531 2.597C27.6531 1.05155 26.4948 0 24.9493 0ZM27.2455 6.0956H22.6307V21.7207H27.2455V6.0956ZM66.9943 2.79007H64.0543C63.9681 5.30178 62.895 6.3955 60.491 6.58857V9.7657H62.3804V16.6336C62.3804 20.089 64.3542 21.9775 68.282 21.9775C69.0205 21.9775 69.7562 21.8838 70.4713 21.6992V17.985C70.1028 18.0462 69.7296 18.0747 69.3561 18.0703C67.7028 18.0703 66.9943 17.448 66.9943 15.7095V9.7657H71.0515V6.0956H66.9943V2.79007ZM140.183 9.7657V6.0956H136.126V2.79007H133.229C133.164 4.52858 132.649 5.53702 131.512 6.0956V16.6336C131.512 20.089 133.486 21.9775 137.414 21.9775C138.153 21.9775 138.888 21.8838 139.603 21.6992V17.985C139.235 18.0462 138.861 18.0748 138.487 18.0703C136.834 18.0703 136.126 17.448 136.126 15.7095V9.7657H140.183ZM125.073 10.4527H124.794V6.09466H120.523V21.7207H125.138V13.2643C125.138 10.9241 126.189 9.93721 128.593 9.93721C129.001 9.93721 129.452 9.98032 130.074 10.0872V6.05248C129.653 5.9049 129.21 5.83226 128.765 5.83786C126.897 5.83786 125.609 6.91097 125.073 10.4527ZM95.6044 18.0291C93.4367 18.0291 91.8696 16.5904 91.8696 13.8004C91.8696 11.3112 93.3289 9.7657 95.5613 9.7657C97.4713 9.7657 98.566 10.8388 98.8884 12.5558H103.567C103.116 8.54171 100.241 5.83786 95.626 5.83786C90.5604 5.83786 87.2342 9.27179 87.2342 13.9728C87.2342 18.8444 90.432 21.9775 95.5613 21.9775C100.219 21.9775 103.245 19.3814 103.675 15.1734H98.9952C98.7384 16.8913 97.5576 18.0291 95.6044 18.0291ZM79.0571 5.83786C75.043 5.83786 72.6185 7.81256 72.1883 11.3533H76.61C76.76 10.1303 77.5547 9.48641 78.9493 9.48641C80.3654 9.48641 81.0093 10.1303 81.0093 11.0534C81.0093 11.8257 80.5163 12.2343 79.2502 12.4695L77.1461 12.8566C73.4338 13.5426 72.0168 15.0665 72.0168 17.492C72.0168 20.2605 73.9699 22 76.6747 22C78.8846 22 80.3232 20.9691 80.9887 18.3936H81.267V21.7207H85.625V11.5258C85.625 7.98407 83.4994 5.83786 79.0571 5.83786ZM78.5416 18.8444C77.297 18.8444 76.5885 18.179 76.5885 17.1912C76.5885 16.3758 77.0824 15.8182 78.3054 15.5389L79.1639 15.3458C79.9043 15.1743 80.4788 14.9456 81.0102 14.4864V16.1396C81.0102 18.0497 80.0009 18.8444 78.5416 18.8444ZM111.852 5.83786C107.838 5.83786 105.413 7.81256 104.984 11.3533H109.405C109.556 10.1303 110.349 9.48641 111.744 9.48641C113.161 9.48641 113.805 10.1303 113.805 11.0534C113.805 11.8257 113.311 12.2343 112.045 12.4695L109.942 12.8566C106.229 13.5426 104.812 15.0665 104.812 17.492C104.812 20.2605 106.765 22 109.469 22C111.68 22 113.118 20.9691 113.783 18.3936H114.063V21.7207H118.42V11.5258C118.42 7.98407 116.294 5.83786 111.852 5.83786ZM111.336 18.8444C110.092 18.8444 109.383 18.179 109.383 17.1912C109.383 16.3758 109.877 15.8182 111.1 15.5389L111.959 15.3458C112.699 15.1743 113.275 14.9456 113.805 14.4864V16.1396C113.805 18.0497 112.797 18.8444 111.336 18.8444Z" fill="#003D29"/>
<path d="M14.863 3.7386C13.9146 3.7386 13.2379 4.15191 12.6137 5.04975L10.8143 7.63363V0.257812H6.52189V7.63363L4.72245 5.04975C4.0992 4.15191 3.42254 3.7386 2.47315 3.7386C1.0411 3.7386 0.0879579 4.79577 0.0832719 6.09849C0.079523 7.21376 0.605296 7.94104 1.71401 8.65519L8.66809 13.135L15.6222 8.65519C16.7309 7.94104 17.2567 7.21376 17.2529 6.09849C17.2492 4.79577 16.2951 3.7386 14.863 3.7386Z" fill="#0AAD0A"/>
<path d="M8.66798 14.208C12.8011 14.208 16.1891 17.2933 16.1797 21.7207H1.15627C1.14783 17.2952 4.5349 14.208 8.66798 14.208Z" fill="#FF7009"/>
</svg>
