<svg width="150" height="46" viewBox="0 0 150 46" fill="none" xmlns="http://www.w3.org/2000/svg">
<path d="M16.3274 0H20.8592V0.854106H20.0057C19.8564 0.854106 19.5961 1.02646 19.221 1.36734C18.8459 1.70821 18.6584 1.97632 18.6584 2.1525V15.1748C18.6584 15.3548 18.8459 15.6152 19.221 15.9599C19.5961 16.3046 19.8564 16.477 20.0057 16.477H20.8592V17.3273H14.1725V16.4693H15.0261C15.1753 16.4693 15.4318 16.297 15.7916 15.9523C16.1514 15.6075 16.3313 15.3471 16.3313 15.1671V2.55849L10.0464 17.6375L3.76926 2.29804V15.1709C3.76926 15.3509 3.94916 15.6114 4.30512 15.9561C4.66108 16.3008 4.92135 16.4731 5.07063 16.4731H5.92034V17.3234H0.538818V16.4693H1.39236C1.57225 16.4693 1.84018 16.297 2.19997 15.9523C2.55976 15.6075 2.73583 15.3471 2.73583 15.1671V2.1525C2.73583 1.97632 2.55593 1.71204 2.19997 1.36734C1.84401 1.02263 1.57225 0.854106 1.39236 0.854106H0.538818V0H5.56055L10.766 12.9725H10.9L16.3274 0ZM27.0943 15.5731C27.8581 15.6186 28.6192 15.4488 29.2913 15.0828C29.8489 14.7008 30.309 14.1931 30.6348 13.6006H31.3543C31.0346 14.7132 30.4226 15.7197 29.5822 16.5153C28.6603 17.2804 27.4823 17.6665 26.2867 17.5954C25.5758 17.6211 24.8687 17.4801 24.222 17.1835C23.5753 16.8869 23.007 16.4429 22.5625 15.8871C21.6299 14.7343 21.1375 13.2871 21.1731 11.8043C21.1315 11.0107 21.2486 10.2168 21.5174 9.46906C21.7862 8.72131 22.2013 8.03472 22.7386 7.44949C23.2191 6.93234 23.8024 6.52141 24.451 6.24307C25.0996 5.96473 25.7992 5.82512 26.5049 5.8332C27.2722 5.8156 28.0352 5.9537 28.7478 6.23919C29.3946 6.51497 29.9869 6.90408 30.497 7.38821L28.8626 9.95819L28.189 10.0003C28.3419 9.23548 28.2958 8.44414 28.055 7.70228C27.912 7.35704 27.6574 7.06978 27.332 6.88647C27.0065 6.70315 26.629 6.63437 26.2599 6.69114C25.7787 6.66054 25.2979 6.75609 24.865 6.96835C24.432 7.18061 24.0619 7.50223 23.7911 7.90144C23.2134 8.86195 22.9324 9.97198 22.9835 11.0919C22.9512 12.2523 23.3416 13.3849 24.082 14.2785C24.4542 14.7075 24.9184 15.0468 25.44 15.271C25.9616 15.4951 26.5272 15.5984 27.0943 15.5731ZM38.2171 17.3234H31.4424V16.4693H32.3074C32.4873 16.4693 32.7552 16.297 33.115 15.9523C33.4748 15.6075 33.6509 15.3471 33.6509 15.1671V2.1525C33.6509 1.97632 33.4748 1.71204 33.115 1.36734C32.7552 1.02263 32.4758 0.854106 32.3074 0.854106H31.4424V0H38.2171V0.854106H37.3636C37.1837 0.854106 36.9158 1.02646 36.556 1.36734C36.1962 1.70821 36.0201 1.97632 36.0201 2.1525V9.2458L42.2093 2.33251C42.3279 2.18314 42.2093 1.89972 41.8954 1.48224C41.5815 1.06476 41.3251 0.854106 41.1758 0.854106H40.3452V0H46.6224V0.854106H45.7689C45.3473 0.999163 44.9602 1.22998 44.6321 1.53203C44.0312 1.99547 43.6752 2.29804 43.5527 2.40912L39.3424 6.94009L45.3976 14.9832C45.6914 15.3259 46.03 15.6273 46.4042 15.8795C46.7048 16.1561 47.067 16.357 47.4606 16.4655H48.7161C49.0133 16.4038 49.2822 16.2464 49.4816 16.0174C49.8107 15.7148 49.9753 15.462 49.9753 15.2514V8.16955C49.9753 7.98953 49.8107 7.74824 49.4816 7.44949C49.2822 7.22045 49.0133 7.06305 48.7161 7.00137H48.0386V6.14727H52.0307V15.259C52.0307 15.4697 52.203 15.7225 52.5474 16.025C52.7456 16.2423 53.002 16.3978 53.2862 16.4731H54.6794C54.8287 16.4731 55.0621 16.3238 55.3951 16.025C55.7281 15.7263 55.8889 15.4697 55.8889 15.259V8.16955C55.8889 7.98953 55.7243 7.74824 55.3951 7.44949C55.066 7.15075 54.8287 7.00137 54.6794 7.00137H53.9598V6.14727H57.5041L57.9519 8.42616C58.5605 7.7831 59.2127 7.1829 59.904 6.62986C60.606 6.10171 61.4682 5.83125 62.3459 5.86384C62.7581 5.85637 63.1675 5.93223 63.5496 6.0869C63.9317 6.24156 64.2787 6.47183 64.5697 6.76391C64.876 7.06777 65.1159 7.43203 65.274 7.83357C65.4322 8.23511 65.5051 8.66516 65.4884 9.09642V15.259C65.4884 15.4697 65.6529 15.7225 65.9821 16.025C66.3113 16.3276 66.5486 16.4731 66.6979 16.4731H67.4174V17.3234H61.5422V16.4693H62.1622C62.4592 16.4068 62.7278 16.2496 62.9277 16.0212C63.2569 15.7186 63.4215 15.4658 63.4215 15.2552V9.2458C63.4433 8.74303 63.2829 8.24929 62.9698 7.85548C62.8019 7.66894 62.5935 7.5233 62.3606 7.4297C62.1278 7.3361 61.8766 7.29702 61.6264 7.31544C60.7391 7.34249 59.883 7.64947 59.1806 8.19253C58.3615 8.7747 57.9519 9.26112 57.9519 9.65179V15.259C57.9519 15.4697 58.1165 15.7225 58.4457 16.025C58.6451 16.2541 58.914 16.4115 59.2112 16.4731H59.8389V17.3234H43.79L37.7693 8.66363L36.0201 10.548V15.1709C36.0201 15.3509 36.1962 15.6114 36.556 15.9561C36.9158 16.3008 37.1837 16.4731 37.3636 16.4731H38.2171V17.3234ZM44.2264 36.8568L44.1728 36.8032C44.7431 37.2819 45.321 37.7607 45.9028 38.2395C46.4846 38.7182 47.1047 39.1817 47.763 39.6336H48.7926V40.5298H46.9095C46.1428 40.5428 45.381 40.4063 44.6665 40.1277C43.9034 39.7859 43.2054 39.3142 42.6035 38.7335C41.9246 39.4177 41.106 39.9468 40.2036 40.2847C39.1596 40.648 38.0591 40.8219 36.954 40.7979C35.5494 40.8053 34.1897 40.3032 33.1265 39.3846C32.5763 38.9404 32.136 38.3751 31.8399 37.7327C31.5438 37.0903 31.3999 36.3881 31.4194 35.681C31.4081 34.6291 31.672 33.5926 32.1849 32.6744C32.6825 31.7923 33.38 31.0393 34.2212 30.4759C33.8187 29.9646 33.4794 29.4064 33.2107 28.8136C32.9457 28.1905 32.8152 27.5183 32.828 26.8412C32.7959 26.3134 32.8793 25.785 33.0724 25.2929C33.2654 24.8007 33.5634 24.3566 33.9456 23.9916C34.8004 23.2793 35.8932 22.918 37.0038 22.9804C37.6436 22.9589 38.2823 23.0496 38.8908 23.2485C39.2899 23.4128 39.7149 23.5049 40.1462 23.5205C40.312 23.5246 40.4777 23.5091 40.64 23.4745C40.7757 23.4299 40.8885 23.3336 40.9538 23.2064H41.7193V27.2893H40.9538C40.835 26.4462 40.4295 25.6698 39.8056 25.0908C39.4578 24.6752 39.0216 24.3426 38.529 24.1173C38.0363 23.892 37.4995 23.7797 36.9579 23.7886C36.1712 23.7453 35.3937 23.9753 34.757 24.4397C34.4899 24.658 34.2776 24.936 34.1374 25.2513C33.9971 25.5666 33.9327 25.9104 33.9494 26.2552C33.9449 26.9304 34.1841 27.5845 34.6231 28.0974C35.1061 28.6609 35.7236 29.093 36.4182 29.3537C37.5231 30.5538 38.7185 31.7577 40.0046 32.9654C41.2906 34.1732 42.5167 35.3031 43.6829 36.3551C44.002 35.843 44.2372 35.2831 44.3795 34.6966C44.5197 34.0681 44.5878 33.4256 44.5823 32.7816C44.5979 32.4358 44.5397 32.0906 44.4117 31.769C44.2837 31.4474 44.0887 31.1567 43.8398 30.9164C43.2917 30.4325 42.5755 30.1835 41.8456 30.2231V29.3537H48.0003V30.1618H47.3305C47.1812 30.1618 46.8865 30.4146 46.454 30.9278C46.1316 31.2298 45.9053 31.6201 45.8033 32.0501V32.096C45.7737 32.958 45.6229 33.8116 45.3555 34.6315C45.0983 35.4257 44.7172 36.1741 44.2264 36.8491V36.8568ZM38.3511 39.4612C39.0589 39.4708 39.7635 39.3647 40.4371 39.1472C41.0346 38.9466 41.6005 38.6616 42.1174 38.3007L41.9834 38.2126C40.7076 37.0738 39.4521 35.9069 38.2171 34.712C36.9821 33.517 35.7854 32.2594 34.6269 30.9393C34.1992 31.3878 33.851 31.9058 33.5973 32.4714C33.3303 33.1564 33.2078 33.8892 33.2375 34.6239C33.2548 35.2662 33.4101 35.8973 33.6927 36.4742C33.9754 37.0511 34.3788 37.5605 34.8757 37.9675C35.8006 38.8904 37.0453 39.4212 38.3511 39.4498V39.4612ZM50.7753 3.4126H50.7294C50.3533 3.41598 49.9913 3.26998 49.7227 3.00661C49.5848 2.88219 49.4751 2.72959 49.4011 2.55912C49.3272 2.38864 49.2906 2.20426 49.294 2.01845V1.97632C49.2831 1.77938 49.3159 1.58247 49.39 1.39971C49.4641 1.21694 49.5777 1.05286 49.7227 0.919218C50.0187 0.673823 50.3909 0.539533 50.7753 0.539533C51.1596 0.539533 51.5319 0.673823 51.8279 0.919218C51.9728 1.05286 52.0864 1.21694 52.1606 1.39971C52.2347 1.58247 52.2675 1.77938 52.2565 1.97632H52.2106C52.2412 1.97632 52.2565 1.97632 52.2565 2.01845C52.2599 2.20426 52.2234 2.38864 52.1495 2.55912C52.0755 2.72959 51.9658 2.88219 51.8279 3.00661C51.5727 3.26429 51.2258 3.41027 50.8633 3.4126H50.7753ZM62.1622 39.3617C63.393 39.4327 64.6154 39.1195 65.6606 38.4654C66.5656 37.7837 67.2887 36.8891 67.7657 35.861H68.669C68.1736 37.3189 67.2506 38.5936 66.0204 39.5187C64.7552 40.425 63.2276 40.8906 61.6723 40.8439C60.5388 40.8846 59.4112 40.664 58.3766 40.1991C57.3419 39.7342 56.4279 39.0375 55.7052 38.1629C54.2065 36.3738 53.4093 34.1004 53.4622 31.7666C53.4018 29.4957 54.131 27.2743 55.5253 25.4815C56.2019 24.6287 57.0708 23.9485 58.0607 23.4965C59.0507 23.0444 60.1335 22.8335 61.2206 22.8809C62.0309 22.8623 62.8377 22.9921 63.6014 23.2639C64.2437 23.5174 64.928 23.6474 65.6185 23.6469C65.8338 23.6574 66.0486 23.6181 66.2462 23.532C66.4128 23.4464 66.5642 23.3338 66.694 23.1988H67.3217V29.3077H66.5562C66.4268 28.075 65.9444 26.906 65.1668 25.9411C64.7516 25.3009 64.1784 24.7788 63.5025 24.4252C62.8266 24.0716 62.071 23.8985 61.3087 23.9226C60.6586 23.8881 60.0084 23.9879 59.3986 24.2159C58.7888 24.4439 58.2325 24.7952 57.7644 25.2478C56.7753 26.4391 56.2337 27.939 56.2334 29.4877V29.3996C56.2027 29.729 56.1798 30.0584 56.1645 30.3878C56.1645 30.7172 56.1415 31.0581 56.1415 31.4181C56.1415 31.8356 56.1415 32.2645 56.1874 32.6973C56.2334 33.1301 56.2487 33.5285 56.2755 33.8885C56.3948 35.3447 57.0126 36.7151 58.0247 37.7684C58.5638 38.3098 59.2109 38.7315 59.9238 39.006C60.6367 39.2805 61.3994 39.4017 62.1622 39.3617ZM76.3241 14.1828C76.3507 14.6501 76.2739 15.1176 76.0993 15.5519C75.9246 15.9862 75.6564 16.3766 75.3136 16.6953C74.5987 17.3115 73.6767 17.6332 72.7339 17.5954C72.1182 17.614 71.5058 17.499 70.9388 17.2583C70.4915 17.0402 70.001 16.925 69.5034 16.9213C69.3325 16.9047 69.1607 16.9436 69.0135 17.0323L68.6537 17.3234H68.1332V13.3746H68.8068C68.9318 14.1442 69.3009 14.8532 69.8594 15.3969C70.2143 15.8129 70.6595 16.1423 71.161 16.36C71.6624 16.5778 72.207 16.678 72.753 16.6532C73.3141 16.6824 73.8726 16.5579 74.3682 16.2931C74.5593 16.1714 74.714 16.0005 74.8164 15.7983C74.9187 15.5962 74.9649 15.3702 74.95 15.1441C74.9705 14.8746 74.9167 14.6046 74.7946 14.3636C74.6725 14.1225 74.4866 13.9195 74.2573 13.7768C73.8037 13.4977 73.3318 13.2494 72.8449 13.0337C72.4239 12.8576 72.0449 12.6929 71.6966 12.5435C71.3483 12.3941 70.9541 12.2294 70.5063 12.0494C69.8725 11.7564 69.2958 11.3531 68.803 10.8583C68.5731 10.6081 68.3952 10.3147 68.2796 9.99517C68.1639 9.67563 68.1129 9.33629 68.1294 8.99684C68.1014 8.5712 68.1674 8.14461 68.3229 7.74742C68.4784 7.35023 68.7194 6.9922 69.0288 6.6988C69.6043 6.29056 70.2721 6.0317 70.9722 5.94546C71.6723 5.85923 72.3829 5.94831 73.0401 6.20472C73.4244 6.39598 73.8472 6.49685 74.2764 6.49963C74.4074 6.5039 74.5378 6.48041 74.6591 6.43069C74.77 6.3814 74.8587 6.29269 74.9079 6.18174H75.4897V9.6288H74.8161C74.7072 8.94796 74.3856 8.31912 73.8975 7.8325C73.5977 7.46569 73.217 7.17344 72.7854 6.97872C72.3537 6.784 71.8827 6.69211 71.4096 6.71029C70.8907 6.66781 70.3737 6.81175 69.9513 7.11628C69.7999 7.24106 69.6788 7.39866 69.5973 7.57715C69.5157 7.75564 69.4758 7.95036 69.4805 8.14657C69.4666 8.35292 69.5045 8.55947 69.5908 8.74743C69.677 8.93539 69.8088 9.09881 69.9742 9.22282C70.3984 9.51762 70.848 9.77397 71.3177 9.98883C71.7387 10.165 72.133 10.3297 72.5081 10.4791L73.7405 10.9732C74.3838 11.2437 74.9756 11.6233 75.4897 12.0954C75.7735 12.3591 75.9967 12.6813 76.1441 13.0396C76.2914 13.398 76.3594 13.7841 76.3433 14.1713L76.3241 14.1828ZM79.2598 30.6099C79.8304 31.1672 80.2756 31.8397 80.566 32.5827C80.8564 33.3257 80.9853 34.1221 80.944 34.9188C80.9846 35.7189 80.8556 36.5185 80.5653 37.2651C80.2751 38.0117 79.8301 38.6884 79.2598 39.2506C78.2294 40.2748 76.8349 40.8478 75.3826 40.8439C73.9142 40.8547 72.5017 40.2816 71.4555 39.2506C70.8859 38.688 70.4417 38.0112 70.1521 37.2646C69.8625 36.518 69.734 35.7186 69.7752 34.9188C69.7322 34.1581 69.8457 33.3967 70.1088 32.6817C70.3719 31.9667 70.7789 31.3134 71.3046 30.7622C71.8303 30.211 72.4634 29.7737 73.1649 29.4774C73.8664 29.1811 74.6212 29.0321 75.3826 29.0396C76.8374 29.0291 78.2375 29.5934 79.279 30.6099H79.2598ZM78.7202 36.7687V36.8568C78.7508 36.5274 78.7699 36.198 78.7852 35.8686C78.8005 35.5393 78.8082 35.2099 78.8082 34.8805C78.8082 34.5511 78.8082 34.2332 78.7852 33.9191C78.7623 33.6051 78.7508 33.3101 78.7202 33.042C78.6504 32.2227 78.3112 31.4495 77.7556 30.8436C77.4391 30.5554 77.0669 30.335 76.6621 30.1961C76.2573 30.0571 75.8284 30.0024 75.4017 30.0354C74.984 30.0059 74.5647 30.0623 74.1697 30.2013C73.7747 30.3403 73.4124 30.5589 73.1052 30.8436C72.5556 31.4353 72.2166 32.1919 72.1406 32.9961V32.9386C72.0811 33.2496 72.044 33.5645 72.0296 33.8808C72.0296 34.2102 72.0067 34.5396 72.0067 34.8652C72.0067 35.1907 72.0067 35.5163 72.0296 35.8303C72.043 36.1252 72.0801 36.4185 72.1406 36.7074C72.2293 37.5082 72.5667 38.261 73.1052 38.8599C73.4057 39.1569 73.7658 39.3867 74.1617 39.5339C74.5576 39.6812 74.9803 39.7426 75.4017 39.714C75.8341 39.752 76.2697 39.6975 76.6795 39.5542C77.0892 39.411 77.4639 39.1821 77.7786 38.8829C78.3028 38.2922 78.6317 37.5537 78.7202 36.7687ZM82.3984 17.6183C81.6907 17.6318 80.9893 17.4831 80.3478 17.1838C79.7063 16.8844 79.1417 16.4422 78.6972 15.891C77.7274 14.7444 77.2089 13.2832 77.2389 11.7813C77.1926 10.2416 77.7206 8.73973 78.7202 7.56823C79.1638 7.0263 79.7267 6.5943 80.3647 6.30595C81.0028 6.01761 81.6988 5.88072 82.3984 5.90597C82.9415 5.87568 83.4847 5.96261 83.9912 6.16086C84.4978 6.35911 84.9557 6.66405 85.3342 7.055C86.0368 7.80707 86.4445 8.78764 86.4824 9.81648L86.5283 10.6246L79.08 11.2221C79.095 12.2979 79.4727 13.3371 80.1517 14.1713C80.4929 14.6298 80.9406 14.9981 81.4562 15.2444C81.9717 15.4907 82.5395 15.6074 83.1104 15.5846C83.8813 15.6279 84.6493 15.4583 85.3303 15.0943C85.885 14.7325 86.3403 14.2374 86.6547 13.6542H87.3283C87.0432 14.761 86.4515 15.7648 85.6212 16.5497C84.7177 17.2934 83.5662 17.667 82.3984 17.5954V17.6183ZM82.3525 6.75625C81.8633 6.71539 81.3719 6.80351 80.9274 7.01183C80.4828 7.22015 80.1005 7.5414 79.8187 7.94357C79.3135 8.68025 79.0257 9.5443 78.9881 10.437L84.5954 9.95819C84.6914 9.2072 84.6061 8.44413 84.3466 7.73292C84.1017 7.06904 83.437 6.73582 82.3525 6.73327V6.75625ZM95.8982 39.6949C96.0781 39.6949 96.323 39.5379 96.6369 39.2238C96.9507 38.9097 97.1077 38.6646 97.1077 38.4846V32.3565C97.1279 31.8782 96.9773 31.4085 96.6828 31.0313C96.5091 30.847 96.2959 30.7047 96.0591 30.6152C95.8224 30.5256 95.5684 30.4911 95.3164 30.5142C94.5221 30.5406 93.7579 30.8242 93.1385 31.3223C92.4062 31.8637 92.04 32.3131 92.04 32.6705V38.5037C92.04 38.6837 92.1969 38.9289 92.5108 39.2429C92.8246 39.557 93.0581 39.714 93.2074 39.714H93.881V40.5681H88.1397V39.714H88.7675C88.9474 39.714 89.1923 39.557 89.5062 39.2429C89.82 38.9289 89.977 38.6837 89.977 38.5037V32.3756C90.0016 31.879 89.8421 31.3907 89.5291 31.0044C89.3569 30.8238 89.1466 30.6836 88.9136 30.5942C88.6806 30.5048 88.4307 30.4683 88.1818 30.4874C87.3669 30.5141 86.5848 30.815 85.9619 31.3415C85.2295 31.9083 84.8634 32.3871 84.8634 32.7778V38.5229C84.8634 38.7029 85.0203 38.948 85.3342 39.2621C85.648 39.5762 85.8968 39.7332 86.0767 39.7332H86.7044V40.5873H80.9631V39.7332H81.6367C81.786 39.7332 82.0195 39.5762 82.3295 39.2621C82.6396 38.948 82.8003 38.7029 82.8003 38.5229V31.3721C82.8003 31.1959 82.6434 30.9547 82.3295 30.6559C82.0157 30.3572 81.786 30.2078 81.6367 30.2078H80.9631V29.3537H84.4079L84.8557 31.51C85.514 30.8206 86.1124 30.2435 86.6508 29.7788C87.307 29.2768 88.1232 29.0304 88.9474 29.0856C89.6521 29.0714 90.343 29.2835 90.9185 29.6907C91.205 29.8977 91.4449 30.1624 91.6229 30.4679C91.8009 30.7733 91.913 31.1126 91.952 31.4641C92.6371 30.8053 93.2686 30.2499 93.8351 29.8018C94.4839 29.3273 95.2754 29.0894 96.0781 29.1277C96.8906 29.1077 97.6789 29.406 98.2751 29.9588C98.5839 30.2656 98.8239 30.6346 98.979 31.0415C99.1341 31.4483 99.2008 31.8835 99.1745 32.3182V38.4463C99.1745 38.6263 99.3315 38.8714 99.6453 39.1855C99.9592 39.4995 100.189 39.6566 100.338 39.6566H101.012V40.5107H95.2704V39.6566L95.8982 39.6949ZM88.4077 8.28828C88.2206 7.99524 87.985 7.7362 87.7111 7.52226C87.3283 7.19288 87.0757 7.02819 86.9456 7.02819H86.4518V6.14727H92.507V7.00137H91.7912C91.6419 7.00137 91.4467 7.15075 91.2094 7.44949C91.0088 7.65845 90.8824 7.9276 90.8496 8.21551L93.5289 13.7346L95.9977 8.25764C95.999 8.10716 95.9698 7.95797 95.9119 7.81908C95.854 7.68019 95.7686 7.55447 95.6609 7.44949C95.4057 7.15075 95.2028 7.00137 95.0523 7.00137H94.3136V6.14727H98.8454V7.00137H98.3516C98.2023 7.00137 97.9689 7.15841 97.655 7.47247C97.4088 7.6965 97.204 7.96231 97.0503 8.25764L93.2227 16.3812L89.931 22.7123L88.955 22.2144L92.3615 16.0633L88.4077 8.28828ZM108.728 29.0703C109.354 29.0456 109.976 29.176 110.538 29.45C111.101 29.724 111.588 30.133 111.955 30.6406C112.775 31.8559 113.178 33.305 113.103 34.7694C113.163 36.3109 112.705 37.8281 111.802 39.0782C111.429 39.6115 110.932 40.0457 110.354 40.3434C109.775 40.641 109.133 40.7931 108.483 40.7865C107.661 40.8281 106.844 40.6326 106.129 40.2234C105.497 39.7954 104.98 39.2179 104.625 38.542V43.9271C104.625 44.1378 104.79 44.3906 105.119 44.6931C105.448 44.9957 105.689 45.1412 105.838 45.1412H106.562V45.9609H100.652V45.1068H101.372C101.661 45.0456 101.922 44.8876 102.11 44.6587C102.36 44.4736 102.529 44.1992 102.581 43.8926V31.3721C102.581 31.1959 102.424 30.9547 102.11 30.6559C101.922 30.427 101.661 30.2689 101.372 30.2078H100.652V29.3077H104.284L104.644 31.6441C105.053 30.8563 105.645 30.1785 106.37 29.6677C107.078 29.2316 107.898 29.0131 108.728 29.0396V29.0703ZM110.971 36.6117V36.6538L111.059 35.7576C111.09 35.4598 111.105 35.1607 111.105 34.8613C111.105 34.5989 111.09 34.3367 111.059 34.0762C111.028 33.8196 110.998 33.5744 110.971 33.3331C110.898 32.5475 110.583 31.8038 110.072 31.2036C109.826 30.9461 109.528 30.7444 109.198 30.6122C108.868 30.4801 108.513 30.4205 108.158 30.4376C107.744 30.4201 107.331 30.4887 106.945 30.639C106.559 30.7893 106.208 31.0181 105.915 31.3109C105.33 31.9263 104.9 32.6719 104.659 33.4863V36.4048C104.655 36.8235 104.736 37.2386 104.898 37.6246C105.06 38.0107 105.299 38.3594 105.601 38.6493C105.899 38.9552 106.257 39.1967 106.652 39.3588C107.047 39.5208 107.471 39.6 107.898 39.5915H107.943C108.341 39.6219 108.741 39.5631 109.113 39.4193C109.485 39.2755 109.82 39.0504 110.095 38.7603C110.596 38.137 110.901 37.3784 110.971 36.581V36.6117ZM136.313 38.4961C136.313 38.6761 136.478 38.9212 136.807 39.2353C137.136 39.5493 137.373 39.7064 137.523 39.7064H138.196V40.5605H132.321V39.7064H132.972C133.125 39.7064 133.354 39.5493 133.691 39.2353C134.028 38.9212 134.185 38.6761 134.185 38.4961V32.4063C134.201 31.9157 134.051 31.4341 133.76 31.0389C133.601 30.8457 133.397 30.6937 133.167 30.5957C132.936 30.4977 132.686 30.4566 132.436 30.4759C131.546 30.505 130.688 30.8191 129.99 31.3721C129.166 31.9747 128.755 32.4535 128.758 32.8084V38.4654C128.758 38.6761 128.922 38.9289 129.251 39.2314C129.451 39.4605 129.72 39.6179 130.017 39.6796H130.675V40.5337H121.152L120.838 38.2012C120.367 38.8216 119.842 39.3996 119.269 39.9285C118.687 40.4764 117.913 40.7747 117.114 40.7596C116.738 40.7623 116.364 40.688 116.017 40.5411C115.671 40.3942 115.357 40.1779 115.097 39.9055C114.812 39.6169 114.59 39.2729 114.443 38.8948C114.296 38.5167 114.228 38.1124 114.244 37.7071C114.201 37.2311 114.294 36.7527 114.512 36.3276C114.73 35.9025 115.064 35.5481 115.476 35.3056C116.226 34.8713 117.034 34.5463 117.876 34.3404L120.792 33.7544L120.838 32.4101C120.872 31.7325 120.648 31.0673 120.211 30.5487C119.92 30.289 119.578 30.0929 119.207 29.9729C118.836 29.8529 118.444 29.8116 118.056 29.8516C117.679 29.8064 117.298 29.8661 116.953 30.0243C116.609 30.1825 116.315 30.4329 116.104 30.7478C115.936 31.1183 115.859 31.5236 115.879 31.9299C115.899 32.3362 116.015 32.7319 116.219 33.0842H115.411L113.88 30.8398C114.493 30.2363 115.224 29.7655 116.026 29.4564C116.829 29.1474 117.687 29.0069 118.546 29.0434C119.644 29.0059 120.727 29.3125 121.642 29.9205C122.05 30.2009 122.38 30.5811 122.6 31.0249C122.819 31.4687 122.922 31.9614 122.898 32.456V38.4693C122.898 38.6493 123.062 38.8867 123.391 39.1855C123.721 39.4842 123.958 39.6374 124.107 39.6374H125.454C125.752 39.5755 126.022 39.4166 126.22 39.1855C126.549 38.8867 126.714 38.6493 126.714 38.4693V31.3721C126.714 31.1959 126.549 30.9547 126.22 30.6559C126.021 30.4269 125.752 30.2695 125.454 30.2078H124.781V29.3077H128.325L128.773 31.6441C129.373 31.0057 130.012 30.4058 130.687 29.8478C131.394 29.3119 132.266 29.0409 133.152 29.0817C133.563 29.0743 133.971 29.1498 134.353 29.3038C134.734 29.4578 135.081 29.6871 135.372 29.978C135.679 30.2818 135.92 30.6465 136.079 31.0488C136.238 31.4511 136.311 31.8821 136.294 32.3143L136.313 38.4961ZM120.838 34.5166L118.159 35.1907C117.584 35.2843 117.06 35.5771 116.678 36.018C116.4 36.4203 116.258 36.9006 116.272 37.3892V37.4313C116.269 37.6599 116.311 37.887 116.395 38.0993C116.48 38.3116 116.606 38.5051 116.766 38.6684C116.921 38.8347 117.109 38.9663 117.318 39.0548C117.527 39.1432 117.752 39.1865 117.979 39.1817H118.044C118.645 39.1574 119.218 38.9198 119.66 38.5114C120.115 38.147 120.503 37.7064 120.808 37.2092L120.838 34.5166ZM149.365 29.3537V30.2078H148.825C148.707 30.2078 148.489 30.3648 148.175 30.6789C147.937 30.9061 147.719 31.1534 147.524 31.4181L143.758 39.5876L140.393 45.8728L139.452 45.3787L142.816 39.2276L138.87 31.4641C138.682 31.172 138.446 30.9131 138.173 30.698C137.791 30.3687 137.553 30.204 137.435 30.204H136.895V29.3537H142.95V30.2078H142.276C142.127 30.2078 141.924 30.3572 141.672 30.6559C141.461 30.8608 141.327 31.1307 141.289 31.4219L143.968 36.9449L146.448 31.4066C146.449 31.2625 146.419 31.1199 146.361 30.988C146.303 30.8561 146.218 30.7377 146.112 30.6406C145.859 30.3418 145.656 30.1925 145.507 30.1925H144.791V29.3537H149.365Z" fill="#051C2C"/>
</svg>
