<svg width="105" height="21" viewBox="0 0 105 21" fill="none" xmlns="http://www.w3.org/2000/svg">
<path d="M38.2551 0.664062H42.2056L48.9229 12.8151L55.6401 0.664062H59.5051V20.6305H56.282V5.32775L50.3919 15.9242H47.3683L41.4782 5.32775V20.6305H38.2551V0.664062Z" fill="#1C2B33"/>
<path d="M69.9018 20.9876C68.4089 20.9876 67.0969 20.6572 65.9655 19.9964C64.834 19.3356 63.9522 18.4205 63.32 17.251C62.6876 16.0815 62.3715 14.7409 62.3716 13.2292C62.3716 11.6985 62.6806 10.3436 63.2986 9.16458C63.9166 7.98578 64.7747 7.06349 65.8728 6.39771C66.9711 5.73236 68.2332 5.39959 69.6593 5.39941C71.0759 5.39941 72.2953 5.73455 73.3175 6.40481C74.3394 7.07527 75.1261 8.01419 75.6778 9.2216C76.2291 10.4292 76.5048 11.8458 76.5049 13.4716V14.3557H65.5662C65.7659 15.573 66.258 16.5309 67.0424 17.2295C67.8267 17.9284 68.8179 18.2778 70.0159 18.2777C70.9761 18.2777 71.8033 18.1351 72.4974 17.8499C73.1914 17.5646 73.8427 17.1321 74.4513 16.5521L76.1627 18.6486C74.4606 20.208 72.3736 20.9877 69.9018 20.9876ZM72.255 9.14309C71.5798 8.45388 70.6956 8.10921 69.6023 8.10908C68.5373 8.10908 67.646 8.46092 66.9282 9.16458C66.2102 9.86819 65.7562 10.8142 65.5662 12.0027H73.4102C73.315 10.7856 72.93 9.83242 72.255 9.14309Z" fill="#1C2B33"/>
<path d="M80.4128 8.39411H77.4463V5.75564H80.4128V1.3916H83.5218V5.75564H88.0285V8.39411H83.5218V15.0828C83.5218 16.1951 83.712 16.989 84.0923 17.4645C84.4724 17.94 85.1237 18.1777 86.0462 18.1775C86.4548 18.1775 86.8018 18.1609 87.0873 18.1276C87.3725 18.0945 87.6862 18.0493 88.0285 17.9921V20.602C87.6379 20.715 87.2401 20.8008 86.8377 20.8588C86.3773 20.9266 85.9125 20.9599 85.4471 20.9586C82.0907 20.9586 80.4126 19.1236 80.4128 15.4536V8.39411Z" fill="#1C2B33"/>
<path d="M104.23 20.631H101.178V18.5488C100.636 19.3285 99.947 19.9298 99.1104 20.3528C98.2736 20.7758 97.3228 20.9873 96.258 20.9876C94.946 20.9876 93.7836 20.6524 92.771 19.982C91.7584 19.3117 90.9622 18.3895 90.3822 17.2153C89.8022 16.0411 89.5122 14.6981 89.5122 13.1864C89.5122 11.6652 89.807 10.3198 90.3965 9.15019C90.9859 7.98086 91.8012 7.06337 92.8423 6.39771C93.8835 5.73236 95.079 5.39959 96.4291 5.39941C97.4465 5.39941 98.3592 5.59672 99.1674 5.99135C99.9647 6.37702 100.655 6.95239 101.178 7.66703V5.75603H104.23V20.631ZM101.121 10.9616C100.788 10.1153 100.263 9.44737 99.5453 8.95766C98.8274 8.46807 97.9978 8.22328 97.0567 8.22328C95.7254 8.22328 94.6653 8.67013 93.8764 9.56382C93.0871 10.4576 92.6925 11.6651 92.6926 13.1864C92.6926 14.7173 93.0729 15.9295 93.8336 16.8232C94.5941 17.7169 95.6257 18.1638 96.9284 18.1637C97.8885 18.1637 98.7442 17.9165 99.4954 17.422C100.246 16.9279 100.788 16.2623 101.121 15.4254L101.121 10.9616Z" fill="#1C2B33"/>
<path d="M3.41497 13.849C3.41497 15.0562 3.67995 15.9831 4.02628 16.5438C4.48037 17.2783 5.15764 17.5894 5.84811 17.5894C6.73869 17.5894 7.5534 17.3684 9.12345 15.197C10.3813 13.4565 11.8633 11.0134 12.8606 9.48187L14.5494 6.88712C15.7225 5.08509 17.0804 3.08183 18.6372 1.72398C19.9082 0.615711 21.2793 0 22.6591 0C24.9757 0 27.1823 1.34246 28.8711 3.86026C30.7194 6.61775 31.6165 10.091 31.6165 13.6753C31.6165 15.8061 31.1965 17.3717 30.4819 18.6086C29.7914 19.8049 28.4456 21 26.1818 21V17.5894C28.1202 17.5894 28.604 15.8083 28.604 13.7698C28.604 10.865 27.9267 7.64136 26.4347 5.33795C25.3759 3.70414 24.0038 2.7058 22.4942 2.7058C20.8615 2.7058 19.5476 3.93722 18.071 6.13287C17.286 7.29942 16.48 8.72104 15.5752 10.3252L14.5791 12.0898C12.578 15.6379 12.0712 16.446 11.0706 17.7796C9.31697 20.1149 7.81947 21 5.84811 21C3.50952 21 2.03073 19.9874 1.11486 18.4613C0.367221 17.2178 0 15.5862 0 13.727L3.41497 13.849Z" fill="#0081FB"/>
<path d="M2.69263 4.10104C4.25828 1.68769 6.5177 0 9.10916 0C10.61 0 12.1019 0.444192 13.6599 1.71629C15.3641 3.10713 17.1804 5.39734 19.4464 9.17184L20.2589 10.5264C22.2204 13.794 23.3364 15.4751 23.9895 16.2678C24.8295 17.286 25.4177 17.5894 26.1818 17.5894C28.1202 17.5894 28.604 15.8083 28.604 13.7698L31.6165 13.6753C31.6165 15.8061 31.1965 17.3717 30.4819 18.6086C29.7914 19.8049 28.4457 21 26.1818 21C24.7745 21 23.5277 20.6943 22.149 19.3937C21.0891 18.3953 19.8499 16.6219 18.8967 15.0276L16.0612 10.2911C14.6384 7.91402 13.3334 6.14166 12.578 5.33905C11.7655 4.47597 10.721 3.43366 9.0542 3.43366C7.70514 3.43366 6.55948 4.38031 5.60074 5.82833L2.69263 4.10104Z" fill="url(#paint0_linear_392_789)"/>
<path d="M9.05418 3.43366C7.70513 3.43366 6.55947 4.38031 5.60073 5.82833C4.24507 7.87445 3.41497 10.9222 3.41497 13.849C3.41497 15.0562 3.67995 15.9831 4.02628 16.5438L1.11486 18.4613C0.367221 17.2178 0 15.5862 0 13.727C0 10.3461 0.927954 6.82224 2.69262 4.10103C4.25827 1.68769 6.51769 0 9.10915 0L9.05418 3.43366Z" fill="url(#paint1_linear_392_789)"/>
<defs>
<linearGradient id="paint0_linear_392_789" x1="6.70681" y1="12.8639" x2="28.4764" y2="13.9633" gradientUnits="userSpaceOnUse">
<stop stop-color="#0064E1"/>
<stop offset="0.4" stop-color="#0064E1"/>
<stop offset="0.83" stop-color="#0073EE"/>
<stop offset="1" stop-color="#0082FB"/>
</linearGradient>
<linearGradient id="paint1_linear_392_789" x1="4.94764" y1="15.2827" x2="4.94764" y2="7.25655" gradientUnits="userSpaceOnUse">
<stop stop-color="#0082FB"/>
<stop offset="1" stop-color="#0064E0"/>
</linearGradient>
</defs>
</svg>
