<svg width="71" height="24" viewBox="0 0 71 24" fill="none" xmlns="http://www.w3.org/2000/svg">
<mask id="mask0_392_770" style="mask-type:luminance" maskUnits="userSpaceOnUse" x="0" y="0" width="71" height="24">
<path d="M0.4104 -5.81145e-07V24H70.8823V-5.81145e-07H0.4104Z" fill="white"/>
</mask>
<g mask="url(#mask0_392_770)">
<path d="M30.634 5.07696H33.4003L39.7858 13.4714V5.07696H42.7458V18.71H40.1955L33.5931 10.0433V18.71H30.634V5.07696Z" fill="#4F2987"/>
<path d="M49.4818 13.3343L44.2439 5.07696H47.7501L51.0026 10.5502L54.3126 5.07696H57.7189L52.4818 13.2766V18.71H49.4818V13.3343Z" fill="#4F2987"/>
<path d="M59.0046 12.8676V5.07729H62.0046V12.7902C62.0046 15.0096 63.1116 16.1589 64.9438 16.1589C66.773 16.1589 67.8848 15.0478 67.8848 12.888V5.07729H70.8824V12.77C70.8824 16.8978 68.5646 18.9238 64.9032 18.9238C61.2442 18.9238 59.0046 16.8797 59.0046 12.8676Z" fill="#4F2987"/>
<path d="M3.02368 22.4082H20.9567V1.66687H3.02368V22.4082Z" fill="white"/>
<path d="M10.9861 12.5177C8.52637 11.05 8.77255 8.95378 9.792 7.41315C9.81387 7.38089 9.8208 7.32711 9.81387 7.26462C9.7712 6.89822 9.37147 5.9712 9.2045 5.71911C9.16179 5.6552 9.12533 5.66044 9.12117 5.70587C9.10763 6.12498 8.63054 7.17538 7.90033 8.38507C7.12429 9.67253 7.12255 12.4667 10.9753 12.5757C11.0122 12.5767 11.0226 12.5388 10.9861 12.5177ZM11.6441 12.4093C10.1736 9.26773 13.1149 7.23858 13.594 6.79858C13.6618 6.7368 13.6448 6.67982 13.6461 6.60933C13.6461 5.62018 13.0795 4.01982 12.8938 3.79093C12.8677 3.75555 12.8455 3.77084 12.8347 3.80658C12.5836 4.7816 11.2452 6.23475 10.9753 6.5528C8.7045 9.2528 9.22429 10.8969 11.5951 12.4476C11.6253 12.4667 11.6618 12.4448 11.6441 12.4093ZM12.1233 12.2757C12.818 8.94338 15.5302 8.86213 15.7729 8.22987C16.1514 7.24373 15.4587 5.49378 15.2816 5.28684C15.2645 5.26462 15.2399 5.27884 15.2312 5.29724C14.8636 6.10453 14.2674 6.87324 13.8323 7.2264C13.2166 7.72222 10.8607 9.46844 12.0656 12.2781C12.0795 12.3129 12.1149 12.3042 12.1233 12.2757ZM12.6055 12.5649C16.9969 12.724 17.3076 8.72222 17.325 7.22462C17.327 7.13787 17.2833 7.13022 17.2625 7.19093C17.1323 7.50347 16.5614 8.61947 14.9781 9.29796C13.5642 9.90453 12.7139 11.2809 12.5656 12.5177C12.559 12.5483 12.5851 12.5649 12.6055 12.5649ZM13.6045 14.0649V13.0573H10.141V14.0649H13.6045ZM11.5795 21.1944C11.6076 21.3628 11.9718 21.4455 12.0534 21.1944L12.8924 14.5462H10.8545L11.5795 21.1944ZM24.409 24H0.4104V-5.81145e-07H24.409V24Z" fill="#4F2987"/>
</g>
</svg>
