<svg width="290" height="267" viewBox="0 0 290 267" fill="none" xmlns="http://www.w3.org/2000/svg">
<rect x="0.497532" y="0.497532" width="289.005" height="266.005" rx="13.1898" fill="white"/>
<path d="M17.0341 17.7903H18.8892L22.1147 25.666H22.2335L25.4589 17.7903H27.3141V27.9219H25.8596V20.5904H25.7656L22.7776 27.907H21.5705L18.5825 20.5854H18.4885V27.9219H17.0341V17.7903ZM32.6185 28.0752C31.9062 28.0752 31.2845 27.912 30.7535 27.5855C30.2225 27.259 29.8103 26.8022 29.5167 26.2151C29.2232 25.6281 29.0765 24.9421 29.0765 24.1572C29.0765 23.3689 29.2232 22.6797 29.5167 22.0893C29.8103 21.499 30.2225 21.0405 30.7535 20.714C31.2845 20.3875 31.9062 20.2243 32.6185 20.2243C33.3309 20.2243 33.9526 20.3875 34.4836 20.714C35.0146 21.0405 35.4268 21.499 35.7203 22.0893C36.0139 22.6797 36.1606 23.3689 36.1606 24.1572C36.1606 24.9421 36.0139 25.6281 35.7203 26.2151C35.4268 26.8022 35.0146 27.259 34.4836 27.5855C33.9526 27.912 33.3309 28.0752 32.6185 28.0752ZM32.6235 26.8335C33.0852 26.8335 33.4678 26.7115 33.7712 26.4674C34.0746 26.2234 34.2989 25.8985 34.444 25.4929C34.5924 25.0872 34.6666 24.6403 34.6666 24.1522C34.6666 23.6674 34.5924 23.2222 34.444 22.8165C34.2989 22.4076 34.0746 22.0794 33.7712 21.8321C33.4678 21.5847 33.0852 21.461 32.6235 21.461C32.1585 21.461 31.7726 21.5847 31.4659 21.8321C31.1625 22.0794 30.9365 22.4076 30.7881 22.8165C30.643 23.2222 30.5705 23.6674 30.5705 24.1522C30.5705 24.6403 30.643 25.0872 30.7881 25.4929C30.9365 25.8985 31.1625 26.2234 31.4659 26.4674C31.7726 26.7115 32.1585 26.8335 32.6235 26.8335ZM40.6563 28.0703C40.0428 28.0703 39.4953 27.9136 39.0138 27.6003C38.5356 27.2837 38.1596 26.8335 37.8859 26.2498C37.6155 25.6627 37.4802 24.9586 37.4802 24.1374C37.4802 23.3162 37.6171 22.6137 37.8909 22.0299C38.1679 21.4462 38.5472 20.9993 39.0287 20.6893C39.5102 20.3793 40.056 20.2243 40.6661 20.2243C41.1378 20.2243 41.517 20.3034 41.804 20.4617C42.0942 20.6167 42.3185 20.7981 42.4768 21.0059C42.6384 21.2137 42.7637 21.3967 42.8527 21.555H42.9418V17.7903H44.421V27.9219H42.9764V26.7395H42.8527C42.7637 26.9011 42.6351 27.0858 42.4669 27.2936C42.302 27.5014 42.0744 27.6828 41.7842 27.8378C41.494 27.9928 41.118 28.0703 40.6563 28.0703ZM40.9828 26.8088C41.4082 26.8088 41.7677 26.6967 42.0612 26.4724C42.358 26.2448 42.5823 25.9299 42.734 25.5275C42.889 25.1251 42.9665 24.6568 42.9665 24.1225C42.9665 23.5949 42.8907 23.1331 42.739 22.7374C42.5872 22.3416 42.3646 22.0332 42.0711 21.8123C41.7776 21.5913 41.4148 21.4808 40.9828 21.4808C40.5375 21.4808 40.1665 21.5963 39.8697 21.8271C39.5728 22.058 39.3486 22.3729 39.1969 22.772C39.0485 23.1711 38.9743 23.6212 38.9743 24.1225C38.9743 24.6304 39.0501 25.0872 39.2018 25.4929C39.3535 25.8985 39.5778 26.2201 39.8746 26.4575C40.1747 26.6917 40.5441 26.8088 40.9828 26.8088ZM49.8071 28.0752C49.0584 28.0752 48.4136 27.9153 47.8728 27.5954C47.3352 27.2722 46.9196 26.8187 46.6261 26.2349C46.3359 25.6479 46.1908 24.9602 46.1908 24.172C46.1908 23.3937 46.3359 22.7077 46.6261 22.114C46.9196 21.5204 47.3286 21.057 47.853 20.7239C48.3807 20.3908 48.9974 20.2243 49.7032 20.2243C50.1319 20.2243 50.5475 20.2952 50.9498 20.437C51.3522 20.5788 51.7133 20.8014 52.0332 21.1048C52.3531 21.4083 52.6054 21.8024 52.7901 22.2872C52.9748 22.7687 53.0672 23.3541 53.0672 24.0434V24.5678H47.0268V23.4596H51.6177C51.6177 23.0705 51.5385 22.7258 51.3802 22.4257C51.2219 22.1223 50.9993 21.8832 50.7124 21.7084C50.4287 21.5336 50.0956 21.4462 49.7131 21.4462C49.2975 21.4462 48.9347 21.5484 48.6247 21.7529C48.318 21.9541 48.0805 22.2179 47.9123 22.5444C47.7474 22.8676 47.665 23.2189 47.665 23.5982V24.4639C47.665 24.9718 47.754 25.4038 47.9321 25.76C48.1135 26.1162 48.3658 26.3883 48.689 26.5763C49.0122 26.761 49.3899 26.8533 49.8219 26.8533C50.1022 26.8533 50.3578 26.8137 50.5887 26.7346C50.8195 26.6521 51.0191 26.5301 51.1873 26.3685C51.3555 26.2069 51.4841 26.0074 51.5731 25.7699L52.9732 26.0222C52.861 26.4345 52.6598 26.7956 52.3696 27.1056C52.0827 27.4123 51.7216 27.6514 51.2862 27.8229C50.8542 27.9911 50.3611 28.0752 49.8071 28.0752ZM56.1875 17.7903V27.9219H54.7083V17.7903H56.1875Z" fill="black"/>
<rect x="15.921" y="41.8633" width="254.736" height="39.8025" rx="11.9408" fill="#ECECEC"/>
<rect x="19.9013" y="45.8418" width="123.388" height="31.842" rx="7.9605" fill="white"/>
<path d="M68.0969 59.8758C68.0013 59.5757 67.8727 59.3069 67.7111 59.0695C67.5528 58.8287 67.3631 58.6242 67.1422 58.456C66.9212 58.2845 66.6689 58.1543 66.3853 58.0652C66.1049 57.9762 65.7966 57.9316 65.4602 57.9316C64.8896 57.9316 64.3751 58.0784 63.9167 58.3719C63.4583 58.6655 63.0955 59.0958 62.8283 59.6631C62.5645 60.2271 62.4326 60.918 62.4326 61.7359C62.4326 62.5571 62.5661 63.2514 62.8333 63.8186C63.1004 64.3859 63.4665 64.8163 63.9315 65.1098C64.3966 65.4033 64.9259 65.5501 65.5195 65.5501C66.0703 65.5501 66.5502 65.438 66.9591 65.2137C67.3714 64.9894 67.6896 64.6728 67.9139 64.2639C68.1415 63.8516 68.2553 63.3668 68.2553 62.8094L68.651 62.8836H65.752V61.6221H69.7344V62.7748C69.7344 63.6257 69.553 64.3644 69.1902 64.9911C68.8308 65.6144 68.3328 66.0959 67.6962 66.4356C67.063 66.7753 66.3374 66.9452 65.5195 66.9452C64.6027 66.9452 63.798 66.7341 63.1054 66.3119C62.4161 65.8898 61.8785 65.2912 61.4926 64.5162C61.1068 63.7378 60.9138 62.8144 60.9138 61.7458C60.9138 60.9378 61.026 60.2122 61.2502 59.5691C61.4745 58.926 61.7895 58.3802 62.1951 57.9316C62.6041 57.4798 63.0839 57.1352 63.6347 56.8977C64.1888 56.657 64.794 56.5366 65.4503 56.5366C65.9977 56.5366 66.5073 56.6174 66.9789 56.779C67.4538 56.9406 67.876 57.1698 68.2454 57.4666C68.618 57.7634 68.9264 58.1163 69.1705 58.5253C69.4145 58.9309 69.5794 59.3811 69.6652 59.8758H68.0969ZM71.6749 66.8066V56.6751H75.2862C76.0745 56.6751 76.7275 56.8186 77.2453 57.1055C77.7631 57.3924 78.1506 57.7849 78.4078 58.2829C78.6651 58.7776 78.7937 59.335 78.7937 59.955C78.7937 60.5783 78.6634 61.139 78.4029 61.637C78.1456 62.1317 77.7565 62.5241 77.2354 62.8144C76.7176 63.1013 76.0662 63.2448 75.2813 63.2448H72.7979V61.9486H75.1428C75.6408 61.9486 76.0448 61.8629 76.3548 61.6914C76.6648 61.5166 76.8924 61.2791 77.0375 60.979C77.1826 60.6789 77.2552 60.3376 77.2552 59.955C77.2552 59.5724 77.1826 59.2327 77.0375 58.9359C76.8924 58.6391 76.6632 58.4066 76.3499 58.2384C76.0398 58.0702 75.6309 57.9861 75.123 57.9861H73.2035V66.8066H71.6749ZM80.0861 57.991V56.6751H87.9272V57.991H84.766V66.8066H83.2423V57.991H80.0861ZM93.1884 61.0977V62.384H88.6964V61.0977H93.1884ZM94.9273 64.8278V63.5911L99.3054 56.6751H100.28V58.4956H99.6616L96.5301 63.4525V63.5317H102.531V64.8278H94.9273ZM99.7308 66.8066V64.4518L99.7407 63.8879V56.6751H101.19V66.8066H99.7308Z" fill="black"/>
<path d="M179.619 59.8758C179.524 59.5757 179.395 59.3069 179.233 59.0695C179.075 58.8287 178.885 58.6242 178.665 58.456C178.444 58.2845 178.191 58.1543 177.908 58.0652C177.627 57.9762 177.319 57.9316 176.983 57.9316C176.412 57.9316 175.897 58.0784 175.439 58.3719C174.981 58.6655 174.618 59.0958 174.351 59.6631C174.087 60.2271 173.955 60.918 173.955 61.7359C173.955 62.5571 174.089 63.2514 174.356 63.8186C174.623 64.3859 174.989 64.8163 175.454 65.1098C175.919 65.4033 176.448 65.5501 177.042 65.5501C177.593 65.5501 178.073 65.438 178.481 65.2137C178.894 64.9894 179.212 64.6728 179.436 64.2639C179.664 63.8516 179.778 63.3668 179.778 62.8094L180.173 62.8836H177.274V61.6221H181.257V62.7748C181.257 63.6257 181.075 64.3644 180.713 64.9911C180.353 65.6144 179.855 66.0959 179.219 66.4356C178.585 66.7753 177.86 66.9452 177.042 66.9452C176.125 66.9452 175.32 66.7341 174.628 66.3119C173.938 65.8898 173.401 65.2912 173.015 64.5162C172.629 63.7378 172.436 62.8144 172.436 61.7458C172.436 60.9378 172.548 60.2122 172.773 59.5691C172.997 58.926 173.312 58.3802 173.717 57.9316C174.126 57.4798 174.606 57.1352 175.157 56.8977C175.711 56.657 176.316 56.5366 176.973 56.5366C177.52 56.5366 178.03 56.6174 178.501 56.779C178.976 56.9406 179.398 57.1698 179.768 57.4666C180.14 57.7634 180.449 58.1163 180.693 58.5253C180.937 58.9309 181.102 59.3811 181.188 59.8758H179.619ZM183.197 66.8066V56.6751H186.809C187.597 56.6751 188.25 56.8186 188.768 57.1055C189.285 57.3924 189.673 57.7849 189.93 58.2829C190.187 58.7776 190.316 59.335 190.316 59.955C190.316 60.5783 190.186 61.139 189.925 61.637C189.668 62.1317 189.279 62.5241 188.758 62.8144C188.24 63.1013 187.589 63.2448 186.804 63.2448H184.32V61.9486H186.665C187.163 61.9486 187.567 61.8629 187.877 61.6914C188.187 61.5166 188.415 61.2791 188.56 60.979C188.705 60.6789 188.778 60.3376 188.778 59.955C188.778 59.5724 188.705 59.2327 188.56 58.9359C188.415 58.6391 188.186 58.4066 187.872 58.2384C187.562 58.0702 187.153 57.9861 186.645 57.9861H184.726V66.8066H183.197ZM191.608 57.991V56.6751H199.45V57.991H196.288V66.8066H194.765V57.991H191.608ZM204.711 61.0977V62.384H200.219V61.0977H204.711ZM210.054 66.9452C209.374 66.9452 208.767 66.8281 208.233 66.5939C207.702 66.3598 207.282 66.0349 206.972 65.6193C206.665 65.2005 206.5 64.7157 206.477 64.1649H208.03C208.05 64.465 208.151 64.7256 208.332 64.9466C208.517 65.1642 208.757 65.3324 209.054 65.4511C209.351 65.5699 209.681 65.6292 210.044 65.6292C210.443 65.6292 210.796 65.56 211.102 65.4215C211.412 65.283 211.655 65.09 211.83 64.8427C212.004 64.592 212.092 64.3034 212.092 63.9769C212.092 63.6372 212.004 63.3388 211.83 63.0815C211.658 62.821 211.406 62.6165 211.073 62.4681C210.743 62.3197 210.344 62.2455 209.875 62.2455H209.02V60.9988H209.875C210.251 60.9988 210.581 60.9312 210.865 60.796C211.152 60.6608 211.376 60.4728 211.538 60.232C211.699 59.988 211.78 59.7027 211.78 59.3762C211.78 59.0629 211.709 58.7908 211.567 58.5599C211.429 58.3258 211.231 58.1427 210.974 58.0108C210.72 57.8789 210.42 57.8129 210.073 57.8129C209.744 57.8129 209.435 57.8739 209.148 57.996C208.865 58.1147 208.634 58.2862 208.456 58.5104C208.278 58.7314 208.182 58.9969 208.169 59.3069H206.69C206.706 58.7594 206.868 58.2779 207.174 57.8624C207.484 57.4468 207.893 57.122 208.401 56.8878C208.909 56.6537 209.473 56.5366 210.093 56.5366C210.743 56.5366 211.303 56.6635 211.775 56.9175C212.25 57.1681 212.616 57.5029 212.873 57.9217C213.134 58.3406 213.263 58.799 213.259 59.297C213.263 59.8643 213.104 60.3458 212.784 60.7416C212.468 61.1373 212.046 61.4028 211.518 61.538V61.6172C212.191 61.7194 212.712 61.9866 213.081 62.4186C213.454 62.8507 213.638 63.3866 213.635 64.0264C213.638 64.5838 213.483 65.0834 213.17 65.5254C212.86 65.9673 212.436 66.3152 211.899 66.5692C211.361 66.8198 210.746 66.9452 210.054 66.9452ZM216.2 66.9006C215.93 66.9006 215.697 66.805 215.503 66.6137C215.308 66.4191 215.211 66.185 215.211 65.9112C215.211 65.6408 215.308 65.4099 215.503 65.2186C215.697 65.0241 215.93 64.9268 216.2 64.9268C216.471 64.9268 216.703 65.0241 216.898 65.2186C217.092 65.4099 217.19 65.6408 217.19 65.9112C217.19 66.0926 217.143 66.2592 217.051 66.4109C216.962 66.5593 216.843 66.678 216.695 66.7671C216.547 66.8561 216.382 66.9006 216.2 66.9006ZM222.332 66.9452C221.712 66.9452 221.155 66.8264 220.66 66.589C220.169 66.3482 219.776 66.0184 219.483 65.5996C219.189 65.1807 219.032 64.7025 219.013 64.1649H220.497C220.533 64.6003 220.726 64.9581 221.076 65.2384C221.425 65.5188 221.844 65.6589 222.332 65.6589C222.721 65.6589 223.066 65.5699 223.366 65.3918C223.669 65.2104 223.907 64.9614 224.078 64.6448C224.253 64.3282 224.341 63.967 224.341 63.5614C224.341 63.1491 224.252 62.7814 224.073 62.4582C223.895 62.135 223.65 61.881 223.336 61.6963C223.026 61.5117 222.67 61.4177 222.268 61.4144C221.961 61.4144 221.653 61.4671 221.343 61.5727C221.033 61.6782 220.782 61.8167 220.591 61.9882L219.191 61.7804L219.76 56.6751H225.33V57.9861H221.031L220.709 60.8207H220.769C220.967 60.6294 221.229 60.4695 221.555 60.3409C221.885 60.2122 222.238 60.1479 222.614 60.1479C223.231 60.1479 223.78 60.2947 224.261 60.5882C224.746 60.8817 225.127 61.2824 225.404 61.7903C225.685 62.2949 225.823 62.8754 225.82 63.5317C225.823 64.188 225.675 64.7734 225.375 65.2879C225.078 65.8024 224.665 66.208 224.138 66.5049C223.613 66.7984 223.012 66.9452 222.332 66.9452Z" fill="#898989"/>
<path d="M16.5345 106.848V105.533H24.3755V106.848H21.2144V115.664H19.6907V106.848H16.5345ZM28.1625 115.817C27.4138 115.817 26.7691 115.657 26.2282 115.338C25.6906 115.014 25.2751 114.561 24.9815 113.977C24.6913 113.39 24.5462 112.702 24.5462 111.914C24.5462 111.136 24.6913 110.45 24.9815 109.856C25.2751 109.263 25.684 108.799 26.2084 108.466C26.7361 108.133 27.3528 107.966 28.0586 107.966C28.4873 107.966 28.9029 108.037 29.3053 108.179C29.7076 108.321 30.0687 108.544 30.3887 108.847C30.7086 109.15 30.9609 109.545 31.1456 110.029C31.3302 110.511 31.4226 111.096 31.4226 111.786V112.31H25.3822V111.202H29.9731C29.9731 110.813 29.894 110.468 29.7356 110.168C29.5773 109.864 29.3547 109.625 29.0678 109.451C28.7842 109.276 28.4511 109.188 28.0685 109.188C27.6529 109.188 27.2902 109.291 26.9801 109.495C26.6734 109.696 26.436 109.96 26.2678 110.287C26.1029 110.61 26.0204 110.961 26.0204 111.34V112.206C26.0204 112.714 26.1095 113.146 26.2876 113.502C26.4689 113.858 26.7212 114.13 27.0445 114.318C27.3677 114.503 27.7453 114.596 28.1773 114.596C28.4577 114.596 28.7133 114.556 28.9441 114.477C29.175 114.394 29.3745 114.272 29.5427 114.111C29.7109 113.949 29.8395 113.75 29.9286 113.512L31.3286 113.764C31.2165 114.177 31.0153 114.538 30.7251 114.848C30.4381 115.155 30.077 115.394 29.6417 115.565C29.2096 115.733 28.7166 115.817 28.1625 115.817ZM33.0638 115.664V108.065H34.4836V109.302H34.5776C34.7359 108.883 34.9948 108.557 35.3543 108.323C35.7137 108.085 36.1441 107.966 36.6454 107.966C37.1533 107.966 37.5788 108.085 37.9218 108.323C38.2681 108.56 38.5237 108.887 38.6886 109.302H38.7677C38.9491 108.897 39.2377 108.573 39.6334 108.333C40.0292 108.088 40.5008 107.966 41.0483 107.966C41.7376 107.966 42.2999 108.182 42.7352 108.615C43.1739 109.047 43.3932 109.698 43.3932 110.569V115.664H41.914V110.707C41.914 110.193 41.7739 109.82 41.4935 109.589C41.2132 109.358 40.8785 109.243 40.4893 109.243C40.0078 109.243 39.6334 109.391 39.3663 109.688C39.0992 109.982 38.9656 110.359 38.9656 110.821V115.664H37.4914V110.613C37.4914 110.201 37.3628 109.869 37.1055 109.619C36.8483 109.368 36.5135 109.243 36.1013 109.243C35.8209 109.243 35.562 109.317 35.3246 109.465C35.0904 109.611 34.9008 109.813 34.7557 110.074C34.6138 110.334 34.5429 110.636 34.5429 110.979V115.664H33.0638ZM45.3757 118.514V108.065H46.8203V109.297H46.9439C47.0297 109.139 47.1534 108.956 47.315 108.748C47.4766 108.54 47.7008 108.359 47.9878 108.204C48.2747 108.046 48.654 107.966 49.1256 107.966C49.739 107.966 50.2865 108.121 50.768 108.431C51.2495 108.741 51.6272 109.188 51.9009 109.772C52.1779 110.356 52.3164 111.058 52.3164 111.88C52.3164 112.701 52.1796 113.405 51.9058 113.992C51.6321 114.576 51.2561 115.026 50.7779 115.343C50.2997 115.656 49.7539 115.812 49.1404 115.812C48.6787 115.812 48.3011 115.735 48.0076 115.58C47.7173 115.425 47.4898 115.244 47.3249 115.036C47.16 114.828 47.033 114.643 46.9439 114.482H46.8549V118.514H45.3757ZM46.8252 111.865C46.8252 112.399 46.9027 112.867 47.0577 113.27C47.2127 113.672 47.437 113.987 47.7305 114.215C48.0241 114.439 48.3835 114.551 48.809 114.551C49.2509 114.551 49.6203 114.434 49.9171 114.2C50.2139 113.962 50.4382 113.641 50.5899 113.235C50.7449 112.829 50.8224 112.373 50.8224 111.865C50.8224 111.363 50.7466 110.913 50.5949 110.514C50.4465 110.115 50.2222 109.8 49.9221 109.569C49.6252 109.338 49.2542 109.223 48.809 109.223C48.3802 109.223 48.0175 109.333 47.7206 109.554C47.4271 109.775 47.2045 110.084 47.0528 110.48C46.9011 110.875 46.8252 111.337 46.8252 111.865ZM57.2486 115.817C56.5 115.817 55.8552 115.657 55.3143 115.338C54.7768 115.014 54.3612 114.561 54.0677 113.977C53.7775 113.39 53.6324 112.702 53.6324 111.914C53.6324 111.136 53.7775 110.45 54.0677 109.856C54.3612 109.263 54.7702 108.799 55.2946 108.466C55.8222 108.133 56.439 107.966 57.1448 107.966C57.5735 107.966 57.9891 108.037 58.3914 108.179C58.7938 108.321 59.1549 108.544 59.4748 108.847C59.7947 109.15 60.047 109.545 60.2317 110.029C60.4164 110.511 60.5087 111.096 60.5087 111.786V112.31H54.4684V111.202H59.0593C59.0593 110.813 58.9801 110.468 58.8218 110.168C58.6635 109.864 58.4409 109.625 58.154 109.451C57.8703 109.276 57.5372 109.188 57.1547 109.188C56.7391 109.188 56.3763 109.291 56.0663 109.495C55.7596 109.696 55.5221 109.96 55.3539 110.287C55.189 110.61 55.1066 110.961 55.1066 111.34V112.206C55.1066 112.714 55.1956 113.146 55.3737 113.502C55.5551 113.858 55.8074 114.13 56.1306 114.318C56.4538 114.503 56.8314 114.596 57.2635 114.596C57.5438 114.596 57.7994 114.556 58.0303 114.477C58.2611 114.394 58.4607 114.272 58.6289 114.111C58.7971 113.949 58.9257 113.75 59.0147 113.512L60.4148 113.764C60.3026 114.177 60.1014 114.538 59.8112 114.848C59.5243 115.155 59.1632 115.394 58.7278 115.565C58.2958 115.733 57.8027 115.817 57.2486 115.817ZM62.1499 115.664V108.065H63.5796V109.272H63.6588C63.7973 108.864 64.0414 108.542 64.3909 108.308C64.7438 108.07 65.1429 107.952 65.5881 107.952C65.6805 107.952 65.7893 107.955 65.9146 107.962C66.0433 107.968 66.1438 107.976 66.2164 107.986V109.401C66.157 109.385 66.0515 109.366 65.8998 109.347C65.7481 109.324 65.5964 109.312 65.4447 109.312C65.0951 109.312 64.7834 109.386 64.5097 109.535C64.2392 109.68 64.0249 109.883 63.8666 110.143C63.7083 110.4 63.6291 110.694 63.6291 111.024V115.664H62.1499ZM69.6398 115.832C69.1582 115.832 68.7229 115.743 68.3337 115.565C67.9446 115.384 67.6362 115.122 67.4086 114.779C67.1844 114.436 67.0722 114.015 67.0722 113.517C67.0722 113.088 67.1547 112.735 67.3196 112.458C67.4845 112.181 67.7071 111.962 67.9874 111.8C68.2678 111.639 68.5811 111.517 68.9274 111.434C69.2737 111.352 69.6266 111.289 69.9861 111.246C70.4412 111.194 70.8106 111.151 71.0942 111.118C71.3778 111.081 71.5839 111.024 71.7126 110.945C71.8412 110.865 71.9055 110.737 71.9055 110.559V110.524C71.9055 110.092 71.7835 109.757 71.5394 109.52C71.2987 109.282 70.9392 109.164 70.461 109.164C69.963 109.164 69.5705 109.274 69.2836 109.495C68.9999 109.713 68.8037 109.955 68.6949 110.222L67.3048 109.906C67.4697 109.444 67.7104 109.071 68.027 108.788C68.3469 108.501 68.7147 108.293 69.1302 108.164C69.5458 108.032 69.9828 107.966 70.4412 107.966C70.7446 107.966 71.0662 108.003 71.4059 108.075C71.7489 108.145 72.0688 108.273 72.3656 108.461C72.6657 108.649 72.9114 108.918 73.1027 109.268C73.294 109.614 73.3896 110.064 73.3896 110.618V115.664H71.9451V114.625H71.8857C71.7901 114.816 71.6466 115.004 71.4553 115.189C71.264 115.374 71.0183 115.527 70.7182 115.649C70.4181 115.771 70.0586 115.832 69.6398 115.832ZM69.9613 114.645C70.3703 114.645 70.7199 114.564 71.0101 114.403C71.3036 114.241 71.5262 114.03 71.6779 113.769C71.833 113.506 71.9105 113.224 71.9105 112.923V111.944C71.8577 111.997 71.7554 112.046 71.6037 112.092C71.4553 112.135 71.2855 112.173 71.0942 112.206C70.9029 112.236 70.7166 112.264 70.5352 112.29C70.3538 112.313 70.2021 112.333 70.08 112.35C69.7931 112.386 69.5309 112.447 69.2935 112.533C69.0593 112.618 68.8713 112.742 68.7295 112.904C68.591 113.062 68.5217 113.273 68.5217 113.537C68.5217 113.903 68.6569 114.18 68.9274 114.368C69.1978 114.553 69.5425 114.645 69.9613 114.645ZM78.9068 108.065V109.253H74.7562V108.065H78.9068ZM75.8693 106.245H77.3485V113.433C77.3485 113.72 77.3914 113.936 77.4771 114.081C77.5629 114.223 77.6734 114.32 77.8086 114.373C77.9471 114.422 78.0971 114.447 78.2588 114.447C78.3775 114.447 78.4814 114.439 78.5704 114.422C78.6595 114.406 78.7287 114.393 78.7782 114.383L79.0453 115.605C78.9596 115.638 78.8376 115.671 78.6792 115.704C78.5209 115.74 78.3231 115.76 78.0856 115.763C77.6964 115.77 77.3337 115.7 76.9973 115.555C76.6609 115.41 76.3888 115.186 76.181 114.882C75.9732 114.579 75.8693 114.198 75.8693 113.74V106.245ZM85.3565 112.513V108.065H86.8406V115.664H85.3862V114.348H85.3071C85.1323 114.754 84.8519 115.092 84.4661 115.362C84.0835 115.629 83.6069 115.763 83.0364 115.763C82.5482 115.763 82.1162 115.656 81.7402 115.441C81.3676 115.224 81.074 114.902 80.8597 114.477C80.6486 114.051 80.543 113.525 80.543 112.899V108.065H82.0222V112.721C82.0222 113.238 82.1657 113.651 82.4526 113.957C82.7395 114.264 83.1122 114.417 83.5706 114.417C83.8477 114.417 84.1231 114.348 84.3968 114.21C84.6738 114.071 84.903 113.862 85.0844 113.581C85.2691 113.301 85.3598 112.945 85.3565 112.513ZM88.8281 115.664V108.065H90.2578V109.272H90.337C90.4755 108.864 90.7195 108.542 91.0691 108.308C91.422 108.07 91.8211 107.952 92.2663 107.952C92.3587 107.952 92.4675 107.955 92.5928 107.962C92.7214 107.968 92.822 107.976 92.8946 107.986V109.401C92.8352 109.385 92.7297 109.366 92.578 109.347C92.4263 109.324 92.2746 109.312 92.1228 109.312C91.7733 109.312 91.4616 109.386 91.1879 109.535C90.9174 109.68 90.703 109.883 90.5447 110.143C90.3864 110.4 90.3073 110.694 90.3073 111.024V115.664H88.8281ZM97.1775 115.817C96.4288 115.817 95.7841 115.657 95.2432 115.338C94.7056 115.014 94.2901 114.561 93.9965 113.977C93.7063 113.39 93.5612 112.702 93.5612 111.914C93.5612 111.136 93.7063 110.45 93.9965 109.856C94.2901 109.263 94.699 108.799 95.2234 108.466C95.7511 108.133 96.3678 107.966 97.0736 107.966C97.5023 107.966 97.9179 108.037 98.3203 108.179C98.7226 108.321 99.0838 108.544 99.4037 108.847C99.7236 109.15 99.9759 109.545 100.161 110.029C100.345 110.511 100.438 111.096 100.438 111.786V112.31H94.3972V111.202H98.9881C98.9881 110.813 98.909 110.468 98.7506 110.168C98.5923 109.864 98.3697 109.625 98.0828 109.451C97.7992 109.276 97.4661 109.188 97.0835 109.188C96.6679 109.188 96.3052 109.291 95.9951 109.495C95.6884 109.696 95.451 109.96 95.2828 110.287C95.1179 110.61 95.0354 110.961 95.0354 111.34V112.206C95.0354 112.714 95.1245 113.146 95.3026 113.502C95.4839 113.858 95.7362 114.13 96.0595 114.318C96.3827 114.503 96.7603 114.596 97.1923 114.596C97.4727 114.596 97.7283 114.556 97.9591 114.477C98.19 114.394 98.3895 114.272 98.5577 114.111C98.7259 113.949 98.8545 113.75 98.9436 113.512L100.344 113.764C100.231 114.177 100.03 114.538 99.7401 114.848C99.4531 115.155 99.092 115.394 98.6567 115.565C98.2246 115.733 97.7316 115.817 97.1775 115.817Z" fill="black"/>
<path d="M255.639 114.829C254.941 114.829 254.341 114.653 253.841 114.299C253.343 113.943 252.96 113.43 252.692 112.76C252.426 112.087 252.293 111.277 252.293 110.33C252.296 109.383 252.43 108.578 252.696 107.913C252.965 107.246 253.348 106.737 253.845 106.387C254.346 106.036 254.943 105.861 255.639 105.861C256.334 105.861 256.932 106.036 257.432 106.387C257.933 106.737 258.316 107.246 258.582 107.913C258.85 108.581 258.984 109.386 258.984 110.33C258.984 111.28 258.85 112.092 258.582 112.764C258.316 113.434 257.933 113.946 257.432 114.299C256.935 114.653 256.337 114.829 255.639 114.829ZM255.639 113.502C256.182 113.502 256.61 113.235 256.924 112.701C257.24 112.164 257.399 111.374 257.399 110.33C257.399 109.641 257.326 109.061 257.182 108.592C257.038 108.123 256.835 107.769 256.572 107.532C256.309 107.292 255.998 107.171 255.639 107.171C255.099 107.171 254.672 107.44 254.358 107.977C254.044 108.511 253.886 109.296 253.883 110.33C253.881 111.023 253.95 111.605 254.091 112.077C254.235 112.55 254.439 112.906 254.702 113.146C254.965 113.383 255.277 113.502 255.639 113.502ZM261.018 114.757C260.76 114.757 260.54 114.667 260.356 114.486C260.172 114.305 260.082 114.085 260.085 113.824C260.082 113.57 260.172 113.352 260.356 113.171C260.54 112.991 260.76 112.9 261.018 112.9C261.266 112.9 261.483 112.991 261.666 113.171C261.853 113.352 261.948 113.57 261.951 113.824C261.948 113.997 261.902 114.154 261.815 114.295C261.73 114.436 261.617 114.55 261.476 114.634C261.337 114.716 261.184 114.757 261.018 114.757ZM266.344 114.783C265.733 114.783 265.19 114.678 264.715 114.469C264.243 114.26 263.87 113.969 263.596 113.596C263.322 113.222 263.176 112.791 263.159 112.302H264.753C264.768 112.537 264.845 112.742 264.987 112.917C265.128 113.089 265.316 113.224 265.551 113.32C265.785 113.416 266.048 113.464 266.339 113.464C266.65 113.464 266.926 113.41 267.166 113.303C267.406 113.193 267.594 113.04 267.73 112.845C267.866 112.65 267.932 112.425 267.929 112.171C267.932 111.908 267.864 111.676 267.726 111.475C267.587 111.275 267.387 111.118 267.124 111.005C266.864 110.892 266.55 110.835 266.182 110.835H265.415V109.622H266.182C266.485 109.622 266.749 109.57 266.975 109.465C267.204 109.361 267.384 109.214 267.514 109.024C267.644 108.832 267.708 108.61 267.705 108.359C267.708 108.113 267.652 107.899 267.539 107.718C267.429 107.535 267.272 107.392 267.069 107.29C266.868 107.188 266.632 107.137 266.36 107.137C266.095 107.137 265.849 107.186 265.623 107.282C265.397 107.378 265.214 107.515 265.076 107.693C264.937 107.868 264.864 108.077 264.855 108.321H263.341C263.353 107.834 263.493 107.407 263.761 107.04C264.033 106.67 264.394 106.381 264.847 106.175C265.299 105.966 265.806 105.861 266.369 105.861C266.948 105.861 267.452 105.97 267.879 106.188C268.308 106.402 268.64 106.692 268.875 107.057C269.11 107.422 269.227 107.824 269.227 108.265C269.23 108.754 269.086 109.164 268.794 109.495C268.506 109.826 268.127 110.042 267.658 110.144V110.212C268.269 110.297 268.736 110.523 269.062 110.89C269.39 111.255 269.552 111.709 269.549 112.251C269.549 112.738 269.411 113.173 269.134 113.557C268.859 113.939 268.481 114.239 267.997 114.456C267.517 114.674 266.965 114.783 266.344 114.783Z" fill="#666666"/>
<rect x="15.4236" y="129.038" width="255.731" height="28.8568" rx="14.4284" fill="#EFEFEF" stroke="#DCDCDC" stroke-width="0.995063"/>
<rect x="16" y="130" width="85" height="27" rx="13.5" fill="white"/>
<g filter="url(#filter0_d_702_874)">
<ellipse cx="88.5087" cy="143.466" rx="13.5087" ry="13.9309" fill="white"/>
<path d="M101.52 143.466C101.52 150.9 95.6803 156.899 88.5087 156.899C81.3372 156.899 75.4975 150.9 75.4975 143.466C75.4975 136.032 81.3372 130.033 88.5087 130.033C95.6803 130.033 101.52 136.032 101.52 143.466Z" stroke="#DEDEDE" stroke-width="0.995063"/>
</g>
<path d="M17.0341 181.265H18.8892L22.1147 189.141H22.2335L25.4589 181.265H27.3141V191.396H25.8596V184.065H25.7656L22.7776 191.382H21.5705L18.5825 184.06H18.4885V191.396H17.0341V181.265ZM31.6291 191.565C31.1476 191.565 30.7123 191.476 30.3231 191.298C29.9339 191.116 29.6256 190.854 29.398 190.511C29.1737 190.168 29.0616 189.747 29.0616 189.249C29.0616 188.821 29.1441 188.468 29.309 188.191C29.4739 187.914 29.6965 187.694 29.9768 187.533C30.2571 187.371 30.5705 187.249 30.9168 187.167C31.263 187.084 31.6159 187.022 31.9754 186.979C32.4306 186.926 32.7999 186.883 33.0836 186.85C33.3672 186.814 33.5733 186.756 33.7019 186.677C33.8306 186.598 33.8949 186.469 33.8949 186.291V186.257C33.8949 185.824 33.7728 185.49 33.5288 185.252C33.288 185.015 32.9286 184.896 32.4503 184.896C31.9523 184.896 31.5599 185.007 31.2729 185.228C30.9893 185.445 30.7931 185.688 30.6842 185.955L29.2941 185.638C29.459 185.176 29.6998 184.804 30.0164 184.52C30.3363 184.233 30.704 184.025 31.1196 183.897C31.5351 183.765 31.9721 183.699 32.4306 183.699C32.734 183.699 33.0555 183.735 33.3952 183.808C33.7382 183.877 34.0581 184.006 34.355 184.194C34.6551 184.382 34.9008 184.65 35.0921 185C35.2833 185.346 35.379 185.796 35.379 186.35V191.396H33.9345V190.358H33.8751C33.7794 190.549 33.636 190.737 33.4447 190.922C33.2534 191.106 33.0077 191.26 32.7076 191.382C32.4075 191.504 32.048 191.565 31.6291 191.565ZM31.9507 190.377C32.3596 190.377 32.7092 190.297 32.9995 190.135C33.293 189.973 33.5156 189.762 33.6673 189.502C33.8223 189.238 33.8998 188.956 33.8998 188.656V187.676C33.8471 187.729 33.7448 187.779 33.5931 187.825C33.4447 187.868 33.2748 187.906 33.0836 187.938C32.8923 187.968 32.7059 187.996 32.5245 188.023C32.3432 188.046 32.1914 188.065 32.0694 188.082C31.7825 188.118 31.5203 188.179 31.2828 188.265C31.0487 188.351 30.8607 188.474 30.7189 188.636C30.5804 188.794 30.5111 189.005 30.5111 189.269C30.5111 189.635 30.6463 189.912 30.9168 190.1C31.1872 190.285 31.5318 190.377 31.9507 190.377ZM38.5167 183.798L40.1937 186.756L41.8856 183.798H43.5033L41.1336 187.597L43.5231 191.396H41.9054L40.1937 188.557L38.487 191.396H36.8643L39.229 187.597L36.894 183.798H38.5167ZM48.8275 191.396V181.265H50.3562V190.081H54.947V191.396H48.8275ZM59.8471 191.55C59.0984 191.55 58.4537 191.39 57.9128 191.07C57.3752 190.747 56.9597 190.293 56.6661 189.71C56.3759 189.122 56.2308 188.435 56.2308 187.647C56.2308 186.868 56.3759 186.182 56.6661 185.589C56.9597 184.995 57.3686 184.532 57.893 184.199C58.4207 183.865 59.0374 183.699 59.7432 183.699C60.1719 183.699 60.5875 183.77 60.9899 183.912C61.3922 184.053 61.7533 184.276 62.0733 184.579C62.3932 184.883 62.6455 185.277 62.8302 185.762C63.0148 186.243 63.1072 186.829 63.1072 187.518V188.042H57.0668V186.934H61.6577C61.6577 186.545 61.5785 186.2 61.4202 185.9C61.2619 185.597 61.0393 185.358 60.7524 185.183C60.4688 185.008 60.1357 184.921 59.7531 184.921C59.3375 184.921 58.9748 185.023 58.6647 185.228C58.358 185.429 58.1206 185.693 57.9524 186.019C57.7875 186.342 57.705 186.693 57.705 187.073V187.938C57.705 188.446 57.7941 188.878 57.9722 189.235C58.1535 189.591 58.4058 189.863 58.7291 190.051C59.0523 190.236 59.4299 190.328 59.8619 190.328C60.1423 190.328 60.3979 190.288 60.6287 190.209C60.8596 190.127 61.0591 190.005 61.2273 189.843C61.3955 189.682 61.5241 189.482 61.6132 189.245L63.0132 189.497C62.9011 189.909 62.6999 190.27 62.4097 190.58C62.1227 190.887 61.7616 191.126 61.3262 191.298C60.8942 191.466 60.4012 191.55 59.8471 191.55ZM66.2275 186.885V191.396H64.7484V183.798H66.1682V185.035H66.2622C66.437 184.632 66.7107 184.309 67.0834 184.065C67.4594 183.821 67.9326 183.699 68.5032 183.699C69.021 183.699 69.4744 183.808 69.8636 184.025C70.2528 184.24 70.5546 184.56 70.7689 184.985C70.9833 185.411 71.0905 185.937 71.0905 186.563V191.396H69.6113V186.741C69.6113 186.191 69.4679 185.76 69.1809 185.45C68.894 185.137 68.4999 184.98 67.9986 184.98C67.6556 184.98 67.3505 185.054 67.0834 185.203C66.8195 185.351 66.6101 185.569 66.4551 185.856C66.3034 186.139 66.2275 186.482 66.2275 186.885ZM76.2601 194.404C75.6566 194.404 75.1372 194.325 74.7018 194.167C74.2698 194.009 73.9169 193.799 73.6432 193.539C73.3694 193.278 73.1649 192.993 73.0297 192.683L74.3011 192.158C74.3902 192.303 74.5089 192.457 74.6573 192.618C74.809 192.783 75.0135 192.923 75.2707 193.039C75.5313 193.154 75.866 193.212 76.275 193.212C76.8357 193.212 77.299 193.075 77.6651 192.801C78.0312 192.531 78.2142 192.099 78.2142 191.505V190.011H78.1202C78.0312 190.173 77.9026 190.353 77.7344 190.551C77.5695 190.748 77.3419 190.92 77.0517 191.065C76.7614 191.21 76.3838 191.283 75.9188 191.283C75.3186 191.283 74.7777 191.143 74.2962 190.862C73.818 190.579 73.4387 190.161 73.1583 189.611C72.8813 189.057 72.7428 188.375 72.7428 187.567C72.7428 186.759 72.8797 186.067 73.1534 185.49C73.4304 184.913 73.8097 184.471 74.2912 184.164C74.7727 183.854 75.3186 183.699 75.9287 183.699C76.4003 183.699 76.7812 183.778 77.0715 183.936C77.3617 184.091 77.5876 184.273 77.7492 184.481C77.9141 184.688 78.0411 184.871 78.1301 185.03H78.239V183.798H79.6884V191.565C79.6884 192.218 79.5367 192.754 79.2333 193.172C78.9299 193.591 78.5193 193.901 78.0015 194.103C77.487 194.304 76.9066 194.404 76.2601 194.404ZM76.2453 190.056C76.6708 190.056 77.0302 189.957 77.3238 189.759C77.6206 189.558 77.8448 189.271 77.9966 188.898C78.1516 188.522 78.2291 188.072 78.2291 187.548C78.2291 187.036 78.1532 186.586 78.0015 186.197C77.8498 185.808 77.6272 185.505 77.3337 185.287C77.0401 185.066 76.6773 184.955 76.2453 184.955C75.8001 184.955 75.429 185.071 75.1322 185.302C74.8354 185.529 74.6111 185.839 74.4594 186.232C74.311 186.624 74.2368 187.063 74.2368 187.548C74.2368 188.046 74.3127 188.483 74.4644 188.859C74.6161 189.235 74.8403 189.528 75.1372 189.739C75.4373 189.95 75.8067 190.056 76.2453 190.056ZM85.2192 183.798V184.985H81.0687V183.798H85.2192ZM82.1818 181.977H83.6609V189.165C83.6609 189.452 83.7038 189.668 83.7895 189.813C83.8753 189.955 83.9858 190.053 84.121 190.105C84.2595 190.155 84.4096 190.18 84.5712 190.18C84.6899 190.18 84.7938 190.171 84.8828 190.155C84.9719 190.138 85.0412 190.125 85.0906 190.115L85.3578 191.337C85.272 191.37 85.15 191.403 84.9917 191.436C84.8334 191.472 84.6355 191.492 84.398 191.495C84.0089 191.502 83.6461 191.433 83.3097 191.288C82.9733 191.143 82.7012 190.918 82.4934 190.615C82.2856 190.311 82.1818 189.931 82.1818 189.472V181.977ZM88.4979 186.885V191.396H87.0187V181.265H88.4781V185.035H88.5721C88.7502 184.626 89.0223 184.301 89.3884 184.06C89.7544 183.819 90.2327 183.699 90.823 183.699C91.3441 183.699 91.7992 183.806 92.1884 184.02C92.5809 184.235 92.8843 184.555 93.0987 184.98C93.3163 185.402 93.4252 185.93 93.4252 186.563V191.396H91.946V186.741C91.946 186.184 91.8025 185.752 91.5156 185.445C91.2287 185.135 90.8296 184.98 90.3184 184.98C89.9688 184.98 89.6555 185.054 89.3785 185.203C89.1047 185.351 88.8887 185.569 88.7304 185.856C88.5754 186.139 88.4979 186.482 88.4979 186.885Z" fill="black"/>
<path d="M209.429 190.396V189.26L212.444 186.305C212.732 186.013 212.972 185.755 213.165 185.529C213.357 185.302 213.501 185.083 213.597 184.871C213.693 184.659 213.741 184.433 213.741 184.193C213.741 183.919 213.679 183.684 213.555 183.489C213.43 183.291 213.259 183.138 213.042 183.031C212.824 182.924 212.577 182.87 212.3 182.87C212.014 182.87 211.764 182.929 211.549 183.048C211.334 183.164 211.167 183.329 211.049 183.544C210.933 183.759 210.875 184.015 210.875 184.312H209.378C209.378 183.76 209.504 183.281 209.755 182.874C210.007 182.467 210.353 182.152 210.794 181.929C211.238 181.705 211.747 181.594 212.321 181.594C212.903 181.594 213.415 181.702 213.856 181.92C214.297 182.138 214.639 182.436 214.882 182.815C215.128 183.194 215.251 183.626 215.251 184.112C215.251 184.437 215.189 184.757 215.064 185.071C214.94 185.384 214.721 185.732 214.407 186.114C214.096 186.495 213.659 186.958 213.097 187.5L211.6 189.023V189.082H215.382V190.396H209.429ZM216.845 190.396V189.26L219.86 186.305C220.148 186.013 220.389 185.755 220.581 185.529C220.773 185.302 220.917 185.083 221.013 184.871C221.11 184.659 221.158 184.433 221.158 184.193C221.158 183.919 221.095 183.684 220.971 183.489C220.847 183.291 220.676 183.138 220.458 183.031C220.24 182.924 219.993 182.87 219.716 182.87C219.43 182.87 219.18 182.929 218.965 183.048C218.751 183.164 218.584 183.329 218.465 183.544C218.349 183.759 218.291 184.015 218.291 184.312H216.794C216.794 183.76 216.92 183.281 217.172 182.874C217.423 182.467 217.77 182.152 218.211 181.929C218.654 181.705 219.163 181.594 219.737 181.594C220.319 181.594 220.831 181.702 221.272 181.92C221.713 182.138 222.055 182.436 222.298 182.815C222.544 183.194 222.667 183.626 222.667 184.112C222.667 184.437 222.605 184.757 222.481 185.071C222.356 185.384 222.137 185.732 221.823 186.114C221.512 186.495 221.076 186.958 220.513 187.5L219.016 189.023V189.082H222.799V190.396H216.845ZM227.471 190.562C226.773 190.562 226.174 190.385 225.674 190.032C225.176 189.676 224.793 189.163 224.524 188.493C224.259 187.82 224.126 187.01 224.126 186.063C224.129 185.116 224.263 184.31 224.529 183.646C224.797 182.979 225.18 182.47 225.678 182.119C226.178 181.769 226.776 181.594 227.471 181.594C228.167 181.594 228.765 181.769 229.265 182.119C229.766 182.47 230.149 182.979 230.414 183.646C230.683 184.313 230.817 185.119 230.817 186.063C230.817 187.013 230.683 187.824 230.414 188.497C230.149 189.167 229.766 189.678 229.265 190.032C228.768 190.385 228.17 190.562 227.471 190.562ZM227.471 189.235C228.014 189.235 228.443 188.967 228.756 188.433C229.073 187.896 229.231 187.106 229.231 186.063C229.231 185.373 229.159 184.794 229.015 184.324C228.871 183.855 228.667 183.502 228.404 183.264C228.141 183.024 227.831 182.904 227.471 182.904C226.932 182.904 226.505 183.172 226.191 183.709C225.877 184.244 225.719 185.028 225.716 186.063C225.713 186.755 225.782 187.338 225.924 187.81C226.068 188.282 226.271 188.638 226.534 188.878C226.797 189.116 227.11 189.235 227.471 189.235ZM236.549 190.396L234.709 183.883H236.273L237.418 188.463H237.478L238.648 183.883H240.196L241.366 188.437H241.43L242.558 183.883H244.126L242.282 190.396H240.683L239.462 185.995H239.373L238.152 190.396H236.549ZM247.853 190.524C247.217 190.524 246.665 190.384 246.199 190.104C245.732 189.824 245.371 189.433 245.113 188.929C244.859 188.426 244.732 187.838 244.732 187.165C244.732 186.493 244.859 185.903 245.113 185.397C245.371 184.891 245.732 184.498 246.199 184.218C246.665 183.938 247.217 183.799 247.853 183.799C248.489 183.799 249.04 183.938 249.506 184.218C249.973 184.498 250.333 184.891 250.588 185.397C250.845 185.903 250.973 186.493 250.973 187.165C250.973 187.838 250.845 188.426 250.588 188.929C250.333 189.433 249.973 189.824 249.506 190.104C249.04 190.384 248.489 190.524 247.853 190.524ZM247.861 189.294C248.206 189.294 248.494 189.199 248.726 189.01C248.958 188.818 249.13 188.56 249.243 188.238C249.359 187.916 249.417 187.557 249.417 187.161C249.417 186.763 249.359 186.402 249.243 186.08C249.13 185.755 248.958 185.496 248.726 185.304C248.494 185.112 248.206 185.016 247.861 185.016C247.508 185.016 247.214 185.112 246.979 185.304C246.747 185.496 246.573 185.755 246.458 186.08C246.344 186.402 246.288 186.763 246.288 187.161C246.288 187.557 246.344 187.916 246.458 188.238C246.573 188.56 246.747 188.818 246.979 189.01C247.214 189.199 247.508 189.294 247.861 189.294ZM252.276 190.396V183.883H253.765V184.969H253.833C253.951 184.593 254.155 184.303 254.443 184.1C254.734 183.893 255.066 183.79 255.44 183.79C255.524 183.79 255.619 183.794 255.724 183.803C255.831 183.808 255.92 183.818 255.991 183.832V185.244C255.926 185.222 255.823 185.202 255.681 185.185C255.543 185.165 255.409 185.155 255.278 185.155C254.999 185.155 254.747 185.216 254.524 185.338C254.303 185.457 254.129 185.622 254.002 185.834C253.875 186.046 253.811 186.29 253.811 186.567V190.396H252.276ZM259.159 190.511C258.648 190.511 258.19 190.38 257.786 190.117C257.381 189.854 257.062 189.472 256.827 188.972C256.593 188.471 256.475 187.864 256.475 187.148C256.475 186.425 256.594 185.814 256.832 185.317C257.072 184.816 257.395 184.439 257.803 184.184C258.21 183.927 258.663 183.799 259.164 183.799C259.545 183.799 259.859 183.864 260.105 183.994C260.351 184.121 260.546 184.275 260.69 184.456C260.834 184.634 260.946 184.802 261.025 184.96H261.089V181.712H262.628V190.396H261.118V189.37H261.025C260.946 189.529 260.832 189.697 260.682 189.875C260.532 190.05 260.334 190.2 260.088 190.324C259.842 190.449 259.533 190.511 259.159 190.511ZM259.588 189.252C259.913 189.252 260.19 189.164 260.419 188.989C260.648 188.811 260.822 188.563 260.94 188.247C261.059 187.93 261.118 187.561 261.118 187.14C261.118 186.719 261.059 186.353 260.94 186.042C260.824 185.731 260.652 185.489 260.423 185.317C260.197 185.144 259.918 185.058 259.588 185.058C259.246 185.058 258.96 185.147 258.731 185.325C258.502 185.503 258.33 185.749 258.214 186.063C258.098 186.377 258.04 186.736 258.04 187.14C258.04 187.547 258.098 187.91 258.214 188.23C258.333 188.546 258.506 188.796 258.735 188.98C258.967 189.161 259.251 189.252 259.588 189.252ZM269.411 185.605L268.012 185.758C267.973 185.616 267.903 185.483 267.804 185.359C267.708 185.235 267.578 185.134 267.414 185.058C267.25 184.982 267.05 184.943 266.812 184.943C266.493 184.943 266.224 185.013 266.007 185.151C265.792 185.29 265.686 185.469 265.688 185.69C265.686 185.879 265.755 186.033 265.896 186.152C266.04 186.271 266.278 186.368 266.609 186.445L267.72 186.682C268.336 186.815 268.794 187.025 269.093 187.314C269.396 187.602 269.549 187.979 269.551 188.446C269.549 188.856 269.428 189.218 269.191 189.531C268.956 189.842 268.63 190.086 268.211 190.261C267.793 190.436 267.313 190.524 266.77 190.524C265.973 190.524 265.331 190.357 264.845 190.023C264.358 189.687 264.069 189.219 263.975 188.62L265.472 188.476C265.54 188.77 265.684 188.992 265.905 189.141C266.125 189.291 266.412 189.366 266.766 189.366C267.13 189.366 267.423 189.291 267.643 189.141C267.867 188.992 267.978 188.806 267.978 188.586C267.978 188.399 267.906 188.245 267.762 188.124C267.621 188.002 267.4 187.909 267.101 187.844L265.99 187.611C265.365 187.481 264.903 187.261 264.603 186.953C264.303 186.642 264.155 186.249 264.158 185.775C264.155 185.373 264.264 185.025 264.484 184.731C264.708 184.435 265.017 184.206 265.413 184.044C265.811 183.881 266.271 183.799 266.791 183.799C267.554 183.799 268.155 183.961 268.593 184.286C269.034 184.611 269.307 185.051 269.411 185.605Z" fill="#666666"/>
<rect x="15.4235" y="204.77" width="255.731" height="28.8568" rx="14.4284" fill="#EFEFEF" stroke="#DCDCDC" stroke-width="0.995063"/>
<rect x="16" y="205" width="127" height="28" rx="14" fill="white"/>
<g filter="url(#filter1_d_702_874)">
<ellipse cx="129.509" cy="219.198" rx="13.5087" ry="13.9309" fill="white"/>
<path d="M142.52 219.198C142.52 226.632 136.68 232.632 129.509 232.632C122.337 232.632 116.498 226.632 116.498 219.198C116.498 211.765 122.337 205.765 129.509 205.765C136.68 205.765 142.52 211.765 142.52 219.198Z" stroke="#DEDEDE" stroke-width="0.995063"/>
</g>
<rect x="0.497532" y="0.497532" width="289.005" height="266.005" rx="13.1898" stroke="#EFEFEF" stroke-width="0.995063"/>
<defs>
<filter id="filter0_d_702_874" x="45.1481" y="111.624" width="74.7805" height="75.6244" filterUnits="userSpaceOnUse" color-interpolation-filters="sRGB">
<feFlood flood-opacity="0" result="BackgroundImageFix"/>
<feColorMatrix in="SourceAlpha" type="matrix" values="0 0 0 0 0 0 0 0 0 0 0 0 0 0 0 0 0 0 127 0" result="hardAlpha"/>
<feOffset dx="-5.97038" dy="5.97038"/>
<feGaussianBlur stdDeviation="11.9408"/>
<feComposite in2="hardAlpha" operator="out"/>
<feColorMatrix type="matrix" values="0 0 0 0 0 0 0 0 0 0 0 0 0 0 0 0 0 0 0.1 0"/>
<feBlend mode="normal" in2="BackgroundImageFix" result="effect1_dropShadow_702_874"/>
<feBlend mode="normal" in="SourceGraphic" in2="effect1_dropShadow_702_874" result="shape"/>
</filter>
<filter id="filter1_d_702_874" x="86.1481" y="187.356" width="74.7805" height="75.6244" filterUnits="userSpaceOnUse" color-interpolation-filters="sRGB">
<feFlood flood-opacity="0" result="BackgroundImageFix"/>
<feColorMatrix in="SourceAlpha" type="matrix" values="0 0 0 0 0 0 0 0 0 0 0 0 0 0 0 0 0 0 127 0" result="hardAlpha"/>
<feOffset dx="-5.97038" dy="5.97038"/>
<feGaussianBlur stdDeviation="11.9408"/>
<feComposite in2="hardAlpha" operator="out"/>
<feColorMatrix type="matrix" values="0 0 0 0 0 0 0 0 0 0 0 0 0 0 0 0 0 0 0.1 0"/>
<feBlend mode="normal" in2="BackgroundImageFix" result="effect1_dropShadow_702_874"/>
<feBlend mode="normal" in="SourceGraphic" in2="effect1_dropShadow_702_874" result="shape"/>
</filter>
</defs>
</svg>
