<svg width="174" height="38" viewBox="0 0 174 38" fill="none" xmlns="http://www.w3.org/2000/svg">
<path d="M19.839 29.7362C19.839 30.8955 19.6363 31.8808 19.2598 32.7213C18.8833 33.5618 18.3909 34.2863 17.7827 34.8949C16.827 35.8513 15.6685 36.5178 14.3073 36.9236C12.9461 37.3293 11.498 37.5322 9.96297 37.5322C8.63071 37.5322 7.32741 37.3293 6.05308 36.9526C4.77875 36.5758 3.62026 35.9092 2.57763 34.9818C1.82461 34.3153 1.21641 33.4748 0.724053 32.4894C0.231697 31.5041 0 30.4318 0 29.2435H4.60498C4.60498 29.8522 4.72082 30.4028 4.98148 30.9245C5.21318 31.4461 5.53176 31.8808 5.90827 32.2576C6.42959 32.8082 7.09572 33.156 7.84873 33.3299C8.60175 33.5038 9.3258 33.5907 10.0499 33.5907C10.9187 33.5907 11.7297 33.5038 12.4827 33.3009C13.2357 33.0981 13.8729 32.7503 14.3362 32.2866C14.6259 31.9968 14.8576 31.678 15.0313 31.3302C15.2051 30.9824 15.321 30.5187 15.321 29.9101C15.321 29.0117 15.0313 28.3161 14.4231 27.8814C13.8439 27.4177 13.1488 27.1279 12.3958 26.983C11.5559 26.8091 10.6581 26.6932 9.64438 26.6352C8.65967 26.5773 7.73288 26.4613 6.92194 26.3164C6.05308 26.1715 5.2711 25.9397 4.51809 25.5919C3.76507 25.2441 3.09895 24.7804 2.5197 24.2298C1.94046 23.6502 1.50603 22.9836 1.15848 22.1721C0.810939 21.3606 0.666129 20.4622 0.666129 19.4479C0.666129 18.4625 0.868864 17.5931 1.24537 16.7816C1.65084 15.9701 2.17216 15.2456 2.80933 14.579C3.62026 13.7675 4.6629 13.13 5.93723 12.6663C7.21157 12.2026 8.57278 11.9707 10.0499 11.9707C11.3821 11.9707 12.6275 12.1736 13.8729 12.5793C15.0893 12.985 16.1319 13.5937 16.9428 14.3761C17.6959 15.0717 18.2751 15.8542 18.7385 16.7526C19.2019 17.6221 19.4336 18.6074 19.4625 19.6507H14.8576C14.8286 19.216 14.7128 18.7813 14.539 18.3466C14.3362 17.9119 14.1045 17.5351 13.786 17.2163C13.3805 16.8106 12.8302 16.4628 12.1062 16.2309C11.3821 15.9991 10.687 15.8832 10.0209 15.8832C9.3258 15.8832 8.60175 15.9701 7.87769 16.173C7.15364 16.3469 6.51648 16.7236 6.02412 17.2453C5.76346 17.5351 5.56073 17.8249 5.41591 18.1437C5.2711 18.4625 5.18422 18.8682 5.18422 19.3319C5.18422 20.1434 5.41592 20.752 5.87931 21.1867C6.3427 21.6215 6.95091 21.8823 7.67496 21.9982C8.45694 22.1142 9.35476 22.2301 10.3395 22.317C11.3242 22.404 12.222 22.5199 13.033 22.6358C13.9597 22.7807 14.8286 23.0126 15.6685 23.3893C16.4794 23.7371 17.2035 24.2298 17.8407 24.8094C18.4489 25.389 18.9412 26.1136 19.2888 26.954C19.6653 27.7365 19.839 28.6929 19.839 29.7362Z" fill="#D6002A"/>
<path d="M39.2728 37.0942L37.535 35.1525C36.5503 36.0219 35.4498 36.6885 34.2334 37.0942C33.0459 37.5 31.8005 37.7318 30.5262 37.7318C29.4256 37.7318 28.383 37.558 27.3983 37.2102C26.4136 36.8624 25.5447 36.3697 24.7917 35.7321C24.0387 35.0945 23.4594 34.312 23.025 33.3846C22.5906 32.4572 22.3589 31.4139 22.3589 30.2547C22.3589 28.7187 22.7644 27.4145 23.5463 26.3132C24.3573 25.2119 25.3999 24.2845 26.7322 23.473C26.3267 23.0673 25.9792 22.6326 25.6606 22.2269C25.342 21.8211 25.0524 21.4154 24.8207 20.9807C24.589 20.5749 24.4152 20.1112 24.2704 19.6475C24.1545 19.1838 24.0677 18.6622 24.0677 18.0825C24.0677 17.0972 24.2414 16.2277 24.6179 15.4742C24.9655 14.7207 25.4578 14.0541 26.066 13.5035C26.6742 12.9528 27.3693 12.5471 28.2092 12.2573C29.0202 11.9675 29.918 11.8516 30.8448 11.8516C31.7426 11.8516 32.6115 11.9965 33.4224 12.2573C34.2334 12.5181 34.9574 12.9239 35.5946 13.4455C36.2317 13.9672 36.7241 14.6048 37.1006 15.3583C37.4771 16.1118 37.6509 16.9812 37.6509 17.9666C37.6509 18.7781 37.535 19.5026 37.3033 20.1402C37.0716 20.7778 36.7531 21.3574 36.3186 21.8791C35.9132 22.4007 35.4208 22.8934 34.8416 23.3281C34.2623 23.7629 33.6541 24.1976 32.988 24.5743L37.2744 29.2403C37.4771 28.8346 37.6219 28.3999 37.7088 27.8782C37.7957 27.3565 37.8536 26.8059 37.9115 26.2263C37.9695 25.6756 37.9695 25.125 37.9695 24.6033V23.2122H44.3411V26.661H41.5028C41.4449 27.6464 41.3291 28.6027 41.1263 29.5591C40.9236 30.5155 40.5471 31.3849 40.0258 32.1964L44.5728 37.1522C44.5439 37.0943 39.2728 37.0942 39.2728 37.0942ZM29.2808 26.1683C28.8754 26.4291 28.4699 26.661 28.1223 26.8928C27.7748 27.1247 27.4562 27.3855 27.1956 27.7043C26.9349 27.9941 26.7322 28.3419 26.5584 28.7187C26.4136 29.0954 26.3267 29.5591 26.3267 30.0518C26.3267 30.6894 26.4425 31.24 26.7032 31.7327C26.9349 32.2254 27.2824 32.6311 27.6879 32.9499C28.0934 33.2687 28.5568 33.5296 29.1071 33.6745C29.6284 33.8483 30.2076 33.9063 30.7869 33.9063C31.5399 33.9063 32.2639 33.7904 33.0169 33.5875C33.77 33.3847 34.4071 32.9789 34.9284 32.3703L29.2808 26.1683ZM33.5962 18.1405C33.5962 17.2711 33.3355 16.6335 32.8142 16.1698C32.2929 15.7061 31.6268 15.4742 30.8448 15.4742C30.1207 15.4742 29.4836 15.6771 28.9333 16.1118C28.383 16.5465 28.0934 17.1841 28.0934 18.0536C28.0934 18.4593 28.1803 18.8071 28.3251 19.1548C28.4699 19.5026 28.6726 19.8214 28.8754 20.1402C29.1071 20.459 29.3388 20.7488 29.6284 21.0386C29.918 21.3284 30.1787 21.5893 30.4393 21.8501C30.8158 21.6472 31.1923 21.4154 31.5688 21.2125C31.9453 20.9807 32.2929 20.7488 32.5825 20.459C32.8721 20.1692 33.1328 19.8504 33.3066 19.4736C33.5093 19.0969 33.5962 18.6332 33.5962 18.1405Z" fill="#D6002A"/>
<path d="M66.2074 20.2908C66.2074 21.479 66.0337 22.5513 65.6572 23.5367C65.2807 24.5221 64.7304 25.3335 64.0063 26.0291C63.2823 26.7246 62.3555 27.2753 61.2839 27.652C60.1833 28.0288 58.9379 28.2317 57.5188 28.2317H52.3056V37.071H47.8455V12.3789H57.5188C58.9379 12.3789 60.1833 12.5818 61.2839 12.9585C62.3844 13.3353 63.2823 13.8859 64.0063 14.5525C64.7304 15.2481 65.2807 16.0595 65.6572 17.0449C66.0337 18.0303 66.2074 19.1026 66.2074 20.2908ZM61.6893 20.3198C61.6893 19.1315 61.3418 18.1752 60.6467 17.4216C59.9516 16.6681 58.8511 16.3204 57.345 16.3204H52.3056V24.2902H57.345C58.8511 24.2902 59.9516 23.9135 60.6467 23.1889C61.3418 22.4644 61.6893 21.508 61.6893 20.3198Z" fill="#D6002A"/>
<path d="M92.6498 37.0685L92.1285 34.3442C91.9548 34.692 91.6651 35.0688 91.2886 35.4455C90.9121 35.8223 90.4487 36.1701 89.9274 36.4599C89.4061 36.7497 88.7689 37.0105 88.1028 37.2134C87.4367 37.4163 86.7126 37.5032 85.9596 37.5032C84.5115 37.5032 83.1792 37.3003 81.9339 36.9236C80.6885 36.5178 79.5879 35.8223 78.6032 34.779C77.966 34.1124 77.4158 33.3879 77.0103 32.6633C76.6048 31.9098 76.2862 31.1273 76.0256 30.2869C75.7939 29.4464 75.6201 28.577 75.5332 27.6496C75.4464 26.7222 75.3884 25.7658 75.3884 24.7514C75.3884 23.7661 75.4174 22.8097 75.5043 21.8823C75.5912 20.9549 75.736 20.1144 75.9677 19.303C76.1994 18.4915 76.5179 17.709 76.9524 16.9555C77.3578 16.202 77.9081 15.5064 78.5743 14.8398C79.53 13.8835 80.6595 13.1589 81.9628 12.6952C83.2661 12.2026 84.5984 11.9707 85.9017 11.9707C87.4367 11.9707 88.8268 12.2315 90.0722 12.7242C91.3176 13.2459 92.3602 13.9124 93.2001 14.7819C93.8083 15.4195 94.3007 16.115 94.7351 16.9265C95.1406 17.738 95.4012 18.6654 95.4592 19.7667H90.8542C90.7963 19.274 90.6804 18.8682 90.4777 18.5205C90.2749 18.1727 90.0433 17.8249 89.7826 17.5061C88.9137 16.5208 87.6104 15.9991 85.8437 15.9991C85.1197 15.9991 84.3956 16.144 83.6426 16.4338C82.8896 16.7236 82.2814 17.1294 81.789 17.68C81.3836 18.1147 81.036 18.6364 80.7754 19.216C80.5147 19.7956 80.312 20.4043 80.1961 21.0418C80.0513 21.6794 79.9644 22.317 79.9355 22.9836C79.9065 23.6212 79.8776 24.2298 79.8776 24.7804C79.8776 25.3311 79.9065 25.9397 79.9355 26.6062C79.9934 27.2728 80.0803 27.9104 80.2251 28.577C80.3699 29.2146 80.5726 29.8521 80.8043 30.4318C81.065 31.0114 81.3836 31.5331 81.818 31.9678C82.3104 32.4894 82.9186 32.8952 83.6426 33.156C84.3667 33.4169 85.0907 33.5328 85.8148 33.5328C86.6257 33.5328 87.3498 33.4169 87.958 33.156C88.5662 32.8952 89.0875 32.5474 89.493 32.1127C90.1591 31.4171 90.5935 30.6926 90.7963 29.9101C90.999 29.1276 91.0859 28.2582 91.0859 27.3308H85.3224V23.5922H95.5461V37.0975C95.5461 37.0685 92.6498 37.0685 92.6498 37.0685Z" fill="#D6002A"/>
<path d="M106.436 37.0366C106.001 37.1236 105.683 37.1815 105.48 37.2395C105.277 37.2685 104.959 37.2974 104.524 37.2974C103.047 37.2974 101.86 36.9207 100.933 36.1382C100.035 35.3847 99.5718 34.1385 99.5718 32.3996V11.8809H103.945V31.6461C103.945 32.1678 104.061 32.6025 104.264 32.9213C104.466 33.2401 104.959 33.385 105.683 33.385C105.857 33.385 106.001 33.385 106.088 33.356C106.175 33.356 106.291 33.327 106.407 33.327C106.436 33.385 106.436 37.0366 106.436 37.0366Z" fill="#D6002A"/>
<path d="M124.884 28.0254C124.884 29.5614 124.711 30.8366 124.334 31.8799C123.958 32.9232 123.436 33.8506 122.77 34.7201C122.133 35.4736 121.293 36.1401 120.193 36.6908C119.092 37.2414 117.847 37.5312 116.456 37.5312C115.066 37.5312 113.821 37.2414 112.72 36.6908C111.62 36.1401 110.751 35.4736 110.114 34.7201C109.448 33.8506 108.926 32.9232 108.55 31.8799C108.173 30.8366 108 29.5614 108 28.0254C108 26.4894 108.173 25.2142 108.55 24.1709C108.926 23.1276 109.448 22.2001 110.114 21.3307C110.751 20.5772 111.591 19.9106 112.72 19.36C113.821 18.8093 115.066 18.5195 116.456 18.5195C117.847 18.5195 119.092 18.8093 120.193 19.36C121.293 19.9106 122.162 20.5772 122.77 21.3307C123.436 22.2001 123.958 23.1276 124.334 24.1709C124.711 25.2142 124.884 26.4894 124.884 28.0254ZM120.453 28.0254C120.453 27.1559 120.366 26.3445 120.222 25.533C120.048 24.7215 119.7 24.055 119.179 23.4463C118.889 23.1276 118.484 22.8377 118.02 22.6349C117.557 22.403 117.036 22.3161 116.427 22.3161C115.819 22.3161 115.298 22.432 114.835 22.6349C114.371 22.8377 113.995 23.1276 113.676 23.4463C113.155 24.026 112.807 24.7215 112.633 25.533C112.46 26.3445 112.402 27.1559 112.402 28.0254C112.402 28.8948 112.489 29.7063 112.633 30.5178C112.807 31.3293 113.155 31.9958 113.676 32.5754C113.966 32.8942 114.371 33.1841 114.835 33.3869C115.298 33.6188 115.819 33.7057 116.427 33.7057C117.036 33.7057 117.557 33.5898 118.02 33.3869C118.484 33.1551 118.86 32.8942 119.179 32.5754C119.7 31.9958 120.048 31.3003 120.222 30.5178C120.395 29.7063 120.453 28.8658 120.453 28.0254Z" fill="#D6002A"/>
<path d="M144.955 28.055C144.955 29.7649 144.695 31.3009 144.144 32.634C143.623 33.9672 142.812 35.0685 141.711 35.9669C141.161 36.4306 140.524 36.8073 139.771 37.0682C139.047 37.358 138.207 37.4739 137.309 37.4739C136.325 37.4739 135.34 37.271 134.413 36.8943C133.486 36.5175 132.762 35.9089 132.212 35.0685L131.922 37.0392H128.157V11.9414H132.502V20.288C132.907 19.7663 133.544 19.3606 134.355 19.0128C135.166 18.6651 136.122 18.5202 137.222 18.5202C138.149 18.5202 138.989 18.6361 139.713 18.8969C140.437 19.1577 141.074 19.5055 141.654 19.9692C143.884 21.7661 144.955 24.4613 144.955 28.055ZM140.524 27.997C140.524 27.2145 140.437 26.432 140.292 25.6495C140.148 24.896 139.829 24.2005 139.366 23.5919C139.047 23.1861 138.642 22.8674 138.178 22.5775C137.715 22.2877 137.135 22.1718 136.469 22.1718C135.6 22.1718 134.905 22.3457 134.384 22.7224C133.863 23.0702 133.428 23.5339 133.139 24.1135C132.849 24.6932 132.646 25.3018 132.531 25.9973C132.415 26.6929 132.386 27.3594 132.386 27.997C132.386 28.8665 132.502 29.7649 132.704 30.6923C132.907 31.6197 133.341 32.3442 133.95 32.9238C134.239 33.2137 134.616 33.4165 135.021 33.5904C135.427 33.7643 135.919 33.8223 136.469 33.8223C137.135 33.8223 137.715 33.6774 138.178 33.4165C138.642 33.1267 139.047 32.8079 139.366 32.4022C139.829 31.7936 140.148 31.098 140.292 30.3445C140.466 29.562 140.524 28.7795 140.524 27.997Z" fill="#D6002A"/>
<path d="M164.273 36.863C163.897 37.0369 163.578 37.1529 163.317 37.2398C163.057 37.3267 162.651 37.3557 162.13 37.3557C161.174 37.3557 160.45 37.0949 159.929 36.6022C159.407 36.0806 159.118 35.5009 159.06 34.8344C158.654 35.5879 157.959 36.2255 156.975 36.7471C155.99 37.2688 154.86 37.5586 153.557 37.5586C152.457 37.5586 151.501 37.4137 150.69 37.0949C149.879 36.7761 149.213 36.3704 148.663 35.8487C148.112 35.327 147.707 34.7184 147.417 34.0519C147.128 33.3563 147.012 32.6608 147.012 31.9072C147.012 31.0378 147.157 30.2843 147.475 29.6177C147.794 28.9512 148.228 28.3715 148.778 27.8789C149.329 27.3862 149.995 27.0094 150.719 26.7486C151.472 26.4878 152.254 26.3139 153.123 26.2559L158.452 25.8791V24.6909C158.452 23.8215 158.249 23.1259 157.844 22.6332C157.438 22.1116 156.627 21.8507 155.382 21.8507C154.368 21.8507 153.557 22.0826 153.007 22.5173C152.428 22.952 152.138 23.5896 152.08 24.4301H147.881C147.939 23.4157 148.199 22.5173 148.605 21.7928C149.01 21.0393 149.56 20.4307 150.227 19.967C150.893 19.5033 151.675 19.1265 152.572 18.8947C153.441 18.6628 154.397 18.5469 155.411 18.5469C156.975 18.5469 158.365 18.8077 159.581 19.3584C160.798 19.909 161.667 20.8654 162.217 22.2275C162.449 22.8071 162.593 23.4157 162.651 24.0243C162.709 24.6619 162.738 25.2705 162.738 25.8791V32.6028C162.738 33.0085 162.825 33.3273 162.97 33.5012C163.115 33.6751 163.375 33.762 163.752 33.762C163.926 33.762 164.07 33.7621 164.128 33.7331C164.186 33.7331 164.244 33.7331 164.302 33.7041L164.273 36.863ZM158.452 29.0381L153.847 29.3859C153.181 29.4438 152.572 29.6467 152.051 30.0524C151.53 30.4582 151.24 31.0088 151.24 31.7623C151.24 32.4579 151.501 33.0085 152.022 33.4143C152.543 33.82 153.152 34.0229 153.818 34.0229C155.179 34.0229 156.309 33.6751 157.148 32.9506C158.017 32.255 158.423 31.2117 158.423 29.8786C158.452 29.8496 158.452 29.0381 158.452 29.0381Z" fill="#D6002A"/>
<path d="M173.83 37.0366C173.396 37.1236 173.077 37.1815 172.875 37.2395C172.672 37.2685 172.353 37.2974 171.919 37.2974C170.442 37.2974 169.254 36.9207 168.328 36.1382C167.43 35.3847 166.966 34.1385 166.966 32.3996V11.8809H171.34V31.6461C171.34 32.1678 171.456 32.6025 171.658 32.9213C171.861 33.2401 172.353 33.385 173.077 33.385C173.251 33.385 173.396 33.385 173.483 33.356C173.57 33.356 173.686 33.327 173.801 33.327L173.83 37.0366Z" fill="#D6002A"/>
<path d="M173.831 0H0.0583496V3.99942H173.831V0Z" fill="black"/>
</svg>
