<svg width="62" height="27" viewBox="0 0 62 27" fill="none" xmlns="http://www.w3.org/2000/svg">
<path d="M16.7784 12.6664C14.6151 12.6664 14.4433 11.0187 14.4433 10.5334C14.4433 9.95723 14.5747 8.88569 15.9798 8.37013C17.3849 7.85458 17.6882 7.79393 18.689 7.48056V7.23794C18.689 6.75272 18.689 6.66174 18.5778 6.34836C18.4059 5.79238 17.86 5.41835 17.1019 5.41835C16.3842 5.41835 15.7675 5.8227 15.4845 6.41913L15.0801 6.17651C15.3227 5.28693 16.2426 4.39735 17.8196 4.39735C18.9114 4.39735 19.6695 4.71073 20.1143 5.39813C20.4479 5.95412 20.4884 6.70217 20.4884 7.46034C20.4884 8.14774 20.4479 8.9059 20.4479 9.52254C20.4479 9.9269 20.4075 10.3211 20.4075 10.5435C20.4075 11.0995 20.5187 11.5443 20.9635 11.5443C21.1656 11.5443 21.2061 11.4736 21.3678 11.3725L21.6104 11.6858C21.2061 12.2418 20.7209 12.6866 19.9223 12.6866C19.3056 12.6866 18.8608 12.3732 18.6789 11.8678C18.4261 12.2216 17.7691 12.6664 16.7784 12.6664ZM18.689 8.47122C17.6275 8.7846 17.2434 8.95645 16.9401 9.11819C16.4549 9.3608 16.2527 9.80559 16.2527 10.3818C16.2527 10.8266 16.4246 11.5443 17.4557 11.5443C17.7893 11.5443 18.2745 11.4736 18.7193 11.1703V8.46111H18.689V8.47122ZM0.826621 12.2418C0.826621 11.4432 0.826621 10.7659 0.755859 9.94712H1.24108C1.24108 10.4627 1.3725 10.8367 1.61511 11.0793C1.9487 11.4533 2.7473 11.6959 3.46503 11.6959C4.97125 11.6959 5.68898 11.1197 5.68898 9.87635C5.68898 8.81492 5.04202 8.37014 4.15244 7.74339L4.02102 7.63219L3.06068 6.98522C1.72631 6.09564 1.03891 5.40824 1.03891 4.00311C1.03891 3.31571 1.31185 1.05132 4.63766 1.05132C5.49691 1.05132 6.58867 1.16252 7.24575 1.2535C7.24575 1.3647 7.20531 1.87014 7.20531 2.31493C7.20531 2.83048 7.20531 2.9619 7.24575 3.57854H6.84139C6.84139 3.02255 6.66954 2.68896 6.43704 2.44634C6.12366 2.13297 5.41604 1.96112 4.65788 1.96112C2.87872 1.96112 2.67654 2.8507 2.67654 3.5381C2.67654 4.46812 3.16177 4.80171 4.21309 5.48911L5.41604 6.28771C6.43704 6.97511 7.39738 7.62208 7.39738 9.34059C7.39738 12.2216 4.68821 12.5249 3.55601 12.5249C2.5148 12.6664 1.64544 12.5148 0.826621 12.2418ZM22.3585 4.9129C22.7628 4.95334 23.3795 4.91291 23.9759 4.80171C24.4915 4.69051 24.6633 4.62986 25.0373 4.46812L25.2092 4.57931V5.19595C25.6135 4.88258 26.4121 4.43779 27.5443 4.43779C28.9899 4.43779 29.9199 5.12519 30.1828 6.32815C30.2535 6.64152 30.2939 7.34914 30.2939 7.77371V10.1089C30.2939 11.4129 30.3647 11.797 30.6073 12.0295C30.7387 12.1407 31.0117 12.2722 31.4059 12.2722V12.6462C30.8904 12.6057 29.9604 12.5754 29.4246 12.5754C28.7069 12.5754 27.888 12.6159 27.4432 12.6462V12.2722C27.8476 12.2317 28.0902 12.1003 28.2419 11.9992C28.4845 11.7566 28.5148 11.3118 28.5552 10.311C28.5552 9.99766 28.5957 9.38102 28.5957 8.93623C28.5957 8.36003 28.5957 7.73328 28.5249 7.11664C28.4137 6.09564 27.8779 5.61042 26.8367 5.61042C26.119 5.61042 25.6742 5.78227 25.3305 5.94401V10.1291C25.3305 11.4331 25.4013 11.8173 25.6439 12.0498C25.7753 12.161 26.0887 12.2924 26.402 12.2924V12.6664C25.7551 12.626 24.9565 12.5956 24.451 12.5956C23.3896 12.5956 23.0459 12.6361 22.4293 12.6664V12.2722C22.7628 12.2722 23.1167 12.1407 23.2885 11.9386C23.5311 11.6656 23.5614 10.9782 23.5614 9.64385V7.26827C23.5614 6.26749 23.521 5.86314 23.3896 5.65085C23.2784 5.479 23.0156 5.33748 22.4596 5.33748V4.89269H22.3888V4.9129H22.3585ZM32.2753 12.2216C32.6089 12.2216 32.9627 12.1104 33.1345 11.888C33.3772 11.6151 33.4075 10.9277 33.4075 9.59331V5.60031H32.3865V5.15552C32.8313 4.98367 33.2053 4.78149 33.4075 4.59953C33.4075 3.8818 33.4479 2.98211 33.5389 2.46656C33.8523 0.818817 34.9137 0 36.7232 0C37.5218 0 38.2597 0.272939 38.745 0.646966L38.7854 0.818817L37.9868 1.91057H37.7846C37.5117 1.26361 37.0972 0.889578 36.3795 0.889578C36.1369 0.889578 35.8033 0.960342 35.5809 1.16252C35.2473 1.49611 35.1765 2.02177 35.1765 3.05288V4.58942H36.9557V5.5902H35.1765V10.0179C35.1765 11.0793 35.217 11.5949 35.3484 11.797C35.5506 12.1306 36.2784 12.1711 36.612 12.1711V12.5754C36.0358 12.535 35.1058 12.5047 34.4487 12.5047C33.4479 12.5047 32.8009 12.5451 32.2854 12.5754L32.2753 12.2216ZM41.4642 12.7271C39.0381 12.7271 37.5925 11.2208 37.5925 8.68351C37.5925 6.70217 38.654 4.39735 41.6361 4.39735C44.0622 4.39735 45.5078 5.90357 45.5078 8.4409C45.5078 10.4222 44.4362 12.7271 41.4642 12.7271ZM41.5653 5.31726C41.0801 5.31726 40.7061 5.44867 40.4331 5.69129C39.7862 6.24727 39.4728 7.19751 39.4728 8.60264C39.4728 9.15863 39.584 11.8274 41.535 11.8274C42.0202 11.8274 42.3943 11.6959 42.6672 11.4533C43.3142 10.8973 43.6275 9.94712 43.6275 8.54199C43.6174 7.99611 43.5264 5.31726 41.5653 5.31726ZM46.3266 4.87247C46.8826 4.91291 47.4588 4.83203 48.0754 4.74105C48.5607 4.67029 48.874 4.5692 49.0358 4.46812L49.1672 4.53888V5.22628C49.5412 4.85225 50.168 4.46812 51.0171 4.46812C51.6338 4.46812 52.0381 4.63997 52.4222 4.95334V5.19595L51.7348 6.43934H51.4012C51.1991 6.06532 50.7846 5.72161 50.0669 5.72161C49.7333 5.72161 49.4502 5.79238 49.2076 5.96423V10.0482C49.2076 11.1096 49.2481 11.5848 49.3795 11.797C49.5817 12.1306 50.2691 12.1711 50.6431 12.1306V12.5754C50.0871 12.535 49.1369 12.5047 48.4798 12.5047C47.7216 12.5047 46.9432 12.5047 46.3165 12.5754V12.1711C46.7613 12.1306 47.0039 12.0397 47.1757 11.8375C47.4184 11.5645 47.4487 10.9075 47.4487 9.54276V7.31881C47.4487 6.31804 47.4487 5.91368 47.2768 5.7014C47.1454 5.52955 46.8725 5.42846 46.3468 5.42846V4.9129L46.3266 4.87247ZM57.5474 0.485224C58.0327 0.485224 58.6392 0.374027 59.4378 0.242612C59.8826 0.17185 60.1555 0.0707614 60.297 0.0404348L60.4285 0.111197C60.3577 0.758164 60.3577 2.24417 60.3577 3.29549V9.80559C60.3577 10.7659 60.3577 11.3826 60.4891 11.5848C60.6205 11.7566 60.8935 11.8981 61.4191 11.8981V12.3025C60.9036 12.3025 60.3274 12.3732 59.7107 12.4743C59.3064 12.5451 58.993 12.6057 58.8212 12.6765L58.619 12.6057V11.9183C58.2146 12.2317 57.4565 12.6765 56.395 12.6765C54.2014 12.6765 52.7963 11.1703 52.7963 8.80482C52.7963 8.00622 52.9277 7.2986 53.2006 6.64152C53.888 5.19595 55.2628 4.37714 57.0016 4.37714C57.6485 4.37714 58.2045 4.4479 58.5381 4.50855V2.82037C58.5381 1.81959 58.5381 1.31415 58.3663 1.07154C58.2551 0.899688 58.0933 0.828926 57.507 0.798599V0.475116H57.5474V0.485224ZM57.2644 11.5544C57.8204 11.5544 58.1944 11.4837 58.5684 11.2411V5.90357C58.437 5.77216 57.9518 5.34759 56.9914 5.34759C55.4549 5.34759 54.6967 6.40902 54.6967 8.61275C54.6664 9.53265 54.9393 11.5544 57.2644 11.5544ZM13.6548 11.797C13.4122 12.1104 12.7955 12.7271 11.4915 12.7271C10.2481 12.7271 9.57078 12.2823 9.26752 11.2815C9.1361 10.9075 9.1361 10.119 9.1361 9.66407C9.1361 8.40046 9.1361 7.36936 9.17654 6.1664V5.61042H8.105V5.29704C8.50935 5.12519 8.82273 4.96345 9.10578 4.74105C9.72242 4.25583 10.1268 3.67962 10.5817 2.82037H10.9153V4.59953H13.6244V5.60031H10.9153V9.78538C10.9153 11.049 11.1579 11.7364 12.3204 11.7364C12.8764 11.7364 13.2504 11.5645 13.4526 11.423L13.6548 11.797Z" fill="#8C1515"/>
<path d="M51.654 19.2766C51.5226 19.2766 51.3406 19.317 51.2496 19.408C51.1384 19.4788 51.1384 19.5798 51.1384 19.6506C51.1384 19.782 51.1789 19.8932 51.2698 20.1662L52.028 22.1475C52.1392 22.4609 52.2302 22.7035 52.2706 22.8652L53.2006 20.1561C53.3118 19.8427 53.332 19.782 53.332 19.6405C53.332 19.5697 53.2916 19.5091 53.2208 19.4383C53.1096 19.3676 52.9782 19.3069 52.8165 19.3069V18.9935C52.9277 18.9935 53.1501 18.9935 53.2613 19.034C53.3725 19.034 53.5747 19.0744 53.7465 19.0744C54.0801 19.0744 54.5653 19.034 54.7675 19.034V19.3473C54.6361 19.3878 54.3227 19.3069 54.0498 20.1055L52.0988 25.3116C51.8258 26.0697 51.4518 26.9997 50.1174 26.9997C49.5614 26.9997 49.1874 26.8683 48.874 26.5954V26.464L49.3593 25.8878H49.4907C49.6221 26.2011 49.895 26.3326 50.2893 26.3326C50.9059 26.3326 51.1789 25.7766 51.5933 24.6848L51.7045 24.3714L50.0669 20.0954C50.0669 20.055 50.0264 19.9842 49.9961 19.9235C49.9557 19.8124 49.8647 19.6102 49.8647 19.6102C49.7535 19.408 49.5918 19.3372 49.3795 19.3372V19.0239C49.6929 19.0643 50.2387 19.0643 50.5117 19.0643C50.6835 19.0643 50.9565 19.0643 51.2294 19.0239C51.3608 19.0239 51.6034 18.9834 51.7146 18.9834V19.2564H51.6742V19.2766H51.654ZM33.4985 19.2058C33.8321 19.2463 34.2162 19.1654 34.5902 19.0946C34.9036 19.0239 35.0754 18.9834 35.2069 18.9228L35.3181 18.9632V19.408C35.5607 19.1654 35.9347 18.9228 36.4806 18.9228C36.8849 18.9228 37.1275 19.034 37.3702 19.2361V19.408L36.9658 20.2066H36.7636C36.6322 19.964 36.3896 19.7618 35.9044 19.7618C35.7022 19.7618 35.5303 19.8326 35.3484 19.9337V22.5114C35.3484 23.1988 35.3888 23.5122 35.4596 23.6436C35.591 23.8458 36.0156 23.8862 36.2582 23.8862V24.1592C35.9246 24.1187 35.2978 24.1187 34.8834 24.1187C34.3982 24.1187 33.8826 24.1187 33.5086 24.1895V23.9165C33.7815 23.9165 33.9534 23.8054 34.0646 23.7144C34.2364 23.5425 34.2364 23.1382 34.2364 22.2385V20.7929C34.2364 20.1763 34.2364 19.9033 34.1252 19.7719C34.0545 19.6607 33.8523 19.6001 33.549 19.6001V19.226H33.4985V19.2058ZM10.6727 24.1794C9.22709 24.1794 8.37795 23.7346 8.06458 22.7742C7.89272 22.289 7.89272 21.6825 7.89272 21.1973V18.4578C7.89272 17.6389 7.85229 17.4974 7.69055 17.366C7.61979 17.2952 7.44793 17.2346 7.20532 17.1942V16.9212C7.53891 16.9617 8.13534 16.992 8.46893 16.992C9.04513 16.992 9.39894 16.992 9.77297 16.9212V17.2346C9.53036 17.2346 9.36862 17.3054 9.21699 17.4368C9.04513 17.6086 9.04514 17.922 9.04514 18.8116V21.2377C9.04514 22.6833 9.17655 23.6133 10.794 23.6133C12.4417 23.6133 12.5428 22.6529 12.5428 21.1872V18.5184C12.5428 17.6996 12.5024 17.5581 12.3406 17.4267C12.2294 17.3559 12.0677 17.2952 11.8554 17.2548V16.9819C12.1688 16.9819 12.5731 17.0223 12.9876 17.0223C13.3616 17.0223 13.7458 17.0223 14.1905 16.9515V17.2649C13.9479 17.2649 13.7862 17.3357 13.6346 17.4671C13.4627 17.6389 13.4627 17.9523 13.4627 18.8419V20.9041C13.4627 21.5511 13.4627 22.2789 13.2605 22.8551C12.937 23.7346 12.1081 24.1794 10.6727 24.1794ZM20.4479 23.866C20.7209 23.8256 20.8927 23.7952 21.0241 23.6638C21.196 23.492 21.196 23.0876 21.196 22.1879V20.7424C21.196 20.1257 21.196 19.8123 21.0848 19.6809C21.014 19.5697 20.8826 19.5091 20.5086 19.4788V19.1654C20.7108 19.2058 21.2667 19.1249 21.6711 19.0542C21.8733 19.0138 22.0755 18.943 22.2271 18.8823L22.3383 18.9935C22.2979 19.3271 22.2978 20.055 22.2978 21.0153V22.4912C22.2978 23.1786 22.3383 23.492 22.409 23.6234C22.5202 23.7548 22.7224 23.866 23.0257 23.866V24.1086C22.7527 24.0682 22.2271 24.0682 21.7823 24.0682C21.2667 24.0682 20.7209 24.1086 20.4479 24.1389V23.866ZM21.7115 18.0029C21.3072 18.0029 21.0646 17.7603 21.0646 17.3862C21.0646 17.0122 21.3375 16.7393 21.752 16.7393C22.1563 16.7393 22.3989 16.9819 22.3989 17.3559C22.3888 17.7603 22.1159 18.0029 21.7115 18.0029ZM42.1213 23.866C42.3943 23.8256 42.5661 23.7952 42.6975 23.6638C42.8694 23.492 42.8694 23.0876 42.8694 22.1879V20.7424C42.8694 20.1257 42.8694 19.8123 42.7582 19.6809C42.6874 19.5697 42.556 19.5091 42.182 19.4788V19.1654C42.3842 19.2058 42.9401 19.1249 43.3445 19.0542C43.5467 19.0138 43.7893 18.943 43.9005 18.8823L44.0117 18.9935C43.9712 19.3271 43.9712 20.055 43.9712 21.0153V22.4912C43.9712 23.1786 44.0117 23.492 44.0824 23.6234C44.1936 23.7548 44.3958 23.866 44.6991 23.866V24.1086C44.3857 24.0682 43.8803 24.0682 43.4355 24.0682C42.9199 24.0682 42.374 24.1086 42.1011 24.1389V23.866H42.1213ZM43.3849 18.0029C42.9806 18.0029 42.738 17.7603 42.738 17.3862C42.738 17.0122 43.0109 16.7393 43.4254 16.7393C43.8297 16.7393 44.0723 16.9819 44.0723 17.3559C44.0723 17.7603 43.7893 18.0029 43.3849 18.0029ZM37.9666 23.9368C37.9666 23.4212 37.9261 22.8753 37.8958 22.6024H38.2294C38.2294 22.8753 38.3002 23.1179 38.4316 23.2494C38.6338 23.492 38.8764 23.583 39.3212 23.583H39.3919C39.9479 23.583 40.2512 23.3403 40.2512 22.8652C40.2512 22.4912 40.0086 22.3092 39.6042 22.0666L38.8865 21.6218C38.5125 21.3792 38.0677 21.0456 38.0677 20.3178C38.0677 19.7416 38.3103 19.2968 38.7854 19.0542C39.0988 18.8823 39.584 18.8823 39.8064 18.8823C40.2107 18.8823 40.8072 18.9531 41.1408 19.0138C41.1003 19.1452 41.1003 19.499 41.1003 19.6304C41.1003 19.7416 41.1003 20.2066 41.1408 20.3178H40.8072C40.8072 20.1156 40.7364 19.9134 40.605 19.7416C40.4736 19.5697 40.1602 19.4686 39.7862 19.4686C39.2706 19.4686 38.9876 19.6708 38.9876 20.1156C38.9876 20.4492 39.2605 20.6312 39.5031 20.803H39.5436L40.231 21.2074C40.6758 21.4803 41.252 21.824 41.252 22.6125C41.252 23.9469 40.0086 24.1491 39.3009 24.1491C38.8966 24.1389 38.4518 24.1086 37.9666 23.9368ZM48.7325 23.6032C48.5607 23.775 48.1765 24.1794 47.3577 24.1794C46.5591 24.1794 46.1143 23.9064 45.9526 23.2494C45.8818 23.0067 45.8818 22.4912 45.8818 22.2284C45.8818 21.4095 45.8818 20.7525 45.8818 20.0044V19.6708H45.1944V19.4686C45.4674 19.3575 45.6392 19.2665 45.8414 19.1351C46.2154 18.8217 46.4883 18.4477 46.8017 17.8917H47.0443V19.0239H48.7527V19.6405H47.0443V22.3092C47.0443 23.1078 47.1758 23.5728 47.9339 23.5728C48.2675 23.5728 48.5101 23.4616 48.6516 23.3707L48.7325 23.6032ZM25.5428 19.0036C25.4316 19.0036 25.2092 19.0036 25.0576 19.0441C24.7846 19.0441 24.5016 19.0845 24.2994 19.0845C23.9254 19.0845 23.3694 19.0441 23.2076 19.0441V19.3575C23.2784 19.3575 23.5412 19.317 23.7232 19.6708C23.794 19.8022 23.8344 19.9134 23.8546 19.9842C23.895 20.055 23.9254 20.1156 23.9254 20.1561L25.5731 24.2704L26.0887 24.1592L27.9083 20.1156C27.9083 20.0752 27.9487 20.0449 27.979 19.9842C28.0195 19.9438 28.0195 19.873 28.1509 19.6708C28.2621 19.4686 28.4845 19.3575 28.6664 19.3575V19.0441C28.4643 19.0441 28.0195 19.0845 27.6657 19.0845C27.4938 19.0845 27.3321 19.0845 27.1501 19.0441C27.0187 19.0441 26.8165 19.0036 26.6649 19.0036V19.2766C26.8367 19.2766 26.9985 19.3473 27.0692 19.408C27.1097 19.4484 27.1804 19.5394 27.1804 19.6102C27.1804 19.7214 27.14 19.8124 27.049 20.1257L26.0482 22.5519C26.0078 22.4204 25.937 22.2183 25.8461 21.9352L25.1587 20.1156C25.0475 19.8427 25.0272 19.7416 25.0272 19.6001C25.0272 19.5293 25.0272 19.4686 25.098 19.4282C25.2092 19.317 25.3709 19.2564 25.5428 19.2564V18.9834V19.0036ZM14.3422 19.2058C14.6151 19.2463 14.9891 19.2058 15.3632 19.1351C15.6765 19.0643 15.808 19.0239 16.0506 18.9329L16.1618 19.0036V19.408C16.4044 19.2058 16.9604 18.9228 17.6377 18.9228C18.5677 18.9228 19.1439 19.3676 19.3258 20.1257C19.3663 20.3279 19.3966 20.7727 19.3966 21.0557V22.5316C19.3966 23.3505 19.437 23.5931 19.5988 23.775C19.6695 23.8458 19.8717 23.9064 20.084 23.9064V24.1491C19.7504 24.1491 19.154 24.1086 18.8204 24.1086C18.3352 24.1086 17.8196 24.149 17.5568 24.1794V23.9368C17.7994 23.8963 17.9611 23.8256 18.0723 23.7649C18.2038 23.6335 18.2442 23.3201 18.2745 22.7035C18.2745 22.5013 18.2745 22.1273 18.2745 21.8139C18.2745 21.4399 18.2745 21.0153 18.2341 20.6514C18.1633 20.0044 17.8297 19.691 17.1727 19.691C16.7279 19.691 16.4145 19.8022 16.2123 19.8932V22.5822C16.2123 23.401 16.2528 23.6436 16.4145 23.8256C16.4853 23.8963 16.6874 23.957 16.8997 23.957V24.1996C16.4549 24.0884 15.9394 24.0884 15.5957 24.0884C14.9083 24.0884 14.7061 24.0884 14.3321 24.1592V23.9165C14.5342 23.9165 14.7769 23.8458 14.8881 23.7144C15.0195 23.5425 15.0599 23.0977 15.0599 22.2385V20.7929C15.0599 20.1763 15.0599 19.9033 14.9487 19.7719C14.8779 19.6607 14.7061 19.5697 14.3725 19.6001V19.2159H14.3422V19.2058ZM31.0016 24.1794C29.465 24.1794 28.626 23.2898 28.626 21.6724C28.626 21.3994 28.6968 18.8924 31.0218 18.8924C31.7092 18.8924 32.3258 19.1654 32.5988 19.6506C32.9121 20.1358 32.9324 20.611 32.9324 21.0254V21.3388H29.7481C29.7481 21.6117 29.7885 21.824 29.8188 21.9858C29.9907 22.9865 30.5366 23.4616 31.507 23.4616C32.063 23.4616 32.3966 23.3505 32.71 23.1483L32.8414 23.3909C32.5179 23.8458 31.8305 24.1794 31.0016 24.1794ZM29.7683 20.7525H31.7496C31.7496 20.1358 31.6384 19.4484 30.7489 19.4484C29.9705 19.4889 29.8087 20.2268 29.7683 20.7525Z" fill="#8C1515"/>
</svg>
