<svg width="32" height="32" viewBox="0 0 300 300" fill="none" xmlns="http://www.w3.org/2000/svg"><circle cx="150" cy="150" r="150" fill="#FF7A00"></circle><path d="M194.949 70.0041C194.949 99.4331 187.411 135.707 175.745 159.704C163.386 185.171 146.344 214.046 124.674 210.277C101.674 206.259 104.112 176.636 106.495 161.755C121.653 159.982 135.426 151.53 146.732 136.898C154.574 126.756 175.994 87.9054 152.052 71.9716C132.128 58.7258 114.088 81.0885 102.616 102.62C96.6581 113.815 91.9749 125.537 88.5942 137.646C80.7243 135.43 72.0508 125.232 85.6845 94.2512L65.4833 84.1644C42.0398 135.901 67.423 155.853 83.9665 159.843C74.711 220.668 110.68 233.277 128.747 233.277C163.802 233.277 188.797 185.337 194.976 167.99V231.393H217.561V70.0041H194.949ZM140.164 91.1476C144.155 93.2259 134.345 127.144 112.37 136.981C115.474 125.537 134.29 88.0994 140.164 91.1476Z" fill="white"></path></svg>