<svg xmlns="http://www.w3.org/2000/svg" width="16" height="16" viewBox="0 0 20 18" fill="none"><path d="M6.2896 17.2237C13.8368 17.2237 17.9648 10.9709 17.9648 5.5485C17.9648 5.3709 17.9648 5.1941 17.9528 5.0181C18.7559 4.43723 19.4491 3.718 20 2.8941C19.2512 3.2261 18.4567 3.44373 17.6432 3.5397C18.4998 3.02694 19.141 2.22035 19.4472 1.2701C18.6417 1.7481 17.7605 2.08495 16.8416 2.2661C16.2229 1.60824 15.4047 1.17263 14.5135 1.02667C13.6223 0.880703 12.7078 1.03253 11.9116 1.45864C11.1154 1.88476 10.4819 2.56141 10.109 3.38389C9.73605 4.20637 9.64462 5.12882 9.8488 6.0085C8.21741 5.92666 6.62146 5.50269 5.16455 4.7641C3.70763 4.02551 2.4223 2.98881 1.392 1.7213C0.867274 2.62463 0.70656 3.69399 0.942583 4.71165C1.17861 5.72931 1.79362 6.61876 2.6624 7.1989C2.00936 7.17976 1.37054 7.00359 0.8 6.6853V6.7373C0.800259 7.68467 1.12821 8.60279 1.72823 9.33594C2.32824 10.0691 3.16338 10.5721 4.092 10.7597C3.4879 10.9245 2.85406 10.9486 2.2392 10.8301C2.50151 11.6454 3.01202 12.3583 3.69937 12.8692C4.38671 13.3801 5.21652 13.6635 6.0728 13.6797C5.22203 14.3484 4.24776 14.8429 3.20573 15.1347C2.16369 15.4265 1.07435 15.5101 0 15.3805C1.87653 16.5847 4.05994 17.2234 6.2896 17.2205" fill="#acacac"></path></svg>