<svg width="80" height="100%" viewBox="0 0 672 145" fill="none" xmlns="http://www.w3.org/2000/svg"><path d="M670.419 98.3425H670.857L670.915 97.9086C671.305 94.9801 671.5 91.6665 671.5 88.7429C671.5 74.1053 666.521 62.1144 658.188 53.7817C649.856 45.45 638.205 40.8086 624.921 40.8086C595.777 40.8086 575.244 62.7375 575.244 92.2279C575.244 121.916 595.974 143.647 625.115 143.647C648.332 143.647 666.987 129.979 670.331 111.095L670.435 110.508H669.838H646.992H646.626L646.516 110.857C644.281 117.932 635.441 123.286 625.115 123.286C617.975 123.286 611.909 120.814 607.435 116.411C603.064 112.109 600.184 105.933 599.339 98.3425H670.419ZM647.019 81.0793H600.196C603.24 69.2364 613.177 61.1695 625.308 61.1695C631.483 61.1695 636.632 63.257 640.379 66.8392C644.016 70.316 646.36 75.2278 647.019 81.0793Z" fill="black" stroke="black"></path><path d="M538.645 140.825V141.325H539.145H561.216H561.716V140.825V1.42578V0.925781H561.216H539.145H538.645V1.42578V140.825Z" fill="black" stroke="black"></path><path d="M498.448 0.925781H497.948V1.42578V53.3939H497.534C491.381 45.4216 480.262 40.8093 468.245 40.8093C441.961 40.8093 423.215 62.9804 423.215 92.2286C423.215 121.868 441.964 143.648 468.439 143.648C481.224 143.648 493.124 138.463 499.101 129.708H499.544L500.661 140.874L500.706 141.325H501.159H520.52H521.02V140.825V1.42578V0.925781H520.52H498.448ZM472.698 122.706C465.099 122.706 458.705 119.624 454.203 114.292C449.695 108.954 447.061 101.331 447.061 92.2286C447.061 83.1262 449.695 75.5033 454.203 70.1651C458.705 64.8335 465.099 61.7511 472.698 61.7511C480.298 61.7511 486.593 64.7859 490.997 70.0893C495.407 75.4011 497.948 83.0238 497.948 92.2286C497.948 101.531 495.407 109.153 490.997 114.44C486.595 119.718 480.301 122.706 472.698 122.706Z" fill="black" stroke="black"></path><path d="M386.886 0.925781H386.386V1.42578V53.3939H385.971C379.819 45.4216 368.7 40.8093 356.683 40.8093C330.398 40.8093 311.652 62.9804 311.652 92.2286C311.652 121.868 330.402 143.648 356.876 143.648C369.661 143.648 381.561 138.463 387.539 129.708H387.982L389.099 140.874L389.144 141.325H389.596H408.957H409.457V140.825V1.42578V0.925781H408.957H386.886ZM361.136 122.706C353.537 122.706 347.143 119.624 342.641 114.292C338.133 108.954 335.498 101.331 335.498 92.2286C335.498 83.1262 338.133 75.5033 342.641 70.1651C347.143 64.8335 353.537 61.7511 361.136 61.7511C368.735 61.7511 375.03 64.7859 379.434 70.0893C383.845 75.4011 386.386 83.0238 386.386 92.2286C386.386 101.531 383.844 109.153 379.435 114.44C375.032 119.718 368.738 122.706 361.136 122.706Z" fill="black" stroke="black"></path><path d="M275.055 140.829V141.329H275.555H297.626H298.126V140.829V43.6374V43.1374H297.626H275.555H275.055V43.6374V140.829ZM286.59 3.25391C278.57 3.25391 272.15 9.47965 272.15 17.8874C272.15 26.1061 278.574 32.3273 286.59 32.3273C294.606 32.3273 301.03 26.1061 301.03 17.8874C301.03 9.47965 294.611 3.25391 286.59 3.25391Z" fill="black" stroke="black"></path><path d="M208.688 140.83V141.33H209.188H231.259H231.759V140.83V96.8808C231.759 86.7903 234.21 78.9361 238.801 73.6112C243.383 68.2975 250.154 65.4353 258.945 65.4353C261.424 65.4353 262.749 65.6242 265.457 66.0111L266.028 66.0926V65.5161V43.0574V42.6475L265.626 42.5671C263.652 42.1724 261.489 41.9766 259.139 41.9766C246.537 41.9766 235.775 47.3587 230.576 56.6909H230.169L229.047 43.5955L229.007 43.1382H228.548H209.188H208.688V43.6382V140.83Z" fill="black" stroke="black"></path><path d="M126.503 141.324H127.003V140.824V86.226C127.003 78.6656 129.06 72.5985 132.712 68.4287C136.357 64.2666 141.634 61.944 148.187 61.944C154.456 61.944 159.392 64.0766 162.767 67.944C166.15 71.8205 168.016 77.4986 168.016 84.6771V140.824V141.324H168.516H190.588H191.088V140.824V80.2241C191.088 68.3132 187.474 58.4531 181.006 51.5664C174.534 44.6765 165.247 40.8086 153.996 40.8086C141.602 40.8086 131.236 45.6065 125.848 53.5868H125.402L124.29 43.5767L124.24 43.1319H123.793H104.432H103.932V43.6319V140.824V141.324H104.432H126.503Z" fill="black" stroke="black"></path><path d="M1.56641 43.1367H1.06641V43.6367V105.592C1.06641 116.939 4.98137 126.46 11.5932 133.145C18.2048 139.831 27.4845 143.652 38.1586 143.652C50.0295 143.652 58.4627 139.007 64.5473 130.874H65.0017L65.9277 140.875L65.9697 141.329H66.4256H85.7865H86.2865V140.829V43.6367V43.1367H85.7865H63.715H63.215V43.6367V99.7835C63.215 106.658 61.2106 112.34 57.7021 116.296C54.1988 120.246 49.1604 122.517 42.9988 122.517C37.2141 122.517 32.5166 120.529 29.2607 116.922C25.9997 113.309 24.1379 108.018 24.1379 101.332V43.6367V43.1367H23.6379H1.56641Z" fill="black" stroke="black"></path></svg>