<svg width="223" height="13" viewBox="0 0 223 13" fill="none" xmlns="http://www.w3.org/2000/svg"><path d="M222.975 12.4031C221.349 12.5144 219.783 12.8359 218.246 12.6932C202.537 11.2197 186.877 9.15286 171.139 8.28347C152.452 7.25073 133.719 7.00751 114.999 6.85854C100.425 6.74575 85.835 7.07022 71.2675 7.59247C53.8372 8.21954 36.4253 9.33332 18.9933 10.1002C14.3784 10.3062 9.72085 10.2008 5.12265 9.84822C0.89219 9.52534 -1.00107 6.01316 1.3138 3.21396C1.86603 2.54002 3.05163 1.98254 3.93835 1.97948C15.2847 2.00901 26.6327 2.3746 37.966 2.20712C50.1675 2.02575 62.3559 1.29277 74.554 0.915161C87.1036 0.528601 99.6513 -0.0727232 112.198 0.0536893C131.372 0.248649 150.568 0.547904 169.707 1.64517C185.317 2.54149 200.855 4.67307 216.416 6.27469C219.933 6.63323 222.505 8.05395 222.947 12.3915L222.975 12.4031Z" fill="#F3E1E9"></path></svg>