<svg width="15" height="15" viewBox="0 0 16 16" fill="none" xmlns="http://www.w3.org/2000/svg"><g clip-path="url(#clip0_437_158)"><path d="M7.841 10.6644C9.31081 10.6644 10.5023 9.47291 10.5023 8.00311C10.5023 6.53331 9.31081 5.3418 7.841 5.3418C6.3712 5.3418 5.17969 6.53331 5.17969 8.00311C5.17969 9.47291 6.3712 10.6644 7.841 10.6644Z" stroke="#000000" stroke-width="1.75" stroke-linecap="round" stroke-linejoin="round"></path><path d="M7.98044 13.1993C7.89129 13.1993 7.80147 13.1993 7.71431 13.1993L5.58193 14.3895C4.75182 14.1103 3.98186 13.6769 3.31249 13.1121L3.30451 10.7169C3.25727 10.6424 3.21269 10.5672 3.17144 10.4901L1.05104 9.28248C0.884028 8.43771 0.884028 7.5684 1.05104 6.72363L3.16945 5.51938C3.21269 5.44287 3.25727 5.36702 3.30251 5.29251L3.31316 2.89732C3.98192 2.33089 4.75168 1.8959 5.58193 1.61523L7.71098 2.80551C7.80014 2.80551 7.88995 2.80551 7.97711 2.80551L10.1062 1.61523C10.9363 1.89446 11.7062 2.32786 12.3756 2.89267L12.3836 5.28785C12.4308 5.36236 12.4754 5.43755 12.5166 5.51473L14.6357 6.72163C14.8027 7.56641 14.8027 8.43571 14.6357 9.28049L12.5173 10.4847C12.4741 10.5612 12.4295 10.6371 12.3842 10.7116L12.3736 13.1068C11.7053 13.6733 10.936 14.1085 10.1062 14.3895L7.98044 13.1993Z" stroke="#000000" stroke-width="1.75" stroke-linecap="round" stroke-linejoin="round"></path></g><defs><clipPath id="clip0_437_158"><rect width="16" height="16" fill="white"></rect></clipPath></defs></svg>