<svg width="16" height="16" viewBox="0 0 15 15" fill="none" xmlns="http://www.w3.org/2000/svg"><g clip-path="url(#clip0_1437_16)"><path d="M3.75 5.15625V6.09375C3.75 6.46671 3.89816 6.8244 4.16188 7.08812C4.4256 7.35184 4.78329 7.5 5.15625 7.5H9.84375C10.2167 7.5 10.5744 7.35184 10.8381 7.08812C11.1018 6.8244 11.25 6.46671 11.25 6.09375V5.15625" stroke="#9a9a9a" stroke-width="1.5" stroke-linecap="round" stroke-linejoin="round"></path><path d="M7.5 7.5V9.84375" stroke="#9a9a9a" stroke-width="1.5" stroke-linecap="round" stroke-linejoin="round"></path><path d="M3.75 5.15625C4.52665 5.15625 5.15625 4.52665 5.15625 3.75C5.15625 2.97335 4.52665 2.34375 3.75 2.34375C2.97335 2.34375 2.34375 2.97335 2.34375 3.75C2.34375 4.52665 2.97335 5.15625 3.75 5.15625Z" stroke="#9a9a9a" stroke-width="1.5" stroke-linecap="round" stroke-linejoin="round"></path><path d="M7.5 12.6562C8.27665 12.6562 8.90625 12.0267 8.90625 11.25C8.90625 10.4733 8.27665 9.84375 7.5 9.84375C6.72335 9.84375 6.09375 10.4733 6.09375 11.25C6.09375 12.0267 6.72335 12.6562 7.5 12.6562Z" stroke="#9a9a9a" stroke-width="1.5" stroke-linecap="round" stroke-linejoin="round"></path><path d="M11.25 5.15625C12.0267 5.15625 12.6562 4.52665 12.6562 3.75C12.6562 2.97335 12.0267 2.34375 11.25 2.34375C10.4733 2.34375 9.84375 2.97335 9.84375 3.75C9.84375 4.52665 10.4733 5.15625 11.25 5.15625Z" stroke="#9a9a9a" stroke-width="1.5" stroke-linecap="round" stroke-linejoin="round"></path></g><defs><clipPath id="clip0_1437_16"><rect width="15" height="15" fill="white"></rect></clipPath></defs></svg>